<?xml version="1.0" encoding="UTF-8"?>
<svg id="Layer_1" data-name="Layer 1" xmlns="http://www.w3.org/2000/svg" viewBox="0 0 4051.63 2560">
  <defs>
    <style>
      .cls-1 {
        fill: #2c3b8f;
      }

      .cls-2 {
        fill: #fff;
      }

      .cls-3 {
        fill: #e9272c;
      }
    </style>
  </defs>
  <path class="cls-1" d="M3110.69,1585.84l-2169.01.2c-224.75.02-398.13-197.13-398.56-415.47-.43-213,168.96-415.34,391.33-415.35l2182.34-.14c217-.01,384.76,193.51,391.5,401.21,7.23,222.38-166.64,429.52-397.59,429.54h-.01ZM3489.16,1148.8c-11.09-205.83-178.27-376.83-386.63-376.86l-2148.96-.38c-222.91-.04-395.98,187.34-391.57,407.53,4.03,201.21,166.64,388.03,377.23,388.02l2172.64-.13c221.79-.01,388.87-203.49,377.3-418.19h-.01Z"/>
  <path class="cls-1" d="M1731.11,1730.85c-16.52-4.08-33.14-2.06-50.24-2.08l-.47,38.73c-.05,4.12,2.99,12.41,6.24,14.52,11.02,7.13,26.84.65,26.71,5.21l-.39,13.34-103.36-.11-.52-13.21c-.19-4.76,15.19,1.82,26.68-5.44,3.22-2.04,6.03-9.94,6.03-14.59l-.13-97.51c0-8.08-7.37-13.24-14.58-13.41l-16.06-.37.37-16.36,112.62.19c18.01.04,36.59,4.99,51.02,14.33,16.08,10.4,23.44,32.43,11.43,47.55-9.9,12.48-26.3,15.29-41.74,20.56,34.23,20.87,28.68,20.71,34.61,55.52,10.06-1.06,9.63-8.26,10.13-15.64l.54-8.16c.15-2.24,7.87-1.91,10.64-.97,1.59,7.82,1.85,20.46.08,29.39-3.15,16-19.42,22.09-33.24,16.81-37.65-14.36-10.66-61.93-36.36-68.28h-.01ZM1750.69,1685.24c.41-12.35-4.72-26.37-19.25-27.84-16.9-1.72-33.99-1.21-50.88-.66l.21,54.95c23.24.73,68.86,4.85,69.92-26.45h0Z"/>
  <path class="cls-1" d="M2837.84,1763.05c.24-11.97-2.12-29.78-14.58-32.57-15.58-3.49-32.16-1.66-49.79-1.83l-.41,38.6c-.05,4.11,2.57,11.44,5.35,13.94,10.41,9.34,26.21-.75,28.08,7.94.78,3.61-1.23,11.56-5.05,11.56l-98.69-.22-.45-13.25c-.13-3.89,31.91,3.05,31.97-15.48l.32-101.94c.02-7.7-7.24-13.21-14.05-13.45l-16.79-.59.41-16.26,113.15.3c18.6.05,37.44,5.08,52.06,15.41,14.45,10.2,21.22,30.39,10.96,44.88-9.57,13.54-26.39,16.66-42.35,22.15,47.57,26.69,24.15,42.53,35.2,54.68,1.6,1.75,7.58-2.91,7.92-5.43l2.48-19.03,10.96.32c1.24,17.54,2.12,47.13-21.67,48.15-20.74.89-35.47-15.2-35.02-37.85h-.01ZM2843.7,1682.93c-.3-11.82-6.66-25.01-20.83-25.87-16.51-.99-32.49-.82-49.61-.63l.04,55.17c23.33.84,71.25,5.22,70.4-28.68Z"/>
  <path class="cls-1" d="M1339.73,1794.75l-105.77-108.73-.64,83.51c-.05,6.38,6.03,14.44,12.01,14.57l28.1.59-.88,15.95h-93.67l-.9-15.88,23.58-.64c5.36-.14,11.84-6.16,11.84-12.16l.02-102.15c0-8.07-6.93-13.97-14.62-14.01l-20.56-.09-.14-16.04,60.66-.07,98.92,106.74.66-74.34c.08-9.13-7.77-16.07-16.51-16.23l-23.27-.14.4-16.01h94.88l.44,15.73-20.51.58c-9.16.26-15.05,7.12-15.06,16.36l-.07,127.14c-6.71,2.44-13.73.69-18.93-4.65h0Z"/>
  <path class="cls-1" d="M1091.53,1743.42c-.49-22.59-29.19-15.64-44.29-16.4l-.02,57.54,56.42.34c7.38.05,15.06-5.02,18.41-11.71l21.89-43.77c1.3-2.59,10.06-2.39,11.31-.33l-7.93,59.73c-.91,6.84-8.26,11.89-15.09,11.89l-155.22-.12c-.65-5.15-1.11-10.76-.83-13.45.54-5.1,36.55,3.05,36.66-13.88l.65-103.44c.05-7.08-6.85-14.01-13.39-14.12l-24.19-.4.57-15.69,160.6-.07c4.52,0,9.31,4.27,9.99,9.42l7.99,60.89c.28,2.17-6.16,4.6-7.6,3.38s-4.51-4.35-5.55-6.47l-19.57-39.57c-2.51-5.06-9.96-11.49-15.83-11.5l-59.26-.08-.06,57.26,28.32.4c9.82.14,15.93-8.05,16.01-17.05l.17-17.94,15.86-.13.09,84.47c-3.64.58-10.53,1.1-15.65,1.24l-.44-20.42v-.02Z"/>
  <path class="cls-1" d="M1521.67,1742.01c-.35-7.61-8.05-15.07-15.18-15.09h-29.25l-.07,57.85,57.29.05c6.89,0,14.72-5.27,17.96-11.76l21.82-43.53c1.27-2.53,10-2.47,11.34-.76l-7.98,59.74c-.89,6.65-7.44,12.12-14.67,12.12h-155.21c-1.29-4.73-2.18-11.05-1.05-13.58,2.27-5.09,36.6,3.02,36.7-14.35l.65-102.58c.05-6.78-7.05-14.27-13.25-14.36l-24.45-.38.64-15.8,160.84-.07c4.24,0,8.96,4.95,9.48,8.91l8.29,63.46c-1.62,1.2-10.18,1.12-11.47-1.43l-22.66-45.03c-2.31-4.59-9.96-9.73-14.31-9.74l-59.91-.09-.11,57.23,26.86.6c9.08.2,17.35-5.96,17.71-15.42l.76-19.54c3.36-.63,11.06-.49,15.18.31l.02,84.28-14.99.75-1.03-21.8h.02Z"/>
  <path class="cls-1" d="M1910.3,1728.6c-.69-3.7-.73-11.7-.11-16.65l97.96-.02c3.43,3.41,3.53,13.99.56,16.54l-24.69.71-3.27,66.25c-16.1,9.28-17.63-12.08-26.67-11.8-34.86,30.02-85.55,18.12-114.15-11.54-34.27-35.54-27.07-87.68,11.24-116.67,33.5-25.35,77.08-26.73,108.82,3.44l6.57-18.4,12.79-.47,4.22,60.93-22.21-.51c-4.58-14.39-9.57-25.81-19.61-35.45-18.36-17.67-46.66-16.41-63.47,3.75-24.72,29.64-24,75.59,3.02,103.4,17.46,17.97,49.01,18.58,61.28-3.64,3.16-11.55-.11-26.59-1.09-39.43l-31.21-.43v-.02Z"/>
  <path class="cls-1" d="M2665.16,1777.35c-39.35,37.88-102.58,36.24-139.94-1.89-30.67-31.3-29.27-79.01,2.66-108.91,37.44-35.06,96.88-35.63,135.04-1.38,33.62,30.16,35.77,79.92,2.24,112.2h0ZM2631.58,1771.31c22.8-28.73,22.17-69.76.2-97.8-8.55-10.91-21.35-17.18-33.57-17.48-12.8-.31-25.77,5.42-34.7,16.18-23.65,28.48-23.8,71.21-.34,99.82,8.98,10.97,22.09,17,35.19,16.64,11.55-.32,24.29-6.13,33.23-17.37h0Z"/>
  <path class="cls-1" d="M3005.63,1785.44c3.4-.17,11.96-.82,11.84,1.76l-.63,13.34h-101.88l-1.51-11.6c-.85-6.56,15.83-.34,26.41-6.82,3.54-2.17,6.71-9.96,6.71-15.12l-.09-96.85c0-8.35-7.94-13.9-15.37-13.99l-15.73-.19.38-16.26,118.54.45c25.57.09,63.91,14.35,62.57,47.4-1.16,28.8-41.73,40.48-68.89,40.75l-42.76.44-.25,38.35c-.07,11.42,7.06,19.01,20.69,18.34h-.04ZM3055.36,1685.08c.45-12.21-5.04-26.27-19.5-27.65-16.66-1.6-33.2-1.22-50.76-.95l.06,55.47c22.58,0,69.04,4.93,70.2-26.86h0Z"/>
  <path class="cls-1" d="M2138.54,1736.61c-.54,13.34-6.52,46.63,10.96,47.15l24.37.73-1.11,16.73-106.28.15-1.49-17.17,26.32-.26c5.81-.06,13.09-5.87,13.07-11.9l-.07-35.39-54.16-76.45c-9.92-3.86-21.4-3.49-34.24-3.88l-.58-16.72,106.16-.06.85,16.54-34.52,1.68,43.4,69.15,42.35-68.88-34.11-1.92c-2.83-2.2-2.83-11.49-1.11-16.59l92.29.24c.06,7.35-.31,13.57-1.59,16.66-9.25,1.04-22.94-1.21-28.2,5.12l-62.31,75.06h-.01Z"/>
  <path class="cls-1" d="M2384.6,1672.27c-24.67,29.24-23.51,74.02,1.3,101.64,18.19,20.25,46.9,19.28,64.42-.02,10.19-11.22,14.87-23.19,18.39-39.22l21.1.45c-5.8,36.62-34.72,65.95-73.25,68.9-33.5,2.56-66.69-17.02-82.9-45.69-20.69-36.6-6.32-77.43,26.03-101.04,33.47-24.42,76.32-23.88,106.61,5.19l6.61-17.63c1.01-2.63,10.27-1.31,12.83-.2l4.59,67.74-21.09-.08c-3.64-17.65-8.91-32.36-21.69-44.28-18.14-16.92-45.55-16.4-62.96,4.22h.01Z"/>
  <ellipse class="cls-1" cx="3098.51" cy="1779.32" rx="22.36" ry="22.34"/>
  <path class="cls-1" d="M3427.88,1158.85c6.37,182.55-137.48,347.93-325.33,347.91l-2156.33-.26c-182.33-.02-322.2-160.15-322.67-334.11-.52-194.11,152.31-340.6,344.11-340.59l2118.32.17c184.76.01,335.36,139.07,341.9,326.87h.01ZM940.55,1379.18c-1.56,5.06-1.44,10.27.45,13.54l446.08-.04c1.66-4.53,1.57-11.11-1.49-13.51l-141.94-.06-.25-466.75c-26.85,18.93-46.68,34.98-73.57,45.42-75.12,29.18-148.65,34.11-229.28,30.54-1.2,3.42-1.31,9.15.15,12.68l148.8.41v377.68l-148.97.09h.01ZM1568.1,1220.58c-33.94-19.33-75.96-15.62-106.66,6.66-18.16,13.18-25.85,32.82-24.54,55.3,3.28,56.33,70.82,85.76,118.76,97.17,96.78,23.03,219.4,17.94,309.45-27.64,24.21-12.25,45.37-27.85,61.73-48.7,26.49-33.77,27.04-77.56,1.11-111.7-55.62-73.28-183.82-106.88-272.61-101.92-50.24,5.98-93.93,23.09-138.95,47.65l22.72-111.38,300.63,1.01c47.37-6.87,101.59-53.22,97.39-104.01l-11.34-.17c-5.22,39.17-47.01,52.49-80.24,55.39-79.54,6.93-170.03-14.87-246.08-37.18-24.27-7.11-48.23-10.12-72.98-7.77l-34.49,228c7.73,1.12,18.71,1.66,24.87-.09,59.07-48.93,141.14-62.13,213.04-41.44,38.16,10.98,65.07,39.4,73.12,78.37,7.27,35.11,6.02,71.35-2.76,106.02-17.1,67.5-85.26,77.03-145.09,75.14-47.45-1.5-138.71-11.65-165.75-55.91,46.42,10.08,110.21-17.87,104.66-65.91-1.59-13.7-10.57-28.07-26.02-36.87h0ZM3136.81,1162.58c0-135.3-109.77-244.99-245.18-244.99s-245.18,109.69-245.18,244.99,109.77,244.99,245.18,244.99,245.18-109.69,245.18-244.99ZM2104.75,1342.28c34.1,1.87,63.07-5.22,84.47-27.78,10.13-11.69,16.02-25.95,13.5-40.92-2.14-12.71-10.01-25.69-22.77-33.81-36.34-23.14-86.52-18.07-117.09,11.12-21.48,20.51-20.27,46.32-4.82,68.68,19.45,28.13,44.63,49.84,78.83,61.34,128.19,43.15,287.55,4.78,364.75-110.88,38.82-58.18,45.78-128.83,16.02-193.14-25.04-54.11-68.71-100.8-124.81-124.83-101.63-43.53-256.22-33.54-329.37,51.89-32.69,38.17-34.36,90.04-3.29,129.41,53.41,67.67,166.04,91.88,245.1,77.59,47.01-8.51,82.59-40.76,99.65-82.89,11.95,71.25,1.47,178.91-65.13,218.42-54.32,32.23-120.87,40.21-181.44,24.71-21.06-5.38-40.21-13.65-53.62-28.89h.01ZM3380.35,1170.22c0-30.17-24.47-54.62-54.67-54.62s-54.67,24.46-54.67,54.62,24.47,54.62,54.67,54.62,54.67-24.46,54.67-54.62ZM783.47,1176.62c0-30.16-24.47-54.61-54.65-54.61s-54.65,24.45-54.65,54.61,24.47,54.61,54.65,54.61,54.65-24.45,54.65-54.61Z"/>
  <path class="cls-2" d="M2104.75,1342.28c13.42,15.24,32.56,23.51,53.62,28.89,60.57,15.5,127.13,7.51,181.44-24.71,66.59-39.51,77.09-147.16,65.13-218.42-17.06,42.14-52.64,74.39-99.65,82.89-79.06,14.29-191.69-9.9-245.1-77.59-31.07-39.37-29.39-91.23,3.29-129.41,73.15-85.43,227.74-95.42,329.37-51.89,56.09,24.02,99.77,70.72,124.81,124.83,29.76,64.31,22.8,134.96-16.02,193.14-77.18,115.66-236.55,154.03-364.75,110.88-34.2-11.51-59.38-33.21-78.83-61.34-15.45-22.35-16.66-48.17,4.82-68.68,30.57-29.19,80.74-34.27,117.09-11.12,12.76,8.12,20.62,21.1,22.77,33.81,2.52,14.97-3.37,29.23-13.5,40.92-21.4,22.58-50.37,29.65-84.47,27.78h-.01ZM2358.55,1160.09c47.77-54.24,46.31-138.08-1.75-190.4-42.53-46.29-110.87-45.96-153.15.44-48.49,53.22-48.56,138.1-.14,191.32,42.75,47,112.2,47.28,155.04-1.36h0Z"/>
  <path class="cls-2" d="M3136.81,1162.58c0,135.3-109.77,244.99-245.18,244.99s-245.18-109.69-245.18-244.99,109.77-244.99,245.18-244.99,245.18,109.69,245.18,244.99ZM3010.1,1243.18c7.03-59.53,6.73-118.55.51-178.3-5.53-52.96-27.07-104.66-83.83-116.5-24.81-5.17-49.8-5.41-73.85,3.09-104.74,36.98-90.97,221.7-76.6,307.49,10.96,65.41,42.56,122.39,116.51,122.82,81.05.47,109.1-69.36,117.27-138.59h-.01Z"/>
  <path class="cls-2" d="M1568.1,1220.58c15.45,8.8,24.43,23.17,26.02,36.87,5.55,48.05-58.24,76-104.66,65.91,27.03,44.25,118.3,54.41,165.75,55.91,59.82,1.89,128-7.62,145.09-75.14,8.78-34.67,10.01-70.91,2.76-106.02-8.06-38.98-34.98-67.39-73.12-78.37-71.89-20.68-153.98-7.49-213.04,41.44-6.16,1.75-17.15,1.22-24.87.09l34.49-228c24.75-2.34,48.71.66,72.98,7.77,76.05,22.29,166.55,44.11,246.08,37.18,33.23-2.9,75.02-16.22,80.24-55.39l11.34.17c4.19,50.78-50.04,97.14-97.39,104.01l-300.63-1.01-22.72,111.38c45.02-24.56,88.71-41.67,138.95-47.65,88.79-4.96,216.98,28.66,272.61,101.92,25.92,34.15,25.38,77.93-1.11,111.7-16.36,20.85-37.52,36.46-61.73,48.7-90.06,45.58-212.68,50.67-309.45,27.64-47.95-11.41-115.47-40.85-118.76-97.17-1.31-22.48,6.39-42.12,24.54-55.3,30.69-22.28,72.72-25.98,106.66-6.66h0Z"/>
  <path class="cls-2" d="M940.55,1379.18l148.97-.09v-377.68l-148.8-.41c-1.47-3.54-1.35-9.26-.15-12.68,80.63,3.57,154.15-1.37,229.28-30.54,26.9-10.45,46.73-26.49,73.57-45.42l.25,466.75,141.94.06c3.06,2.4,3.15,8.99,1.49,13.51l-446.08.04c-1.89-3.25-2.01-8.47-.45-13.54h-.01Z"/>
  <ellipse class="cls-3" cx="728.83" cy="1176.62" rx="54.65" ry="54.61"/>
  <ellipse class="cls-3" cx="3325.68" cy="1170.22" rx="54.67" ry="54.62"/>
  <path class="cls-1" d="M2358.55,1160.09c-42.85,48.66-112.29,48.36-155.04,1.36-48.42-53.22-48.35-138.08.14-191.32,42.28-46.41,110.62-46.73,153.15-.44,48.06,52.3,49.52,136.16,1.75,190.4Z"/>
  <path class="cls-1" d="M3010.1,1243.18c-8.18,69.23-36.22,139.07-117.27,138.59-73.94-.43-105.56-57.41-116.51-122.82-14.36-85.79-28.14-270.51,76.6-307.49,24.04-8.48,49.03-8.26,73.85-3.09,56.76,11.83,78.32,63.54,83.83,116.5,6.24,59.75,6.52,118.76-.51,178.3h.01Z"/>
</svg>