<?xml version="1.0" encoding="UTF-8"?>
<svg id="Layer_1" data-name="Layer 1" xmlns="http://www.w3.org/2000/svg" viewBox="0 0 2560 2560">
  <defs>
    <style>
      .cls-1 {
        fill: #f2662e;
      }
    </style>
  </defs>
  <path d="M1129.5,2038.23c13.34-8.37,16.11-24.17,18.61-39.03l-161.94-.34.22-90.86,303.9-.03c.46,63.7,3.08,135.65-19.88,194.26-8.81,21.02-22.62,36.67-44.01,44.39-57.55,20.75-142.26,22.72-204.45,22.72-69.71,0-176.98-1.91-241.49-23.89-21.62-7.37-37.89-21.3-47.96-41.97-11.76-24.13-18.09-49.86-21.11-77.43-6.41-58.52-5.42-116.86,1.6-175.23,2.97-24.7,8.81-47.57,18.07-70.11,9.86-24.02,28.24-39.4,52.97-47.34,36.44-11.69,73.45-16.35,112.4-18.69,77.56-4.65,153.67-3.52,231.29,1.55,29.59,1.93,57.02,5.95,85.17,12.41,27.09,6.22,46.99,22.98,57.2,49.19,11.85,30.4,14.93,62.62,14.08,96.68l-138.18-.03c-.37-14.23-1.77-27.99-13.63-35.55-7.48-4.77-18.54-7.01-28.21-7.74-61.06-4.65-155.93-6.07-214.86,7.88-16.44,3.89-27.79,14.59-33.5,30.64-12.83,36.1-13.7,105.45-1.37,141.72,5.65,16.61,17.34,27.58,34.56,31.57,27.13,6.28,54.43,8.13,82.62,9.3,35.73,1.48,128.55,4.34,157.89-14.06Z"/>
  <path d="M2514.44,1897.79c-.03,52.21-6.58,124.91-64.4,143.66-55.79,18.09-117.64,17.96-175.92,19.82l-155.84.3-.33,103.45-138.57-.12v-448.86s291.38.24,291.38.24c44.89.04,86.83,2.61,130.61,8.61,22.45,4.85,44.43,8.8,64.16,20.53,44.86,26.68,48.94,105.68,48.92,152.39ZM2371.77,1858.83c-3.35-12.5-12.63-18.55-24.66-21.47l-51.43-4.64-177.5-.19.03,112.16,165.9.1c23.33-.51,45.27-1.93,68.12-5.34,30.13-7.26,25.31-59.15,19.54-80.63Z"/>
  <path d="M516.87,2087.03H246.75s-41.94,77.9-41.94,77.9l-159.26-.47,247.4-448.56,174.32.15,247.34,448.44-157.52.54-40.23-78.02ZM462.05,1981.57l-78.66-150.27-80.39,150.59,159.05-.32Z"/>
  <path class="cls-1" d="M1851.17,507.64l-115.35-115.55-137.31,137.31-137.58-137.31-115.45,115.82,390.41,390.42,115.21-116.19-136.91-137.02,136.98-137.49ZM1459.12,900.53l-115.15,115.36,137.48,137.47-137.66,137.7,115.65,115.79,105.24-105.32,32.34-32.52,137.6,137.46,115.65-115.83-79.26-78.49-311.89-311.62ZM1215.43,1143.25l-115.38-115.35-137.56,137.46-137.39-137.17-115.47,115.32,390.5,390.55,115.44-115.09-137.22-137.79,137.08-137.94ZM834.18,506.05l137.67,137.79-137.91,137.59,115.67,115.3,137.48-137.57,137.71,137.49,115.16-115.4-390.61-390.58-115.16,115.38Z"/>
  <path d="M1861.85,1970.88c.19,35.36-1.04,67.64-3.37,102.21l83.27,45.15-24.1,46.81-77.42-41.99c-23.69,22.3-53.46,36.89-86.7,40.69-27.31,3.12-53.46,4.77-80.97,4.75l-162.04-.1c-40.43-.02-79.54-4.43-118.41-12.69-24.9-5.29-42.87-19.4-52.16-42.88-17.08-43.19-17.25-112.66-7.07-157.7,3.93-17.38,14.03-29.73,30.12-36.3,20.61-8.42,40.71-14.42,63.28-21.21l-17.45-13.66c-4.09-3.2-8.55-12.13-9.87-18.08-7.67-34.54-7.9-70.45,2.4-103.97,6.34-20.65,21.24-34.39,41.96-38.79,65.17-13.86,179.87-12.67,247.92-8.8,24.78,1.41,47.71,4.88,71.3,10.09s37.98,18.99,45.55,41.11c8.91,26.05,11.17,53.2,10.98,82.17l-57.72.17c-2.63-28.97-2.49-67.62-37.61-74.64-11.95-2.39-23.82-4.92-36.59-5.67-67.58-3.97-134.35-3.8-201.52,1.6-16.49,1.33-29.44,10.85-31.26,27.25-1.52,13.74-1,28.14.67,41.8,1.33,10.95,6.39,19.37,15.84,24.56l99.46,54.55,229.23,123.67,1.28-93.06,60.89-.7.13,23.66ZM1608.29,2118.54l82-2.04c31.53-.78,61.59-7.48,87.65-27.27l-294.76-159.68c-23.57,4.09-45.52,9.83-68.01,17.35-12.41,4.15-19.45,12.95-23,25.76-6.79,32.01-12.93,108.64,19.69,128.95,9.56,5.95,21.76,8.65,33.22,10.35,42.14,6.27,119.52,7.68,163.21,6.59Z"/>
</svg>