<?xml version="1.0" encoding="UTF-8"?>
<svg id="Layer_1" data-name="Layer 1" xmlns="http://www.w3.org/2000/svg" viewBox="0 0 2560 2560">
  <defs>
    <style>
      .cls-1 {
        fill: #2caae2;
      }

      .cls-2 {
        fill: #04304b;
      }
    </style>
  </defs>
  <path class="cls-2" d="M773.8,1564.53l75.43-193.62,101.85.55-199.22,452.14-105.83-.05-2.74-141.47c-1.65-64.08.66-125.34,2.28-190.86l-48.76,135.91-82.84,196.51-107.82-.05-17.55-452.55,98.08.07.68,183.1-1.7,161.09,55.51-149.37,78.23-194.89,106.52.02-.79,123.36-3.72,218.88,52.39-148.77Z"/>
  <path class="cls-2" d="M1544.83,2473.71c-267.74,82.31-572.22,64.72-824.22-59.9,229.86,73.57,471.04,81.69,704.01,21.5,260.29-67.28,495.15-215.5,667.86-421.32,153.32-182.96,250.01-402.52,282.68-638.48,1.97,135.19-25.65,268.21-72.16,393.33-60.57,159.01-155.09,302.12-277.02,420.5-135.62,131.35-300.56,228.87-481.15,284.37Z"/>
  <path class="cls-1" d="M551.57,370.08c-206.51,125.62-368.1,304.21-475.57,519.74,35.31-113.81,93.39-218.78,163.51-312.95,101.91-136.86,233.36-247.81,383.62-328.06,161.51-85.32,340.97-132.82,523.95-138.27,203.36-5.87,403.72,41.39,582.46,137.5,84.66,47.3,166.23,101.89,235.02,171.97-186.59-133.79-400.53-213.94-628.23-233.83-273.35-23.55-549.6,40.84-784.77,183.9Z"/>
  <path class="cls-2" d="M929.49,1215.68c-81.04,28.84-185.88,23.97-270.59,12.74l83.93-440.4c75.11-11.94,179.34-19.75,249.57,13.14,51.56,23.57,86.75,68.03,96.33,124.41,20.31,119.48-38.97,247.96-159.24,290.12ZM983.64,936.76c-17.02-76.84-89.12-86.63-156.27-77.64l-56.71,295.81c25.66,3.33,50.26,4,75.07.1,107.03-16.8,152.93-120.25,137.92-218.27Z"/>
  <path class="cls-2" d="M1853.53,1788.33c-28.69,32.72-71.13,48.4-113.63,40.48-53.7-10.01-80.36-62.35-81.95-114.77-3.47-114.42,74.84-218.07,192.55-225.91,20.19-1.35,38.46.36,58.58,6.35l28.18-147.53,97.3.06-68.47,360.36c-7.04,39.46-11.29,76.33-13.61,116.36l-88.79-.04,3.78-51.24-13.94,15.89ZM1878.68,1658.35l16.2-86c-30.24-18.27-66.83-12.46-92.43,12.39-48.75,47.34-58.51,140.67-19.34,162.18,13.3,7.31,27.13,6.76,39.68.99,32.47-14.92,49.57-55.98,55.9-89.57Z"/>
  <path class="cls-2" d="M1799.33,942c34.61,59.43,14.34,148.43-20.83,204.05-32.04,50.67-82.73,83.59-142.03,92.24-31.45,4.59-62.34,4.12-92.23-4.65-36.09-10.59-60.03-39.24-61.47-77.01-.7-18.44,1.39-35.35,4.29-54.26l69.16-345.25,98.02.12-38.29,185.8c33.02-34.69,76.28-50.96,122.05-43.31,26.2,4.38,47.3,19.86,61.34,42.29ZM1620.03,1167.11c66.3-1.66,109.92-109,89.64-165.05-6.87-18.98-25.12-28.31-44.99-25.08-18.47,3.01-33.31,14.48-44.86,29.09-15.19,19.22-22.79,41.81-28.09,65.84-4.45,20.2-9.12,39.88-8.54,60.26.59,20.81,14.49,35.49,36.84,34.92Z"/>
  <path class="cls-2" d="M2013.25,1214.35c-48.14,40-122.65,36.62-155.58-19.14-30.15-51.07-17-127.4,8.46-178.43,23.94-47.99,63.91-83.57,113.74-102.7,64.23-23.87,137.66-19.26,204.48-.2l-34.04,168.54c-10.09,49.96-13.36,98.65-13.92,151.15l-89.66.03,3.7-63.35c-12.41,17.12-21.79,31.32-37.17,44.09ZM1999.52,1157.92c15.02-7.31,24.6-19.63,33.67-32.76,10.31-19.08,18.63-38.89,23.08-60.64l18.37-89.61c-78.46-21.45-132.15,66.41-133.1,133.49.61,14.74,2.36,28.91,10.9,40.51,10.69,14.51,30.17,17.23,47.08,9Z"/>
  <path class="cls-2" d="M2266.29,663.69c-92.68-134.19-204.45-249.77-338.01-342.76-161.02-112.53-345.55-189.28-539.26-223.46-146.26-26.42-292.52-25.68-440.77-4.09,144.29-51.88,298.5-66.87,450.63-52.02,206.3,21.93,402.01,102.53,564.25,231.31,129.73,104.45,235.87,237.18,303.16,391.02Z"/>
  <path class="cls-2" d="M1036.44,1830.75c-22.46.55-41.38-1.77-61.07-8.68-44.85-15.74-76.24-53.89-82.76-101.71-11.6-85.1,29.64-176.94,110.08-214.29,40.11-18.63,84.85-23.76,127.49-12.73,50.19,12.98,85.96,53.17,93.39,104.68,6.42,44.53-1.94,89.7-22.22,129.75-31.75,62.68-93.78,101.24-164.9,102.98ZM1078.84,1742.79c34.15-28.91,48.64-88.25,45.45-129.99-1.27-16.59-7.72-33.12-21.28-42.51-19.48-13.49-45.83-10.7-64.13,3.76-35.54,28.11-51.1,89.62-46.57,133.11,1.71,16.44,8.98,32.05,22.56,41.04,19.61,12.98,45.48,10.24,63.96-5.41Z"/>
  <path class="cls-1" d="M1907.88,2338.21c108.57-85.47,203.57-180.24,282.23-292.91,129.11-182.72,210.94-396.23,237.57-618.75,17.63-144.37,9.26-287.08-18.6-428.91,70.21,171.02,89.44,357.37,64.51,538.05-25.03,173.68-90.94,338.27-192.67,481.02-96.88,133.31-222.49,246.96-373.05,321.51Z"/>
  <path class="cls-2" d="M1458.58,905.53l-46.59,245.63-13.31,82.56-85.58-.14,5.5-52.85c-35.22,42.01-80.42,68.1-135.95,58.33-29.76-5.23-51.34-26.68-58.19-56.36-5.62-24.36-4.04-48.33-.89-73.77l38.03-203.63,97.38.04-34.53,184.77c-2,15.58-3.7,30.3-2.12,45.16,1.68,15.79,13.64,26.21,29.27,26.55,43.79.94,69.99-57.36,78.66-94.05l31.05-162.55,97.26.31Z"/>
  <polygon class="cls-2" points="1578.89 1823.43 1481.45 1823.47 1572.69 1346.98 1670.1 1346.98 1578.89 1823.43"/>
  <path class="cls-2" d="M1243.68,1823.47l40.26-215.98,13.55-112.49,84.04-.06-4.76,65.47c13.61-20.03,24.62-36.45,41.99-49.94,23.2-17.98,50.16-26.19,81.67-21.66l-18.86,94.55c-37.19-5.51-69.82,9.35-89.26,40.16-12.57,19.92-21.39,42-25.93,65.82l-25.57,134.21-97.13-.09Z"/>
  <polygon class="cls-2" points="2294.21 1233.17 2196.72 1233.55 2259.11 905.31 2356.43 905.46 2294.21 1233.17"/>
  <circle class="cls-2" cx="2324.95" cy="814.02" r="52.21"/>
</svg>