<?xml version="1.0" encoding="UTF-8"?>
<svg id="Layer_1" data-name="Layer 1" xmlns="http://www.w3.org/2000/svg" viewBox="0 0 2560 2560">
  <defs>
    <style>
      .cls-1 {
        fill: #2068a8;
      }

      .cls-2 {
        fill: #1c64b0;
      }

      .cls-3 {
        fill: #1e66ab;
      }

      .cls-4 {
        fill: #1fa2db;
      }

      .cls-5 {
        fill: #0a75ba;
      }

      .cls-6 {
        fill: #1fa2dc;
      }
    </style>
  </defs>
  <path class="cls-3" d="M1404.3,1763.86l-47.52,83.88-.31,56.88c-8.75,1.19-16.07,1.19-24.77.04l-.64-58.48-44.77-77.5-53.27,136.22c-1.25,3.18-12.09,2.25-15.09,0l-52.3-140.94c8.84-2.73,17.3-1.28,27.64-1.07l32.9,92.87,34.59-93.07h49.3s34.09,59.39,34.09,59.39l33.18-58.6c8.97-1.42,17.69-1.99,26.98.38Z"/>
  <path class="cls-3" d="M1834.58,2056.29c4.52-4.09,1.37-13.23.38-16.48l-29.29-.66c-1.59-7.47-1.64-14.69-.15-22.66h58.51s-.1,55.11-.1,55.11c-27.85,20.96-65.25,27.76-95.98,10.1-36.64-21.06-41.69-86.19-8.19-115.53,15.52-13.59,35.9-17.16,56.21-14.99,22.28,2.38,41.86,14.26,46.67,38.69-8.4,3.94-17.9,5.5-27.53,5.56-4.28-12.02-13.66-19.21-25.94-20.46s-23.36,2.58-31.05,9.87c-16.16,15.33-18.8,66.09,10.95,79.36,14.2,6.34,33.25,3.19,45.52-7.91Z"/>
  <path class="cls-3" d="M164.23,2048.44l23.09,26.47c-3.31,6.86-10.23,11.19-16.75,15.52-6.58-6.65-11.4-13.58-19.46-19.21-11.57,15.92-27.95,24.64-46.53,21.13-16.74-3.16-31.51-14.58-35.23-33.79-4-20.71,7.58-39.65,27.35-50.11-7.19-11.21-13.55-20.27-12.12-32.97,1.03-9.07,6.21-20.66,16.59-25.93,11.53-5.84,24.2-6.67,36.32-.05,9.1,4.97,17.72,15.84,17.51,29.46-.23,14.85-9.67,25.32-21.83,34.38,3.09,6.1,7.47,11.14,13.21,15.8,7.61-5.91,7.74-17.43,15.13-21.26,7.11-3.68,17.09-.92,24.41-.34l-21.69,40.9ZM130.58,1982.57c3.31-10.91-4.13-16.71-12.54-16.07-6.56.5-11.89,6.04-10.24,14.94.81,4.36,3.65,14.05,9.23,14.29s11.97-7.93,13.55-13.15ZM131.78,2051.12c-4.69-10.37-14-15.71-19.85-24.09-10.76,4.6-19.14,13.72-18.59,24.92.55,11.13,12.51,17.5,21.24,16.59,6.84-.71,20.74-9.6,17.2-17.43Z"/>
  <path class="cls-3" d="M1656.4,2090.47c-.02,5.77-10.87,1.93-12.92-.71l-64.77-83.35-1.41,83.61c-8.45,1.17-16.29,1.23-25.08,0l-.14-140.32c4.17-2.6,11.81-3.29,15.25,1.04l62.9,79.3,1.44-80.74c7.52-2.43,15.58-1.7,25.27-.55l-.54,141.72Z"/>
  <path class="cls-3" d="M448.16,1902.68c-2.13,5.95-8.5,4.39-12.88,2.35l-65.39-84.32-1.53,83.2c-7.18,2.55-15.34,1.74-23.97.61l-.09-140.2c2.25-1.92,9.96-3.62,12.47-.44l64.9,81.97.91-81.85c7.65-2.55,16.14-1.9,25.15-.48l.44,139.16Z"/>
  <path class="cls-3" d="M1631.49,1904.57c-5.6,4.15-11.19,1.61-14.67-2.88l-62.41-80.57-1.61,83.31c-8.33,1.43-16.16,1.5-24.9-.05l-.23-139.76c5.51-3.87,12.2-2.82,16.24,2.32l62.26,79.17,1.27-82.86c8.42-1.19,15.65-1.21,23.81.06l.23,141.27Z"/>
  <path class="cls-3" d="M941.51,2091.11l-37.75-57.39c-2.52-3.82-14.42-4.58-15.75-.66l-1.25,56.85c-8.65,1.44-16.64,1.23-26.22.14l-.24-141.72c22.11-3.67,45.11-4.85,66.76,1.71,18.13,5.49,28.12,20.26,27.57,38.9-.49,16.61-8.9,30.43-25.31,37.23l40.9,64.21-28.73.73ZM915.89,2005.97c8.91-3.79,12.03-10.79,11.61-18.3-1.05-18.78-26.52-19.75-40.22-16.49l.39,36.99c9.63,1.58,19.08,1.7,28.22-2.19Z"/>
  <path class="cls-3" d="M616.32,2089.87c0,3.46-7.55,4.87-9.25,3.46l-69.31-88.49-.93,84.49c-7.38,2.52-15.42,1.73-24.06.6l-.19-140.16c5.36-3.59,12.24-2.59,16.28,2.55l62.25,79.18,1.28-82.86c8.45-1.17,15.6-1.21,23.84.07l.1,141.16Z"/>
  <path class="cls-3" d="M1958.97,2090.37l-37.45-56.67c-2.56-3.87-11.65-1.23-15.18-.53l-.91,56.94c-9.29,1.06-17.2,1.13-26.28-.09v-140.35c24.7-3.04,60.2-6.22,80.4,9.54,11.25,8.78,14.88,23.08,12.91,37.13-1.79,12.78-10.34,24.01-24.8,31.39l40.02,61.57c-9.51,2.76-18.44,1.33-28.71,1.08ZM1934.55,2006.92c9.14-4.02,12.46-11.17,11.5-18.73-2.22-17.44-24.75-18.45-39.77-16.23l-.3,37.06c8.7,2.28,18.93,2.14,28.57-2.1Z"/>
  <path class="cls-3" d="M2116.14,2047.43c-7.28,27.17-30.2,45.1-56.01,45.62-25.95.52-49.87-15.59-58.31-41.58-6.72-20.7-6.66-43.24-.3-63.96,7.9-25.76,30.61-42.28,56.34-42.55,26.14-.27,49.48,16.44,57.57,42.95,5.77,18.88,6.14,39.24.71,59.51ZM2086.07,1986.8c-5.6-11.79-16.5-18.72-28.21-18.46-34.86.78-41.43,55.18-26.28,84.31,5.78,11.11,16.93,17.74,28.61,17.04,32.51-1.94,40.01-53.14,25.87-82.9Z"/>
  <path class="cls-3" d="M1524.61,2051.92c-8.8,26.75-33.51,42.22-59.5,40.96-26.28-1.28-47.74-19.45-54.76-45.89-5.21-19.61-4.95-40.12,1.09-59.55,7.55-24.3,28.03-40.05,51.46-42.18,25.43-2.31,49.02,11.39,59.61,35.46,9.78,22.23,10.08,46.96,2.1,71.19ZM1495.82,1986.57c-5.46-11.27-15.42-17.9-26.15-18.21s-20.8,4.56-26.86,14.93c-12.29,21.02-12.53,48.77-.67,70.22,5.77,10.44,16.55,16.67,27.56,16.2,30.38-1.32,42.36-49.59,26.12-83.13Z"/>
  <path class="cls-3" d="M483.93,2050.29c-8.07,25.23-28.47,40.52-51.87,42.51-24.72,2.1-48.69-11.48-59.03-35.1-10.13-23.14-10.35-49.64-1.81-73.32,9.2-25.52,32.97-40.54,58.85-39.35,25.76,1.19,48.31,19.48,54.94,46.15,4.71,18.94,5.19,39.47-1.09,59.11ZM453.09,1984.23c-6.14-10.83-16.76-16.45-27.67-15.91-33.29,1.65-41.44,55.2-24.42,85.38,6.23,11.05,17.48,17.16,29.12,15.93,31.04-3.29,40.04-55.3,22.98-85.39Z"/>
  <path class="cls-3" d="M2203.9,1905.09l-35.56-54.78c-2.84-4.38-13.4-6.54-16.59-2.8l-1.15,56.77c-8.62,1.73-16.58,1.5-26.15.33v-141.45c31.67-3.58,89.68-7.75,92.73,35.21,1.3,18.33-6.35,34.57-24.93,42.65l40.34,63.15c-8.98,2.2-17.48.99-28.68.91ZM2186.77,1814.95c6.88-7.31,3.88-20.93-3.91-25.1-9.78-5.24-19.96-5.91-31.26-4.87-.4,13.51-1.6,25.69.76,39.19,11.97,1.33,25.34.44,34.41-9.22Z"/>
  <path class="cls-3" d="M1764.67,1817.18c4.03,32.25-5.42,75.3-43.91,84.33-20.02,4.7-40.08,4.4-61.1,3.17l-.2-141.12c43.75-3.86,98.08-3.39,105.2,53.62ZM1728.97,1866.66c13.58-20.26,13.54-50.2-.79-69.09-9.68-12.75-27.68-12.71-42.77-11.04l-.28,93.12c14.84,3.09,33.49,2.45,43.84-12.99Z"/>
  <path class="cls-3" d="M739.7,1902.56c-2.91,6.61-10.72,4.63-14.22.11l-64.46-83.36-.93,84.74c-7.06,2.29-14.98,1.67-24.01.48l-.27-140.08c7-4.69,13.03-1.25,17.61,4.56l60.82,77.11,1.3-82.87c7.86-1.13,15.09-1.26,23.78.05l.39,139.27Z"/>
  <path class="cls-1" d="M931.13,1904.21c-8.79,2.08-16.69,1.42-25.17.23l-.88-62.25h-54.13s-.76,62.42-.76,62.42c-8.55,1.14-16.29,1.22-25.11,0l-.16-140.74c7.91-2.5,16.39-1.59,25.14-.45l.93,54.96,54.07-.02.94-54.96c8.42-1.34,16.23-1.37,24.97-.13l.16,140.95Z"/>
  <path class="cls-3" d="M190.53,1904.13c-9.05,2.25-16.45,1.43-25.18.52l-.74-62.34-53.85-.37-1.04,62.28c-8.62,1.73-17.95,2.15-26.52-.39l.19-140.37c9.4-1.36,17.93-1.75,26.37.17l.58,54.6,53.75.36,1.13-54.92c7.7-1.96,15.82-1.54,25.1-.37l.2,140.84Z"/>
  <path class="cls-1" d="M2246.27,1948.54l-.56,100.55c-.12,22.23-16.48,38.73-37.35,42.58-34.05,6.28-64.72-11.41-64.96-40.66l-.84-102.34c9.23-1.2,16.67-1.19,25.36-.01l.81,96.01c.13,15.4,12.29,25.35,25.73,25.33,13.65-.03,25.54-10.06,25.67-25.48l.84-95.84c8.08-1.18,14.89-1.15,25.31-.13Z"/>
  <path class="cls-3" d="M1885.01,1763.13l.1,98.82c.02,22.82-16.08,40.5-38.25,44.23-18.29,3.08-37.38.1-50.93-12.98-9.37-9.05-13.13-22.86-13.12-36.07l.11-93.88c8.99-1.2,16.23-1.23,25.02.02l.69,95.17c.12,16.32,12.9,27.05,27.13,26.02,15.77-1.14,24.04-13.56,24.04-29.79l-.03-91.21c8.4-1.42,15.05-1.38,25.24-.32Z"/>
  <path class="cls-1" d="M1030.1,1840.42l-44.84.56c-.72,13.59-.81,26.4-.03,40.78l63.31.64c1.44,7.69,1.48,14.81-.05,22.74l-88.87.07-.35-142.32,89.26-.23c1.49,8.01,1.44,15.08.03,22.81l-63.18.77c-1.03,11.12-.96,20.86-.04,32.02l44.48.54c2.26,6.24,1.99,13.62.28,21.63Z"/>
  <path class="cls-2" d="M1060.34,1950.02c7.5-4.04,15.97-2.04,25.52-1.27l-.16,98.57c-.05,29.15-24,45.95-51.44,45.94-29.02-.01-51.84-18.4-51.8-48.53l.13-96.03c8.94-1.27,16.23-1.25,24.99-.02l.78,95.17c.13,15.44,11.2,25.63,24.6,26.14,15.21.58,25.81-9.99,27.36-26.11v-93.86Z"/>
  <path class="cls-2" d="M2345.17,2034.27c-14.3,6.15-29.62,3.18-45.41,3.93l-1.24,53.57c-7.96,2.27-17.14,2.38-25.4,0l.18-144.69c24.08.4,47.19-2.63,69.68,2.66,18.14,4.27,25.55,24.2,25.64,41.39.09,17.6-5.82,35.55-23.46,43.14ZM2333.11,2009.46c12.09-6.33,11.76-27.36.58-33.45s-23.87-3.69-34.8-2.74l.34,38.95c10.79-.28,22.66,3.1,33.88-2.77Z"/>
  <path class="cls-3" d="M2369.71,1840.4l-43.72.66-.05,40.6,62.2.72c1.44,7.7,1.49,14.85-.04,22.79l-87.96-.05v-142.41s87.98-.05,87.98-.05c1.49,7.98,1.44,15.01.04,22.82l-61.46.38c-2.2,10.21-1.24,20.78-.62,32.3l43.34.61c2.25,6.25,1.98,13.64.29,21.62Z"/>
  <path class="cls-3" d="M290.59,1876.72c-16.21-1.32-31.13-.82-46.9-.19l-10.76,28.14c-9.42,1.04-18.12,1.34-27.88-.31l55.29-140.73c1.29-3.28,12.07-3.59,13.27-.52l55.27,140.85c-8.28,1-20.58,4.18-27.05-.44-6.53-6.03-5.82-17.55-11.25-26.8ZM282.97,1855.03l-16.08-44.97-15.8,45.84c11.5.49,21.64,2.17,31.88-.87Z"/>
  <path class="cls-3" d="M1144.28,1876.99c-16.04-2.02-31.07-.63-46.84-.8-6.49,7.67-4.5,20.47-11.73,27.22-6.29,4.86-18.24,1.07-27.4,1.13l55.43-141.26c1.35-3.44,12.09-2.88,13.38.41l55.13,140.19c-9.18,2.64-18.08,1.48-27.99.96l-9.98-27.86ZM1136.29,1855.71c-5.5-16.58-9.27-30.34-16.26-44.8l-15.79,44.34c10.79,2.22,20.51,1.7,32.05.46Z"/>
  <path class="cls-3" d="M1138.88,1996.79c-9.21,28.93,2.78,65.85,31.18,70.4,13.6,2.18,25.02-1.99,34.9-11.3,4.69,6.53,8.61,12.66,11.83,20.9-15.34,13.05-34.19,18.89-54.43,15.16-47-8.67-65.71-65.05-48.28-106.9,16.43-39.44,61.81-49.61,98.36-30.21-1.8,8.38-5.52,14.72-10.21,21.24-12.21-6.74-24.01-9.84-37.7-5.54-10.81,3.39-21.31,12.61-25.65,26.25Z"/>
  <path class="cls-3" d="M273.65,1997.35c-8.7,27.91,2.73,64.34,30.18,69.63,14.82,2.86,25.55-2.15,36.99-11.08,3.97,7.77,8.16,13.03,10.62,20.76-19.7,17.74-47.58,21.66-71.46,9.17-26.58-13.9-38.39-42.97-37.23-72.55,1.3-33.37,22.12-61.75,55.48-67.05,17.14-2.72,34.35.7,49.29,8.76-1.8,7.94-5.57,14.05-9.8,20.92-12.88-6.02-25.09-10.13-39.42-5.02-10.23,3.65-20.46,13.04-24.65,26.46Z"/>
  <path class="cls-3" d="M691.64,2091.4c-19.01,4.56-37.6-.36-53.9-9.75,1.91-8.64,5.14-15.07,8.77-23.05,17.01,11.71,48.22,15.68,52.5-3.74,1.46-6.62-1.73-13.79-8.55-17.83l-32.27-19.11c-12.96-7.68-20.28-20.57-19.78-35.24.46-13.42,7.39-27.24,21.7-33.03,18.73-7.57,40.38-5.15,57.41,4.55-1.18,8.95-3.38,15.69-7.77,21.76-13.11-7.31-40.18-15.82-44.57,2.26-7.62,31.36,67.12,28.3,59.31,79.92-2.35,15.56-13.94,28.72-32.84,33.26Z"/>
  <path class="cls-3" d="M1955.58,1906.7c-17.6,2.44-33.72-2.69-48.38-10.2,1.88-8.79,4.98-15.25,9.11-22.72,15.38,9.49,47.84,15.57,51.65-3.78,1.46-7.42-1.76-14.27-8.65-18.45l-34.73-21.06c-14.58-8.84-19.2-25.13-15.28-41.59,7.67-32.23,51.31-33.98,77.02-19.94-.72,8.77-2.86,16.13-7.67,22.92-10.7-6.68-21.85-10.99-34.06-8.39-6.28,1.34-9.57,6.92-10.43,11.68-5.15,28.5,69.55,28.01,58.76,79.82-3.38,16.23-17.23,28.91-37.33,31.7Z"/>
  <path class="cls-3" d="M2467.2,1902.69c-20.86,9.26-43.19,4-62.13-6.54,1.39-8.61,4.5-15.05,8.97-22.48,15.79,10.13,47.14,15.67,51.59-4.21,1.54-6.88-1.67-13.9-8.51-17.88l-30.78-17.87c-13.18-7.65-20.53-20.07-20.6-34-.07-14.65,6.71-28.5,21.69-34.83,18.34-7.76,38.82-4.4,56.54,4.18-1.07,8.97-3.54,15.55-7.22,22.7-14.53-8.6-39.41-15.69-44.43,1.16-8.93,29.94,61.37,28.53,59.08,75.02-.7,14.12-8.5,27.78-24.19,34.74Z"/>
  <path class="cls-1" d="M1294.6,2089.69c-9.09,1.68-17.59,1.97-25.51-.25l-.24-117.61-39.22-1.05c-1.34-7.54-1.49-14.78.1-22.68l107.52-.14c2.53,7.02,1.65,14.81.45,22.62l-42.84,1.2-.26,117.91Z"/>
  <path class="cls-3" d="M801.7,2089.71c-9.36,1.68-17.96,1.82-26.61-.15l-.3-117.83-39.44-1c-.93-7.9-1.86-15.68.64-22.77l107.55.14c1.55,7.88,1.42,15.1.07,22.62l-41.65.95-.27,118.03Z"/>
  <path class="cls-3" d="M2066.77,1904.23c-8.75,2.1-16.03,1.24-25.05.46l-.59-118.36-39.41-1.02c-1.13-7.58-1.21-14.63.05-22.59l107.93-.1c1.84,7.75,1.68,14.98.28,22.73l-42.58.56-.64,118.33Z"/>
  <path class="cls-3" d="M505.92,1906.88c-22.55-.47-40.33-12.42-42.94-34.79,33.29-7.8,23.24,17.43,49.32,10.65,8.42-2.19,15.39-11.96,15.49-22.78l.91-96.04c7.66-2.53,15.54-1.73,25.39-.59-.91,33.58,1.66,66.98-1.15,100.32-2.2,26.12-20.39,43.79-47.01,43.24Z"/>
  <rect class="cls-1" x="2245.03" y="1762.53" width="25.69" height="142.79"/>
  <rect class="cls-3" x="1356.85" y="1947.95" width="26.84" height="142.79"/>
  <rect class="cls-1" x="1473.97" y="1762.53" width="25.69" height="142.79"/>
  <rect class="cls-1" x="580.91" y="1762.53" width="25.69" height="142.79"/>
  <g>
    <path class="cls-2" d="M1470.47,580.99c5.45-.26,8.39,2.79,9.88,5.04,51.08,43.65,113.38,126.01,141.13,188.3,14.63,32.86,29.29,65.04,36.07,100.27l8.21,42.68c3.84,19.95-.54,41.83,4.36,62.47,6.37,26.82-1.72,51.19-4.91,77.68l-8.24,68.4-11,52.39c-7.17,34.17-24.34,63.06-40.85,92.89-12.37,22.35-25.2,41.96-41.45,61.46-6.81,8.17-14.34,14.42-21.66,22.15l-30.89,32.6c-10.79,11.38-23.92,17.97-35.81,27.77-3.6,5-1.94,16.08-11.08,20.8-20.45,10.56-48.84,45.24-77.62,50.68-12.46,2.35-20.64,10.01-31.34,15.3-56.31,27.81-39.49,19.99-102.26,34.52-2.27-4.02-3.35-8.01-5.44-7.7-1.53.23-4.53-.43-6.43.43-21.12,9.62-42.79,9.29-65.45,11.63-22.69,2.34-54.1,7.73-78.31-.32-9.4-3.12-20.77-.26-29.84-4.52-11.8-5.54-23.23-7.77-35.42-7.57l-24.75-10.32c-23.98-22.67-49.58-41.6-76.65-59.96-16.51-11.2-29.89-25.01-43.96-38.27-20.85-19.65-28.93-45.26-42.87-68.51-12.65-21.11-20.96-39.5-28.92-64.11l-31.9-98.55c-9.61-29.68-1.15-72.27-1.93-75.94-17.06-80.11-1.95-39.78,2.1-104.85,1.71-27.48,8.15-53.95,14.43-80.43l8.5-35.84c8.46-35.68,29.45-65.38,50.54-94.39l40.3-55.43c16.42-22.58,33.5-39.95,55.16-57.6,23.12-18.83,43.58-38.36,68.53-55.42,87.58-59.87,89.84-38.88,124.51-56.27,35.37-17.74,74.16-22.02,113.18-25.48,21.87-1.94,40.4,1.6,61.64,3.36,38.74,3.22,77.47,3.16,114.25,17.14,12.41,4.72,22.93,14.12,36.21,13.48ZM985.16,1220.1c-1.17-.1-2.39.42-3.42.19-2.18-.48-4.98,1.43-2.68,2.58l4.51,2.25c5.24,2.62,11.95,7.3,16.94,11.96,6.7,6.27,15.51,3.57,21.82,7.17,14.44,8.24,27.24,17.56,43.47,22.4l39.5,11.79c17.86,5.33,6.53,6.52,21.05,11.25,11.71,20.97,37.66,27.33,58.68,38.41,14.85,7.83,28.4,10.62,44.2,15.4,14.95,4.52,27.12,12.49,44.23,13.73,33.98,2.46,66.74-1.49,100.24-9.84,12.22-3.05,26.42-1.65,36.72-9.71,5.97-4.67,11.25-6.74,18.53-9.2,41.13-13.92,54.59-37.84,67.17-45.74,12.45-7.81,18.82-18.31,27.67-28.83,9.75-11.59,16.45-22.14,22.82-36.22,22.84-50.48,36.68-103.38,32.55-158.85-5.68-76.44-35.53-129.81-89.76-181.12-18.36-17.38-41.22-27.24-62.67-39.86-9.17-5.4-16.28-9.72-27.07-12.44-14.01-3.54-27.27-8.68-41.07-9.88-3.63-.31-6.61-3.24-9.65-4.54-1.73-4.34-7.04-5.65-10.59-9.57-40.5-44.85-67.57-34.94-89.28-52.02-9.81-7.71-19.95-6.32-30.96-9.02l-25.01-6.14c-18.03-4.43-35.63-7.18-54.1-1.91-44.46,12.66-46.66-13.13-129.1,40.84-12.36,8.09-27.49,13.15-34.91,26.4-5.84,10.41-13.95,16.52-21.79,25.23-20.12,22.34-35.09,48.65-49.27,75.06-5.22,9.73-4.48,21.1-8.17,31.11-12.2,33.14-21.32,89.72-5.23,123.32-3.96,36.88,11.2,44.81,25.63,80.74,29.67,73.9,64.62,72.16,68.98,85.07Z"/>
    <path class="cls-5" d="M1470.47,580.99c-13.27.64-23.79-8.76-36.21-13.48-36.79-13.98-75.51-13.92-114.25-17.14-21.24-1.77-39.77-5.3-61.64-3.36-39.02,3.46-77.81,7.73-113.18,25.48-34.67,17.39-36.93-3.6-124.51,56.27-24.95,17.06-45.41,36.59-68.53,55.42-21.67,17.64-38.74,35.01-55.16,57.6l-40.3,55.43c-21.09,29.01-42.08,58.71-50.54,94.39l-8.5,35.84c-6.28,26.49-12.73,52.96-14.43,80.43-4.04,65.06-19.15,24.73-2.1,104.85.78,3.67-7.67,46.25,1.93,75.94l31.9,98.55c7.97,24.61,16.27,43,28.92,64.11,13.93,23.25,22.02,48.86,42.87,68.51,14.07,13.26,27.45,27.07,43.96,38.27,27.07,18.36,52.67,37.29,76.65,59.96-12.43,1.56-22.46-7.06-34.08-11.61-25.72-10.05-48.9-21.52-72.86-34.51-14.78-8.02-31.59-12.17-45.31-21.68-12.27-8.5-22.64-19.15-35.99-26.66-25.93-14.58-47.72-33.4-65.91-56.58-7.16-9.13-7.36-20.12-12.74-29.16-6.89-11.59-50.89-37.14-80-114.99l-12.62-33.74c-6.62-17.69-8.61-35.07-13.14-53.24-2.1-8.41-8.8-14.79-9.44-24.78-.75-11.83-7.05-89.26.63-91.28,6.24-1.64,1.86,7.83,5,12.14.93,1.28,3.65.18,6.23.83.99,30.15,5.17,88.83,17.27,115.63,5.12,11.35,9.96,21.1,14.05,33.09l15.45,45.22c3.1,9.09,5.71,20.4,17.8,23.09-12.22-25.18-15.05-51.14-25-75.22-10.37-25.08-15.41-48.84-20.53-75.02-4.07-20.77-7.67-40.15-9.75-61.01-2.44-24.46-6.79-45.91-1.71-70.7,4.11-20.03,2.22-41.31,3.44-62.48l-16.36,67.31c-12.52-12.48,1.29-67.43,2.73-80.54,2.2-20.1,19.48-83.73,26.76-100.4l16.37-37.47c13.47-30.83,28.2-56.91,46.79-83.71,16.8-24.23,32.48-48.41,55.2-66.37.84,2.27,1.38,4.92,2.48,5.86,10.81-8.1,13.78-20.4,20.84-30.77,13.64-20.03,35.51-31.12,54.64-45.02,10.49-7.62,19.98-12.58,31.69-17.78,10.61-4.71,18.77-11.54,31.37-12.55,9.99-.8,19.32-8.74,31.03-5.15-12.9,9.62-28.8,12.75-42.15,21.66s-25.06,18.77-39.28,25.85c-11.65,5.8-18.71,15.14-27.78,23.15-27.12,23.93-64.46,59.36-77.85,94.08,11.72-9.11,17.59-22.45,27.06-34.33,43.54-54.67,80.67-67.93,88.91-77.41,8.3-9.54,20.11-12.3,30.11-18.56,9.34-5.84,18.68-6.96,28.22-10.53,28.64-10.7,20.83,7.94,61.17-16.82,10.34-6.34,18.02-16.67,31.59-14.64,9.92,1.49,12.83-6.4,19.66-10.21,20.12-11.22,63.68-11.8,87.79-12.71,18.04-.68,35.24-3.87,53.29-1.01,11.96,1.9,24.54,7.41,36.66,5.79,9.43-1.26,13.67,5.18,20.81,6.71,34.45,7.38,67.9,15.05,100.26,29.15,16.58,7.23,32.59,13,48.32,22.34l53.96,32.03c7.78,4.62,14.13,10.59,18.05,17.66Z"/>
    <path class="cls-4" d="M1032.1,1528.35c12.19-.2,23.62,2.03,35.42,7.57,9.07,4.26,20.44,1.4,29.84,4.52,24.22,8.05,55.63,2.66,78.31.32,22.66-2.34,44.33-2.02,65.45-11.63,1.9-.86,4.9-.21,6.43-.43,2.1-.31,3.18,3.68,5.44,7.7,62.77-14.53,45.94-6.71,102.26-34.52,10.7-5.29,18.89-12.95,31.34-15.3,28.78-5.43,57.17-40.11,77.62-50.68,9.14-4.72,7.48-15.81,11.08-20.8,11.9-9.8,25.03-16.39,35.81-27.77l30.89-32.6c7.33-7.73,14.85-13.98,21.66-22.15,16.25-19.49,29.08-39.11,41.45-61.46,16.51-29.83,33.68-58.72,40.85-92.89l11-52.39,8.24-68.4c3.19-26.49,11.29-50.87,4.91-77.68-4.91-20.64-.53-42.53-4.36-62.47l-8.21-42.68c-6.78-35.23-21.44-67.41-36.07-100.27-27.74-62.29-90.05-144.65-141.13-188.3,33.74,7.55,61.36,27.76,90.27,44.15,17.04,9.66,33.62,16.6,49.92,28.04,27.32,19.16,50.43,41.67,73.1,66.29l36.42,39.54c9.78,10.61,16.53,21.41,25.05,33.08,25.48,34.9,45.51,71.1,54.87,113.77,2.11,9.62,7.9,18.43,10.76,28.03,8.49,28.48,11.26,56.81,14.38,86.39,4.54,43.07,2.39,83.94-2.28,126.78-4.17,38.26-10.85,73.99-30.52,107.33-4.33,7.33-4.99,18.31-15.14,21.78,25.23-60.01,45.62-136.59,29.52-199.28-2.43-9.45,5.82-12.62,6.29-18.59,2.98-38.21-5.6-75.88-16.66-112.29-6.26-20.61-11.7-40.18-23.01-58.52,3,27.72,15.93,50.25,15.69,77.42-.1,10.85-3.15,21.78,2.08,32.56,12.72,26.23,8.04,109.85,4.69,142.49-7.77,75.8-28.05,148.67-65.58,215.04-19.46,34.43-40.78,65.64-65.84,94.96-11.14,13.03-24.11,18.23-37.17,26.74-13.77,8.96-69.13,59.64-84.2,45l47.55-33.24c17.85-12.48,41.94-21.65,51.5-40.97l11.51-23.27c20.61-41.69,64.34-74.49,80.68-120.61l17.93-50.62c13.57-38.31,35.08-134.85,20.44-174.96-4.14,12.06-1.29,24.41-1.24,37.16.14,32.8-7.46,62.31-16.83,93.31-15.88,52.53-34.79,102.2-62.42,149.45-17.36,29.7-37.55,54.04-62.09,77.76-45,43.51-97.83,74.46-158.92,89.77-14.14,3.54-27.12,7.42-39.92,13.07,9.35,6.9,67.68-16.17,70.23-2.42.32,1.71-2.69,6.3-1.09,7.48,4.97,3.66,11.7.33,16.44,3.01-24.26,18.44-51.63,27.16-80.79,33.97-110.29,25.76-229.74,21.65-336.08-18.37-28.01-10.54-51.97-28.14-77.76-38.9Z"/>
    <path class="cls-5" d="M1126.35,1289.69c22.57.47,41.08.78,65.49-4.76,11.68-2.65,21.94-6.65,34.26-6.89,7.69-.15,15.09-3.05,19.92-9.07,18-3.98,32.54-13.18,47.21-23.58l18.73-13.27c8.29-5.88,18.82-7.95,22.37-19.43,27.6-18.23,45.98-45.33,61.73-74.05,10.46-19.07,15.21-37.85,19.67-59.38l9.87-47.68,3.71-45.38c1.44-17.61-7.5-33.57-10.01-50.16-5.15-33.96-18.08-64.07-38.79-91.51l-21.88-28.99c13.8,1.19,27.06,6.34,41.07,9.88,10.79,2.73,17.9,7.05,27.07,12.44,21.45,12.62,44.31,22.48,62.67,39.86,54.22,51.31,84.07,104.69,89.76,181.12,4.13,55.48-9.72,108.37-32.55,158.85-6.37,14.08-13.07,24.62-22.82,36.22-8.85,10.51-15.22,21.02-27.67,28.83-12.58,7.89-26.04,31.82-67.17,45.74-7.28,2.46-12.56,4.53-18.53,9.2-10.31,8.06-24.5,6.67-36.72,9.71-33.5,8.35-66.26,12.3-100.24,9.84-17.11-1.24-29.27-9.21-44.23-13.73-15.8-4.78-29.35-7.57-44.2-15.4-21.03-11.08-46.98-17.44-58.68-38.41Z"/>
    <path class="cls-6" d="M1348.96,811.01l-55.22-3.94c-22.68-1.62-44.93,2.78-65.77,11.65-13.8,5.87-28.3,7.62-41.58,14.34-21.88,11.06-48.44,25.69-64.72,43.12l-28.24,30.25c-22.36,23.96-24.72,43.92-32.05,55.64-14.61,23.37-20.77,47.65-23.65,74.88-1.8,17.05-9.27,34.08-5.93,51.79,6.65,35.25-4.65,18.55,10.08,70.85l8.62,30.6c6.14,21.8,18.56,42.09,32.61,59.61,7.98,9.96,17.48,17.46,22.19,28.64l-39.5-11.79c-16.23-4.84-29.03-14.16-43.47-22.4-6.31-3.6-15.12-.91-21.82-7.17-4.99-4.67-11.69-9.35-16.94-11.96,2.28.24,2.08-3.57,1.59-5.02-4.36-12.9-39.32-11.17-68.98-85.07-14.42-35.93-29.58-43.86-25.63-80.74-16.09-33.59-6.97-90.18,5.23-123.32,3.69-10.02,2.94-21.38,8.17-31.11,14.18-26.42,29.15-52.73,49.27-75.06,7.84-8.7,15.96-14.82,21.79-25.23,7.43-13.25,22.56-18.31,34.91-26.4,82.44-53.97,84.64-28.18,129.1-40.84,18.47-5.26,36.08-2.51,54.1,1.91l25.01,6.14c11.01,2.7,21.16,1.31,30.96,9.02,21.71,17.07,48.78,7.16,89.28,52.02,3.55,3.93,8.86,5.23,10.59,9.57Z"/>
  </g>
</svg>