<?xml version="1.0" encoding="UTF-8"?>
<svg id="Layer_1" data-name="Layer 1" xmlns="http://www.w3.org/2000/svg" viewBox="0 0 4051.63 2560">
  <defs>
    <style>
      .cls-1 {
        fill: #1b6b8f;
      }

      .cls-2 {
        fill: #27b786;
      }

      .cls-3 {
        fill: #1f4798;
      }

      .cls-4 {
        fill: #1e4799;
      }

      .cls-5 {
        fill: #204698;
      }

      .cls-6 {
        fill: #149592;
      }
    </style>
  </defs>
  <g>
    <path class="cls-4" d="M1211.79,1689.51l-32.45-66.45-31.15-.06-.1,66.06c-.01,7.87-22.73,3.66-30.93,3.92l-.06-175.31,77,.46c25.25.15,44.78,19.51,48.73,42.42,4.31,25-7.9,48.16-32.16,57.96l37.62,73.69c-10.47,2.8-19.85.71-29.8,1.39-2.61.18-5.31-1.22-6.71-4.08ZM1212.67,1567.34c-.71-11.81-9.67-21.05-21.18-21.11l-43.28-.22.05,48.41,41.57-.22c14.38-.08,24.75-11.88,22.84-26.87Z"/>
    <path class="cls-4" d="M334.1,1692.73c-10.06,1.52-18.78.89-28.95.32l-73.05-122.11-.8,121.94c-9.4,1.13-17.5.87-27.86.19l-.16-174.66c10.12-1.43,19.17-.89,29.63-.31l73.12,122.95.67-122.97c9.37-.72,17.83-.76,27.34.02l.08,174.62Z"/>
    <path class="cls-3" d="M524.28,1643.16c-3.85,30.71-27.07,49.99-56.99,50.02l-69.77.07v-175.41s75,.31,75,.31c28.03.12,47.53,21.22,51.71,48.39,2.87,25.26,3.34,50.4.05,76.61ZM493.28,1636.08c2.03-21.32,2.19-42.23-.19-62.68-1.81-15.51-13.34-26.16-28.54-27.09-12.15-.75-23.7-.32-36.01-.15v118.84c11.88.37,23.04.52,34.73-.23,16-1.02,28.37-11.53,30-28.69Z"/>
    <path class="cls-3" d="M1497.55,1590.54c.88,9.78.91,18.56-.05,28.07l-70.83.3.26,46.26,83.49.29c.82,9.36.86,17.88-.02,27.86l-114.8.04-.03-175.65,115.03.12c.43,9.92.83,18.28-.3,27.83l-83.6.45.02,44.22,70.82.21Z"/>
    <path class="cls-3" d="M680.89,1518.55c10.46-1.78,19.92-.81,30.94-.56l-.69,122.57c-.11,19.98-12.52,37.75-29.32,46.91-21.51,11.72-47.21,11.81-68.8.27-18.57-9.93-30.17-29.16-30.26-50.52l-.51-118.89c10.85-1.25,20.24-.78,30.84-.32l.55,117.52c.09,19.67,15.32,33.04,34.47,32.53,17-.45,32.12-12.03,32.21-30.28l.57-119.24Z"/>
    <path class="cls-3" d="M856.72,1692.32c-31.11,8.99-64.31,1.97-89.15-17.15-2.75-2.11-4.96-5.13-2.5-7.74,6.02-6.39,10.78-13.25,17.51-19.31,13.68,11.27,28.85,18.72,46.08,19.75,17.24,1.02,35.08-5.79,35.65-23.85.22-7.06-2.31-13.75-8.91-17.84-16.56-10.25-37.98-4.58-61.91-17.59-15.95-8.67-23.58-24.05-23.12-42.22.56-22.33,13.66-41.78,35.9-48.16,27.76-7.96,58.94-2.21,82.17,15.48-4.2,8.57-9.01,14.79-13.66,21.87-3.64,5.54-19.34-15.84-51.5-12.39-9.19.99-16.88,6.23-19.68,13.81-3.19,8.62-1.93,17.97,5.6,23.83,15.22,11.85,39.37,5.87,62.43,18.26,8.71,4.68,16.24,11.05,20.06,20.46,11.93,29.44-.38,62.79-34.96,72.78Z"/>
    <path class="cls-3" d="M1651.71,1691.78c-28.25,8.82-58.37,4.02-83.21-11.02-4.74-2.87-8.54-5.98-12.13-10.89l19.29-21.78c17.84,15.61,47.18,25.95,68.19,16.1,7.28-3.42,12.25-9.97,13.18-16.4,1.2-8.35-.64-16.36-7.61-21.09-15.53-10.53-36.82-5.06-61.24-17.28-16.35-8.17-24.68-23.35-24.71-41.71-.03-23.14,13.72-43.48,36.84-49.8,27.6-7.55,58.24-1.74,81.24,15.74-4.26,8.7-9.03,15.07-13.91,22.23-3.12,4.58-20.31-16.24-51.3-12.71-9.21,1.05-16.65,6.25-19.68,14.12-3.25,8.43-1.62,18.5,6.42,24.1,16.01,11.15,37.65,5.13,62.43,18.01,14.68,7.63,22.21,21.04,23.43,37.22,1.94,25.57-11.62,47.15-37.22,55.14Z"/>
    <path class="cls-3" d="M1017.26,1692.58c-9.23,1.98-17.65.6-26.63.9-2.47.08-4.37-1.78-4.37-4.41l-.03-142.91-48.75-.61c-1.97-9.09-1.35-18.07-.48-27.82h130.01c.11,9.85.72,18.48-.4,27.83l-49.3.58-.06,146.45Z"/>
    <rect class="cls-3" x="1301.17" y="1517.65" width="31.02" height="176.61"/>
    <rect class="cls-3" x="108.85" y="1517.65" width="31.02" height="175.89"/>
    <path class="cls-3" d="M2918.21,1547.38c-10.38,1.03-19.52.63-30.24.26-1.31-9.8-.54-19.09-.44-29.45,10.44-1.04,19.96-.56,30.49-.26l.19,29.45Z"/>
    <path class="cls-3" d="M2962.31,1517.95c-.03,5.41,3.03,29.8-2.58,29.84-9.34.08-18.13.74-27.61-.52l-.03-29.09c10.27-1.02,19.93-.61,30.22-.24Z"/>
    <g>
      <path class="cls-5" d="M3257.82,1652.37c.06,7.46,7.5,13.87,15.18,13.87l117.03-.03,50.82-.42c15.91-.13,11.64-30.73,8.19-40.76-3.44-10-11.64-16.04-21.99-17.45-13.1-1.79-24.78,3.47-34.55,13.48-6.59-5.01-11.58-10.86-17.26-16.8,13.28-18.72,34.57-25.07,56.66-23,24.42,2.29,43.44,17.42,48.78,41.55,2.3,10.39,2.22,20.35,2.79,31.33.35,6.7,8.81,12.3,15.96,12.29l146.8-.19c5.86,0,6.84-9.27,6.88-13.32l.63-66.79c9.77-.77,18.7-.58,28.59-.15l.02,62.95c0,8.55,5.44,17.24,15.61,17.27l142.57.43c5.52.02,10.21-3.94,10.23-9.74l.42-138.91c9.98-.55,18.66-.53,28.93,0l-.61,151.95c-.05,11.95-10.18,22.6-22.12,22.61l-157.36.09c-9,0-15.76-4.65-21.21-11.38-5.37,6.94-12.31,11.47-21.08,11.46l-158.65-.16c-9.88-.01-17.34-6-22.25-13.44-6.3,8.11-14.97,13.46-25.51,13.48l-176.47.24c-6.64,0-11.54-3.22-17.02-6.58-.2,11.66-.64,22.23-3.94,32.8-7.72,24.77-31.05,27.69-54.05,25.18-.06-8.23-1.08-15.83.4-23.98.39-2.16,5.77-1.91,7.76-1.72,10.66,1,19.36-5.85,19.43-17.18l.77-114.97c9.73-1.27,19.17-.76,29.08-.25l.52,66.27Z"/>
      <path class="cls-3" d="M3180.94,1668.38c-.05,13.58-10.13,24.29-23.61,24.29l-184.53-.03c-11.31,0-18.83-8.37-21.84-18.54-24.96,15.7-60.96,9.55-74.79-18.36-6.94-14.02-5.79-33.06.26-47.05,7.23-16.74,24.17-27.05,41.45-27.36l31.87-.57.87-12.92c9.44-.47,18.4-.54,28.27,0l.47,87.85c.03,6.2,3.71,10.87,10.25,10.87h152.23c6.51,0,10.26-4.49,10.3-10.61l.48-70.09,28.62.08-.3,82.44ZM2949.45,1636c1.08-9.69.68-19.07.41-28.52-9.14-.3-18.05-.53-26.84.14-13.22,1.01-20.26,10.85-19.68,23.61.31,6.93.22,13.56,4.94,18.4s10.72,6.12,17.81,6.41c12.46.51,21.86-6.65,23.35-20.05Z"/>
      <rect class="cls-3" x="3913.11" y="1517.65" width="29.67" height="175.27"/>
      <path class="cls-5" d="M3683.68,1744.61c-11.22.15-20.28.6-30.61-.31l-.03-28.58c9.93-1.31,19.38-.35,30.2-.55,1.2,9.69.43,18.8.43,29.44Z"/>
      <path class="cls-5" d="M3140.12,1744.61l-30.26-.26c-1.07-9.61-.77-18.5-.26-28.59,9.9-1.41,19.25-.35,30.09-.6,1.19,9.7.43,18.8.43,29.44Z"/>
      <path class="cls-5" d="M3184.48,1744.52c-11.12.33-20.24.63-30.46-.22l-.04-28.61c10.28-1.16,20-.53,30.51-.35l-.02,29.19Z"/>
    </g>
    <g>
      <rect class="cls-1" x="1800.93" y="1615.36" width="871.95" height="29.02"/>
      <rect class="cls-4" x="1859.56" y="1664.6" width="725.64" height="28.94"/>
      <rect class="cls-6" x="2381.54" y="1566.18" width="378.37" height="28.94"/>
      <rect class="cls-6" x="1859.56" y="1566.18" width="145.67" height="28.94"/>
      <rect class="cls-2" x="2410.57" y="1517.65" width="87.67" height="28.31"/>
      <rect class="cls-2" x="1859.56" y="1517.65" width="87.67" height="28.31"/>
      <path class="cls-5" d="M2063.18,1545.28c-9.88,1.43-19.27.52-29.34.46l-.16-27.8h29.18s.32,27.33.32,27.33Z"/>
      <path class="cls-3" d="M2063.11,1594.55c-9.99,1.15-18.76.46-29.13.44-.83-9.4-.49-18.17-.18-28.14,9.76-1.17,19.02-.88,28.89-.18,1.04,9.39.43,17.56.42,27.89Z"/>
      <path class="cls-5" d="M2121.18,1545.15c-9.96,1.72-19.3.58-29.33.6l-.16-27.81c9.75-.49,19.02-.5,29.01.01,1.03,9.01.4,16.53.48,27.19Z"/>
      <path class="cls-3" d="M2179.11,1594.55c-9.94,1.11-18.71.52-29.03.39-1.05-9.44-.54-18.18-.29-28.1,9.78-1.17,19.02-.88,28.9-.19,1.04,9.4.43,17.55.42,27.89Z"/>
      <path class="cls-3" d="M2116.83,1566.22c7.74-.17,3.61,21.19,3.81,28.49-9.92.68-19.16.67-28.92.02l.14-27.83c8.54-1.42,16.49-.49,24.98-.67Z"/>
    </g>
  </g>
  <g>
    <g>
      <path class="cls-5" d="M237.86,1342.98l-.49-108.64-38.64,83.97c-7.29,1.97-14.34,1.48-22.3.37l-38.86-84.37-.6,108.6c-4.96.34-28.13,3.79-28.12-3.22l.15-171.28c8.45-1.38,15.87-.31,23.85-.73,3.49-.1,5.96,1.2,7.37,4.34l47.72,106.21,48.65-109.68c9.68-1.45,18.99-1.03,29.33-.22l-.06,174.53c-9.73,1.42-18.15,1.31-28.01.13Z"/>
      <path class="cls-3" d="M1180.72,1343.08l-.65-108.5-38.83,84.19c-7.85.98-14.85,1.52-22.2-.4l-38.64-84.14-.63,108.69c-8.86,1.44-17.36,1-27.28.28l-.14-174.73c9.87-1.29,19.17-1.05,28.96-.07l49.45,109.86,48.99-110.13c10.03-.52,18.7-.91,28.95.26l-.03,174.45c-9.66,1.46-17.81,1.25-27.96.24Z"/>
      <path class="cls-3" d="M609.91,1343.27l-35.04-70.15-30.9-.04-.07,65.59c0,3.28-1.66,5.22-5.12,5.08-8.64-.36-16.85.88-25.91-.89l.09-175.11,78.65.66c24.78.21,43.64,20.38,47.21,42.82,3.93,24.67-8.01,47.84-32.44,57.32l36.18,70.11c.76,1.48.35,3.36-.41,4.03-1.98,1.77-25.38,1.12-32.24.57ZM608.77,1218.63c-.69-11.89-9-21.91-21.6-22.35-14.58-.51-28.9-.33-43.28.07l.11,48.17,41.84-.24c14.37-.08,23.75-11.66,22.94-25.65Z"/>
      <path class="cls-5" d="M1374.38,1268.34l-71.66.76-.16,45.97,84.13.56c.01,9.71.81,18.31-.57,27.87l-108.7.27c-1.76,0-5.78-.76-5.78-2.11l-.04-173.78,115.13.08-.21,27.76-83.85.49-.06,44.01,71.79.84c.47,9.54.57,17.08-.01,27.29Z"/>
      <path class="cls-5" d="M434.88,1343.79c-7.32-19.95-25.11-32.4-45.23-32.62-20.46-.23-38.72,12.16-46.15,32.02-9.78.83-19.2.99-30.14-.08l61.58-174.65c9.83-1.22,18.63-.91,28.97-.23l60.95,174.62c-9.92,1.92-18.59.37-29.99.95ZM416.07,1290.6l-26.96-78.28-26.82,78.24c18.66-7.37,35.37-7.35,53.78.04Z"/>
      <path class="cls-4" d="M858.77,1337.78c0,3.93-1.62,5.92-4.44,5.9-8.78-.08-17.01.58-26.41-.51l-.23-146.8-49.37-.47c-.96-8.93-.41-17.54-.3-27.35h130.19c.74,9.42.86,17.91-.12,27.18l-49.28.52-.04,141.53Z"/>
      <rect class="cls-3" x="957.94" y="1168.46" width="31.02" height="175.27"/>
      <rect class="cls-3" x="696.91" y="1168.46" width="31.02" height="175.27"/>
    </g>
    <path class="cls-5" d="M2578.18,1227.52c-10.83.39-20.07.58-30.28-.16-.74-10.06-.75-19.43,0-29.54,10.46-.54,20.09-.9,30.32.16l-.05,29.55Z"/>
    <path class="cls-3" d="M2929.66,1044.89l-30.17-.26c-.21-5.41-3.09-29.39,2.54-29.61,9.28-.35,18.1-.74,27.54.38l.09,29.49Z"/>
    <g>
      <rect class="cls-5" x="1501.5" y="1314.7" width="813.31" height="29.03"/>
      <path class="cls-5" d="M2534.26,1227.19c-10.33,1.17-19.56.53-30.07.38-1.08-9.92-.53-19-.33-29.57,9.94-1.22,19.28-.5,29.84-.39,1.81,9.49.95,18.64.56,29.58Z"/>
      <g>
        <path class="cls-4" d="M3743.6,1167.85l.47,135.28c.02,6.91,7.96,13.26,15.23,13.28l144.37.35c4.45.01,9.26-3.66,9.27-8.32l.28-139.99c9.94-1.34,19.1-.82,29.56-.25l-.5,150.52c-.04,13.17-10.56,24.03-23.56,24.03h-157.49c-8.8-.01-15.83-4.59-20.93-11.53-5.48,6.4-12.09,11.62-21.35,11.61l-155.94-.18c-10.83-.01-19.7-6.02-23.97-14.87-7.91,12.36-21.9,15.11-35.69,15.17l-64.63.3-24.41-2.86-20.32,2.87-146.7-.56c-9.6-.04-17.45-3.65-22.83-11.7-5.41,7.56-12.79,11.82-22.05,11.82l-175-.06c-13.29,0-23.65-10.56-23.68-23.73l-.43-150.97c10.15-.53,19-.54,28.96,0l.22,138.18c0,5.87,4.06,10.46,10,10.46l146.34.02c6.87,0,9.67-5.63,9.72-11.85l.55-68.39c9.53-1.25,18.28-.43,28.63-.49l.21,63.75c.03,8.66,6.08,16.71,15.98,16.72l141.91.21c5.8,0,9.55-6.71,9.6-11.88l.73-69.47c9.64-1.47,19.12-.85,28.7-.4l1.15,9.82c11.25-4.39,21.99-8.91,34.13-11.34,30.92-6.17,70.94-1.53,81.72,33.03,3.23,10.36,4.4,20.7,3.49,32-.73,9.01,5.21,17.92,15.83,17.95l143.03.41c6.8.02,10.39-5.18,10.41-11.68l.31-136.93c9.07-.91,17.47-.34,28.68-.33ZM3514.07,1302.88c1.6-19.1,1.03-39.57-21.17-44.02-23.22-4.66-46.52,2.63-67.33,12.4l-.47,45.49,73.12-.3c8.43-.03,15.07-4.21,15.86-13.57Z"/>
        <path class="cls-4" d="M2970.9,1253.32l-17.9,18.21c-10.56-12.35-26.4-17.74-41.14-11.76-9.8,3.98-14.1,13.18-14.62,23.87-.62,12.88,6.57,31.98,20.83,32.33l57.3,1.41c.61,8.41.48,16.63.08,25.62l-267.61-.21c-13.4-.01-23.61-10.79-23.66-24.08l-.58-150.65c10.43-.33,19.51-.92,29.59.35l.18,139.16c0,4.42,3.36,9.07,8.36,9.07h155.33c-9.11-12.45-11.87-24.77-10.58-38.75,1.91-20.71,14.43-37.83,34.73-43.8,23.1-6.8,54.2-3.04,69.69,19.24Z"/>
        <path class="cls-4" d="M2428.2,1319.2c-1.97-22.81-.16-43.97-.83-66.58,10.33-1.07,19.27-.65,29.47-.24l.41,55.05c.04,4.96,3.96,9.28,9.27,9.28l147.87.02c5.81,0,10.3-4.03,10.36-9.66l.75-71.07,28.87.25.08,75.07c.02,16.21-7.2,31.56-25.18,31.54l-177.66-.15c-13.14-.01-22.29-10.53-23.41-23.51Z"/>
        <path class="cls-5" d="M3229.17,1196.52c-10.71.25-20.36.79-30.68-.3l.1-28.77,30.32-.24.27,29.32Z"/>
      </g>
    </g>
    <path class="cls-3" d="M2885.73,1044.52c-10.38,1.06-19.52.5-30.19.33-1.16-9.9-.54-19.07-.35-29.44,10.27-1.14,19.9-.84,30.28-.19.95,9.87.55,18.4.26,29.3Z"/>
    <g>
      <path class="cls-3" d="M1861.65,992.81c-10.09,1.97-19.15.95-29.61.64l-73.14-122.29-.71,122.07c-9.3,1.03-17.57.88-27.92.08l-.14-174.34c10.38-1.66,19.97-1.6,30-.05l72.71,122.47.6-122.39c8.72-1.8,17.54-1.46,27.96-.22l.25,174.04Z"/>
      <path class="cls-3" d="M1051.64,992.98c-10.56,1.51-19.77,1.1-29.71.22l-72.85-121.91-.79,121.89c-9.08,1.27-17.01.62-27.85.36l-.2-174.79c10.75-1.39,19.77-1.21,29.85-.05l72.9,122.84.49-122.74c9.26-1.37,17.97-1.41,28.02-.01l.13,174.19Z"/>
      <path class="cls-3" d="M833.01,993.69l-34.89-70.51-30.94.14-.44,69.97c-10.33.96-19.38.62-30.56.25l-.16-175.47c26.43.36,51.86-1.27,77.48.52,32.87,2.29,54.31,30.91,48.24,62.34-3.09,17.87-15.17,31.24-32.05,37.95l37.8,73.76c-11.67,2.46-21.93.71-34.49,1.04ZM831.79,870.19c.4-13.43-9.34-23.64-21.95-23.68l-42.69-.17.04,48.4c15.14-.48,29.74,1.01,44.47-.53,12.11-1.27,20.91-11.39,20.14-24.02Z"/>
      <path class="cls-4" d="M334.1,993.03c-9.92,1.54-18.65.79-28.96.43l-73.07-122.05-.77,121.82c-9.48,1.05-17.58.71-27.9.27l-.09-174.62c10.03-1.67,19.1-1.17,29.56-.31l73.14,122.94.68-123c9.39-.93,17.8-.97,27.33.03l.08,174.49Z"/>
      <path class="cls-3" d="M1668.96,949.57c-5.47,22.38-20.73,38.82-42.52,44.33-37.72,9.54-78.1-6.28-84.91-47.24-4.44-26.71-4.46-54.81.02-81.62,7.11-42.57,50.71-58.06,88.84-46.02,20.1,6.35,33.34,22.5,38.46,42.71,3.69,14.55,3.27,29.01,3.25,44.15s.5,28.81-3.14,43.69ZM1606.52,968.13c16.32.91,29.79-10.33,32.06-26.59,3.26-23.42,3.2-47.91.03-71.27-2.44-17.97-17.56-27.65-34.17-27.04-23.97.88-33.35,17.72-33.92,39.69-.4,15.47-.41,30.44,0,45.91.58,21.47,10.67,40.97,35.99,39.29Z"/>
      <path class="cls-4" d="M666.55,918.85l-71.27.36-.05,46.18,83.87.44c.43,10.1.56,18.3-.09,27.86h-114.87s-.05-175.44-.05-175.44l114.88-.28c.72,9.58.54,17.82.13,27.97l-83.86.43.03,44.27,67.54.13c7.6.01,3.82,19.78,3.74,28.08Z"/>
      <path class="cls-3" d="M2030.51,993.86c-7.34-20.12-25.11-32.35-45.17-32.59s-38.95,12.23-46.4,32.27c-10.3.03-19.64,1.37-29.89-.75l61.45-174.01c9.74-1.54,18.9-1.1,29.18-.21l60.79,174.11c-9.61,2.46-18.47.53-29.96,1.18ZM2011.08,939.5l-26.17-77.09-26.93,77.98c18.82-7.56,35.28-5.79,53.11-.89Z"/>
      <path class="cls-3" d="M1220.83,993.93c-7.42-19.79-24.99-32.3-44.81-32.61-20.65-.32-39.34,12.01-46.67,31.99-9.98.74-19.29,1.02-30.11-.19l60.48-171.54c2.24-6.34,22.92-3.28,30.21-2.9l60.77,174.55-29.87.7ZM1201.65,940.1l-26.73-77.83-26.84,78.2c18.36-6.97,35.07-6.62,53.56-.37Z"/>
      <path class="cls-3" d="M464.83,993.04c-10.51,1.54-19.58.72-30.73.51l-.27-147.13-49.35-.52c-.82-9.23-.7-17.79-.12-27.81l129.8-.04c1.04,9.82,1.17,18.61-.08,27.91l-49,.36-.25,146.73Z"/>
      <path class="cls-3" d="M1350.29,993.22c-11.29,1.02-20.47.95-30.8.03l-.13-146.79-49.58-.67c-.4-9.93-.58-18.27.13-27.8l129.98.12c.62,9.93.92,18.34-.17,27.69l-49.23.62-.21,146.8Z"/>
      <path class="cls-3" d="M2222.88,965.56c1.8,9.21.54,17.32.73,27.92l-115.13.28-.03-174.81c10.07-1.72,20.26-1.45,30.89-.14l.16,146.64,83.37.11Z"/>
      <rect class="cls-3" x="1449.53" y="817.93" width="31.02" height="175.89"/>
      <rect class="cls-3" x="108.85" y="817.93" width="31.02" height="175.89"/>
      <rect class="cls-4" x="2339.72" y="963.54" width="146.38" height="30.29"/>
      <path class="cls-5" d="M2644.43,847.65c-10.4,1.15-19.65.43-30.48.44-.81-9.88-.48-19.06-.17-29.31,10.54-.18,20.26-.8,30.52.35l.13,28.52Z"/>
      <g>
        <path class="cls-4" d="M2676.6,868.27c9.67-.7,18.6-.84,28.47.08l.35,88.17c.03,6.43,4.31,10.97,10.98,10.97h152.72c6.03.01,9.8-4.8,9.86-10.48l.76-69.95c10.34-.58,19.24-.62,28.94-.03l.59,67.33c.06,7.38,8.78,12.89,16.53,12.9l137.74.28c7.46.02,12.89-5.43,14.62-11.93,3.93-14.77-2.5-28.19,7.31-48.48,12.11-25.05,41.93-28.99,65.82-22.97,32.55,8.2,35.29,39.82,34.7,66.69-.18,8.05,5.65,16.5,14.27,16.51l110.99.06c6.09,0,9.75-4.89,9.75-10.46l.18-138.31c10.12-1.23,18.66-1.03,29.4-.11l-.32,149.33c-.03,14.58-10.65,25.69-24.98,25.69h-125.18c-10.82,0-19.92-5.14-26.96-13.09-16.55,20.4-64.68,19.86-80.81.54-6.63,7.97-15.64,12.66-26.06,12.65l-138.56-.14c-9.46,0-17.44-4.29-22.44-11.89-5.17,7.45-13.49,11.97-23.82,11.96l-180.26-.04c-11.68,0-20.91-7.12-23.4-17.32-1.18-4.83-9.46,9.89-38.84,6.2-20.12-2.52-35.34-16.94-38.27-37.16-4.66-32.2,11.14-62.34,40.44-62.92l34.85-.69.64-13.4ZM2654.21,956.8c26.21-.83,21.93-30.7,21.89-48.32-12.88.53-36.32-4.17-43.2,8.7-4.84,9.05-5.32,21.1-.56,30.17,4.03,7.68,13.11,9.73,21.88,9.45ZM3133.11,969.15c10.64.04,18.61-4.86,21.34-14.36,2.85-9.93,2.67-20.49.26-30.53-2.58-10.77-11.44-16.26-22.25-16.21-9.77.04-18.27,4.35-21.28,14.25-3.52,11.57-3.67,24.72,1,36.13,3.34,8.15,12.01,10.68,20.93,10.72Z"/>
        <path class="cls-4" d="M3612.77,957.92c1.36,6.41,8.01,9.49,14.42,9.5l212.95.12c6.07,0,10.72-4.03,10.73-10l.34-139.05c8.12.29,29.57-4.04,29.55,4.06l-.31,139.26c-.02,8.42-1.4,16.89-6.66,23.33-3.95,4.85-11.28,8.6-18.73,8.6l-445.81-.03c-14.76,0-25.17-11.3-25.21-25.47l-.39-149.42c9.95-1.38,19.03-1.42,29.48-.03l.3,139.4c.01,5.15,4.29,9.3,9.75,9.3l159.91-.06c-4.37-19.89-3.51-39.3,4.66-56.8,8.86-18.97,28.41-28.59,49.14-28.63,20.49-1.74,39.78,6.51,51.55,22.96-6.3,6.45-10.75,11.99-17.61,16.93-8.84-10.19-19.98-14.59-32.59-13.69-25.41,1.81-29.69,29.92-25.48,49.72Z"/>
        <rect class="cls-3" x="3913.11" y="817.93" width="29.67" height="175.89"/>
        <path class="cls-5" d="M2688.28,848.05l-30.38-.26c-.88-9.61-.63-18.43-.19-28.57,9.9-1.43,19.33-.36,30.14-.61,1.19,9.7.43,18.8.43,29.44Z"/>
      </g>
    </g>
  </g>
</svg>