<?xml version="1.0" encoding="UTF-8"?>
<svg id="Layer_1" data-name="Layer 1" xmlns="http://www.w3.org/2000/svg" viewBox="0 0 2560 2560">
  <defs>
    <style>
      .cls-1 {
        fill: #0d6cb2;
      }

      .cls-2 {
        fill: #142934;
      }

      .cls-3 {
        fill: #27b14b;
      }
    </style>
  </defs>
  <polygon class="cls-2" points="1679.73 2186.76 1679.31 2043.15 1632.77 2186.62 1600.11 2186.34 1553.85 2044.39 1553.21 2186.41 1511.36 2186.72 1511.35 1992.02 1574.82 1992.06 1616.42 2112.67 1658.09 1992.08 1721.71 1992.03 1721.7 2186.72 1679.73 2186.76"/>
  <polygon class="cls-2" points="1483.45 1937.51 1482.91 1798.3 1437.49 1937.36 1405.64 1937.34 1360.64 1799.89 1360.02 1937.62 1318.25 1937.09 1318.24 1747.72 1380.64 1747.44 1421.58 1866.05 1462.36 1747.49 1523.85 1747.44 1523.84 1937.46 1483.45 1937.51"/>
  <path class="cls-2" d="M1723.54,1937.35l-.75-136.91-44.97,136.51c-10.94,1.14-20.13.43-31.51.44l-45.76-139.07-.46,139.17-40.43-.04v-190.02s61.56.05,61.56.05l40.68,118.55,40.87-118.35,62.49-.03v189.44s-41.71.24-41.71.24Z"/>
  <path class="cls-2" d="M888.02,2160.95c-36.54,36.06-99.78,39.52-142.36,11.29-26.02-17.25-39.91-44.97-39.87-75.45-2.98-5.08-.56-9.72-.39-14.82,2.02-63.28,49.08-97.05,109.53-94.78,37.91,1.42,74.35,17.81,89.89,53.72,16.21,37.44,13.17,90.46-16.8,120.04ZM862.83,2120.03c14.48-29.85,6.91-73.44-27.9-87.36-23.89-9.55-53.14-5.82-70.69,14.69-21.31,24.91-19.14,65.42,3.41,87.59,22.15,21.77,77.04,22.48,95.18-14.92Z"/>
  <path class="cls-2" d="M695.18,2186.49l-52.17-.06-41.44-77.39-18.74-.06v77.78s-43.62-.02-43.62-.02v-194.89s98.66,1.16,98.66,1.16c20.4.24,35.98,15.14,44.19,32.08,5.46,16.32,8.27,33.22,1.68,49.34-6.49,15.85-21.37,26.54-36.9,30.35l48.34,81.72ZM625.62,2071.49c11.4-2.79,17.04-12.19,16.4-22.53-.58-9.4-6.61-19-17.46-19.12l-41.7-.5v42.15s42.76,0,42.76,0Z"/>
  <polygon class="cls-2" points="1294.84 2186.49 1251.19 2186.78 1251.2 2101.06 1170.18 2101.06 1170.18 2186.75 1126.55 2186.72 1126.55 1992.06 1170.18 1992.03 1170.19 2063.7 1251.19 2063.71 1251.2 1992.03 1294.83 1992.06 1294.84 2186.49"/>
  <polygon class="cls-2" points="341.2 2107.02 257.24 2107.36 257.25 2144.71 350.7 2144.69 350.67 2186.8 213.67 2186.65 213.57 1992.01 346.02 1992.02 345.69 2035.46 257.28 2035.68 257.27 2066.81 341.36 2066.79 341.2 2107.02"/>
  <polygon class="cls-2" points="1461.53 2107.25 1378.97 2107.32 1378.85 2144.47 1472.07 2144.92 1472.05 2186.63 1335.3 2186.8 1335.3 1992.01 1466.16 1992.02 1466.19 2035.65 1378.98 2035.64 1378.98 2066.82 1461.5 2066.79 1461.53 2107.25"/>
  <path class="cls-2" d="M827.34,1890.28l.1-29.09-31.18-.06.03-37.38h70.09s.06,95.14.06,95.14c-4.75,4.97-10.99,6.43-17.21,9.55-22.96,7.33-46.72,11.18-70.98,8.3-33.43-3.96-62.69-23.02-77.3-53.34-12.62-26.19-12.2-55.82-.52-82.35,15.18-34.47,49.02-54.86,86.46-55.36,26.75-.36,56.43,5.15,77.15,23.23l-15.1,15.62c-5.22,5.4-9.16,11.04-14.66,15.99-12.02-13.31-27.34-16.17-44.29-16.16-30.65.02-54.47,24.34-54.99,54.89-.37,21.82,8.74,41.77,28.46,51.66,23.49,11.78,39.55,9.45,63.86-.66Z"/>
  <path class="cls-2" d="M2152.73,2144.88l-74.32-.22-15.37,42.12-49.38-.19,84.11-194.37,35.36-.06,84.24,194.47-49.2.3-15.44-42.05ZM2138.04,2107.26l-22.52-55.07-22.97,55.06h45.49Z"/>
  <path class="cls-2" d="M1242.01,1747.7l42.13-.26-1.02,126.84c-.14,17.75-8.55,34.06-22.43,44.9-31.26,24.39-76.68,24.51-107.76.15-13.16-10.31-22.24-25.01-22.38-41.97l-1.09-129.89,42.08.02,1.11,121.88c.18,19.32,17.84,29.72,34.83,29.49,19.01-.26,33.58-12.58,33.72-32.56l.84-118.61Z"/>
  <path class="cls-2" d="M2469.72,2186.16c-33.53,10.21-72.49,2.56-97.06-20.44l31.67-35.7c3.71,6.42,8.22,10.93,14.77,13.72,12.13,5.83,25.96,7.99,38.69,3.35,7.68-2.8,11.17-10.01,11.71-17.28.58-7.85-5.05-14.59-13.04-17.36l-39.29-13.62c-8.27-2.87-16.13-7.03-22.8-13.29-20.92-19.63-20.19-53.26-.41-73.99,28.53-29.9,73.51-30.64,107.23-12.37,4.49,2.43,8.46,4.57,11.81,9.27l-17.31,17.57c-4.77,4.84-7.88,10.23-13.13,14.27-9.38-13.85-54.61-19.47-58.26,2.64-5.05,30.53,63.82,19.43,83.29,61.75,15.4,33.49-2.83,70.82-37.86,81.48Z"/>
  <path class="cls-2" d="M1971.65,2128.97l35.92,26.38c-4.33,8.52-10.45,14.09-17.57,19.4-44.85,33.49-119.31,13.4-144.59-35.42-15.59-30.1-15.72-66.25-1.92-97.17,15.05-33.72,53.77-55.89,90.15-54.74,26.05-1.68,51.53,8.09,69.23,27.96l-32.87,28.11c-12.92-15.11-31.74-18.86-49.67-13.64-27.44,7.99-41.99,31-42.04,58.83-.06,29.1,17.01,56.72,47.27,60.64,18.59,2.4,36.98-4.94,46.09-20.37Z"/>
  <path class="cls-2" d="M1069.74,2129.32l36.5,26.53c-29.89,44.55-92.1,43.8-133.1,16.26-41.89-28.13-51.01-84.29-32.51-127.54,7.8-18.24,20.37-32.19,37.4-42.33,37.04-22.04,92.88-22.37,122.77,13.47l-32.64,27.87c-19.68-23.47-52.38-19.01-73.27-.4-13.73,12.23-18.47,29.62-18.31,48.6.24,28.69,19.42,54.75,48.33,57.71,17.87,1.42,34.28-3.79,44.84-20.17Z"/>
  <path class="cls-2" d="M1070.45,1930.59c-21.71,9.39-44.64,8.97-66.41,1.78-11.98-3.96-22.96-8.85-31.8-19.12,9.67-9.84,19.36-20.65,29.56-33.04,7.96,18.82,54.48,27.59,60.19,5.71,7.55-28.87-33.32-23.59-61.83-41.58-15.68-9.9-23.43-26.91-21.64-45.79,1.74-18.49,13.75-33.59,30.16-43.02,27.73-15.93,71.32-12.26,96.13,9.7l-14.38,14.67c-5,5.1-8.57,10.64-14.5,15.73-9.53-11.69-39.37-15.06-50.3-5.78-3.97,3.37-5.51,7.71-5.19,12.86.81,12.86,32.33,21.22,45.29,25.59,25.18,8.49,41.81,30.64,38.43,57.14-2.61,20.51-14.13,36.69-33.72,45.16Z"/>
  <polygon class="cls-2" points="462.91 2186.51 419.24 2186.76 419.28 2035.7 365.01 2035.34 365.1 1991.96 517.5 1992.18 517.04 2035.35 462.86 2035.7 462.91 2186.51"/>
  <path class="cls-2" d="M1353.94,2284.95c15.72,29.33,14,74.87-15.35,98.66-27.13,21.99-65.4,23.56-96.23,6.73-37.44-20.44-43.02-72.62-25.03-105.07,24.32-43.87,92.79-43.16,120.53-18.66,6.19,5.46,12.24,11.17,16.08,18.34ZM1329.46,2324.44c-.76-11.11-1.96-20.77-9.57-29.1-17.89-19.58-49.91-20.46-67.84-.63-7.93,8.77-9.9,19.76-10.51,30.48-1.55,27.24,19.02,46.73,45.41,45.87,25.98-.85,44.37-19.37,42.51-46.61Z"/>
  <polygon class="cls-2" points="1953.81 1936.91 1911.74 1937.51 1911.77 1789.54 1858.8 1789.5 1858.7 1747.57 2006.42 1747.53 2006.47 1789.2 1953.81 1789.57 1953.81 1936.91"/>
  <polygon class="cls-2" points="2358.7 2143.12 2358.88 2186.77 2237.34 2186.78 2237.36 1992.07 2281 1992.05 2280.96 2143.14 2358.7 2143.12"/>
  <path class="cls-2" d="M1151.71,2398.79l-30.48-57.47c-3.95-.89-7.5-.2-13.08-.39l-.62,57.26-32.4.39v-144.97s72.57.84,72.57.84c22.03.26,36.59,20.03,36.89,40.9,2.87,20.53-10.15,37.59-29.85,42.75l36.4,60.31-39.44.37ZM1150.31,2296.53c-.31-22.06-26.08-12.62-42.42-14.85v31.37c10.93-.76,21.67.96,31.76-.72,8.37-1.39,10.78-7.53,10.66-15.8Z"/>
  <path class="cls-2" d="M1480.38,2254.04l32.61-.28-.27,99.81c-.04,14.63-8.52,28.55-20.68,36.8-23.07,15.65-53.83,15.57-77.46.68-11.31-7.13-20.86-19.48-20.97-33.43l-.84-103.83,32.72.03.96,95.33c.15,15.12,12.71,21.71,25.74,22,13.72.3,27.17-7.79,27.32-23.43l.88-93.68Z"/>
  <path class="cls-2" d="M593.47,1935.62c-21.96-4.14-38.35-19.59-40.55-42.01,13.13-3.87,25.65-7.29,38.63-9.54,2.14,9.96,8.69,16.51,17.11,16.5s17.39-6.1,17.42-16.62l.46-136.46h42.18s-.87,144.24-.87,144.24c-.09,14.61-9.15,27.55-20.29,35.85-15.24,11.35-35.07,11.64-54.08,8.05Z"/>
  <path class="cls-2" d="M1652.37,2324.67c-13.79,22.11-46.03,17.4-67.72,17.98l-.35,55.54-32.43.38v-144.87s69.98.36,69.98.36c10.24.05,18.6,6.49,26.42,12.42,12.67,16.89,15.49,39.95,4.11,58.19ZM1612.9,2312.39c9.1-1.48,12.77-9.99,12.16-17.13-.66-7.73-6.92-13.41-15.57-13.43l-24.91-.07.02,31.27c9.43-.69,18.63.93,28.29-.64Z"/>
  <path class="cls-2" d="M46.91,2186.76v-194.73c31.67,1.03,63.86-1.82,95.42,1.03,30.45,2.75,47.91,28.42,48.51,56.56.42,19.91-4.02,38.25-20.93,49.92-8.88,5.28-18.86,10.47-29.69,10.56l-49.64.4-.27,75.91-43.4.36ZM145.06,2045.41c-1.19-8.16-9.13-15.6-17.15-15.69l-37.38-.4v42.25c12.66-.66,24.79.78,36.92-.53,12.87-1.38,19.61-11.96,17.61-25.63Z"/>
  <rect class="cls-2" x="1760.64" y="1992.03" width="43.62" height="194.73"/>
  <path class="cls-2" d="M986.35,2403.3h-12.46c-37.67,0-69.83-28.91-73.25-68.36-2.02-23.32,4.48-45.2,20.11-61.59,15.11-15.84,36.51-23.85,59.33-23,20.32.76,40.26,4.49,56.02,17.7-4.63,9.9-15.14,14.31-22.18,26.61-15.36-17.13-46.43-18.69-64.58-2.54-17.98,16-20.17,45.88-3.47,64.54,15.89,17.75,42,18.51,62.08,7.74l.17-21.81-26.05-.56c-.69-10.25-.71-19.81.02-30.34l57.01-.38-.08,76.75c-16.45,11.74-34.85,11.97-52.69,15.25Z"/>
  <rect class="cls-2" x="1801.14" y="1747.45" width="43.62" height="190.06"/>
  <g>
    <path class="cls-1" d="M1134.35,1241.15l25.18,76.13,20,60.77c.71,2.16,1.91,3.82,3.12,4.86,5.49,20.88,15.51,40.89,27.7,59.35,12.85,19.47,32.54,30.11,55.46,32.02,62.47,5.21,84.39-22.4,105.83-76.81,2.96-7.52,6.68-14.56,7.64-21.99,17.16,7.89,34.03,16.5,51.6,25.71,25.61,13.42,49.89,27.3,76.31,39.04,2.84,1.26,5.28,2.33,5.74,4.99-24.14,63.16-64.33,126.8-128.38,156.54-67.12,31.16-159.02,29.84-223.75-7.12-30.6-17.47-55.37-41.85-74.88-71.43-15.37-23.29-28.38-47.85-38.48-73.31-10.23-25.8-17.95-52.55-26.75-79.62l-20.19-62.14c-8.71-26.82-35.35-87.33-56.76-106.93-15.96-14.6-58.42-33.03-78.91-37.95,5.58-13.84,12.29-26.99,19.51-41.16l47.35-92.93c34.83,10.06,87.6,37.8,114.59,63.24,35.57,33.52,73.21,103.83,88.06,148.74Z"/>
    <path class="cls-1" d="M1510.95,332.93l22.59,73.02c7.4,23.91,13.31,47.37,21.34,70.3,13.55,38.7,32.73,79,61.96,109.8,23.86,12.97,47.99,25.33,73.69,31.96.1,2.96-1.01,6.28-2.73,9.44l-18.33,33.59c-16.55,30.32-33.02,60.13-47.42,90.83-24.75-8.17-48.48-19.49-71.95-32.35-58.64-32.13-106.15-112.85-127.94-173.44-9.67-26.88-17.96-53.99-26.37-82.05l-18.28-61c-6.43-21.45-15.13-42.14-26.94-61.94-7.56-12.66-18.36-23.19-31.81-28.82-13.28-5.57-26.82-5.8-41.15-6.01-42.07-.62-63.56,17.33-79.58,54.46-6.83,15.84-13.57,30.96-16.95,47.03l-5.24-1.18c-23.47-5.31-42.67-22.88-63.92-35.67l-63.04-37.94c10.7-29.38,23.63-57.67,42.26-83.66,42.62-59.48,96-86,168.43-91.74,58.55-4.65,122.95,9.58,168.5,48.32,36.04,30.64,59.18,68.56,76.37,111.95,2.14,5.41,5.03,10.38,6.5,15.12Z"/>
    <path class="cls-3" d="M1835.42,1117.77l15.37,31.69c11.96,24.66,18.01,50.47,19.94,78.17,5.38,76.99-44.68,147.71-99.16,197.29-46.15,42-106.69,59.3-168.21,48.32-31.9-5.7-60.97-16.97-90.43-28.01-.45-2.66-2.9-3.73-5.74-4.99-26.42-11.74-50.7-25.62-76.31-39.04-17.57-9.21-34.44-17.82-51.6-25.71l-22.07-10.14c-60.13-27.63-82.84-19.27-144.19,4.1-11,4.19-20.48,9-30.38,13.47-1.21-1.03-2.41-2.69-3.12-4.86l-20-60.77-25.18-76.13c45.1-20.95,92.86-36.71,143.12-42.15,13.33-1.44,24.52-2.53,37.94-.18,39.04,6.83,78.51,16.56,113.29,35.01l85.07,45.13c16.31,8.65,31.46,16.42,47.46,23.07,31.87,13.24,78.35,41.87,112.49,10.89,6.42-5.82,12.67-12,18.52-18.82,20.5-23.91,39.21-44.57,24.9-79.64-7.29-17.87-16.88-33.82-26.61-49.63.83-.73,1.9-2.07,3.64-2.61l60.44-18.89,80.81-25.55Z"/>
    <path class="cls-3" d="M1836.89,660.01l-41.23,77.02-27.07,50.79-1.82,6.23c-4.34,14.87-38.48,73.41-31.76,121.33,3.56,25.35,15.99,47.88,25.62,70.45l-59.03,18.49c-28.65,8.98-56.68,17.23-84.07,27.73-19.02-48.37-35.59-82.12-32.3-136.34l.89-14.72c2.73-45,16.95-88.67,35.92-129.12,14.4-30.7,30.87-60.51,47.42-90.83l18.33-33.59c1.72-3.16,2.83-6.48,2.73-9.44,11.11-18.31,19.83-38.17,26.11-59.47,8.77-29.74,2.81-52.99-17.87-74.9-8.77-9.3-17.4-18.28-28.33-24.55-40.9-23.47-78.5,1.87-115.56,17.16-8.02-22.93-13.94-46.39-21.34-70.3l-22.59-73.02c100.65-46.93,190.79-48.73,276.8,28.98,7.1,6.42,13.3,12.18,19.56,19.49l12.13,14.14c44.69,52.1,60.63,120.13,44.34,187.15-6.52,26.84-14.09,53.4-26.89,77.31Z"/>
    <path class="cls-3" d="M1048.89,332.95l63.04,37.94c21.25,12.79,40.45,30.36,63.92,35.67l5.24,1.18c40.42,9.14,59.83,60.2,196.42-4.71l18.28,61c8.41,28.06,16.7,55.17,26.37,82.05-38.38,17.13-78.31,31.84-120.95,36.15l-21.7,2.19c-24.53,2.48-49.5.52-73.52-7.13s-49.09-15.32-71.52-26.59c-32.89-16.53-65.34-33.9-97.46-53.37-11.64-7.05-22.22-13.63-33.52-19.53-29.84-15.58-62.64-41.98-96.7-23.46-11.95,6.5-21.55,15.37-31.77,24.18-22.96,19.8-37.25,37.59-30.28,69.37,5.52,25.17,16.62,47.85,27.88,70.21-23.58,9.18-48.25,15.11-73.51,21.36l-72.94,18.03c-13.58-28.74-23.51-58.97-29.45-90.95-11.62-62.63,7.13-124.41,50.41-170.56,44.12-47.04,99.75-88.78,165.95-96.05,44.37-4.87,99.67,11.27,135.81,33.02Z"/>
    <path class="cls-1" d="M1835.42,1117.77l-80.81,25.55-60.44,18.89c-1.73.54-2.81,1.88-3.64,2.61-26.59,7.14-51.54,19.86-75.18,35.42-19.84,23.95-34.08,50.45-45.33,79.27l-8.8,22.53c-16-6.65-31.15-14.42-47.46-23.07l-85.07-45.13c15.79-49.74,58.43-125.89,102.73-156.58,27.06-18.75,55.88-33.6,86.1-45.19,27.39-10.5,55.42-18.75,84.07-27.73l59.03-18.49,35.3-13.15c13.98-5.21,26.43-11.96,38.63-20.63,13.12-9.31,20.96-23.68,22.21-40.01,1.5-19.52-.19-58.35-9.12-75.84-9.04-17.71-21.42-22.75-39.83-30.14-13.67-5.48-27.69-7.67-41.05-12.02l1.82-6.23,27.07-50.79,41.23-77.02c40.7,10.85,77.96,29.52,108.18,60.02,42.61,42.99,56.88,100.83,60.64,159.78.99,15.57,1.46,29.5-.12,45.12-5.36,53.03-21.88,90.67-59.84,127.52-17.05,16.56-35.83,29.82-57.17,40.97-17.42,9.11-34.86,18.57-53.17,24.35Z"/>
    <path class="cls-3" d="M940.83,752.07c13.49,32.38,24.64,65.65,30.03,101.09,5.7,37.5-9.23,99.01-22.65,134.96-5.32,14.24-9.95,28.17-16.51,41.05l-47.35,92.93c-7.22,14.17-13.93,27.32-19.51,41.16-11.06,27.45-33.3,68-23.39,101.53,6.81,23.04,24.14,40.99,43.46,54.29,37.26,25.63,79.7,3.43,115.59-10.94l20.19,62.14c8.8,27.07,16.52,53.82,26.75,79.62-73.43,31.59-153.25,45.58-227.33,4.04-43.89-24.61-79.58-60.31-104.2-104.19-19.7-35.1-27.56-73.24-25.52-113.25,2.32-45.32,16.37-79.73,31.11-119.97,2.57-.79,3.61-3.4,4.88-6.27,11.86-26.81,25.52-51.73,38.88-77.86,8.63-16.88,17.48-32.72,24.36-49.55l16.93-41.44c8.78-21.5,15.47-44.21,15.69-67.89.17-17.17-6.4-33.61-12.84-48.79l-12.98-30.61c27.01-8.4,122.19-31.98,144.41-42.04Z"/>
    <path class="cls-1" d="M1134.46,550.71c-22.12,63.69-71.99,143.11-134.95,173.91-4.3,2.1-7.95,4.49-12.56,6.57l-46.13,20.87c-22.22,10.05-117.39,33.64-144.41,42.04-19.16,2.99-38.11,9.01-56.64,16.56-19.74,8.04-32.32,25.36-34.65,46.31-.5,4.53-1.94,9.02-2.06,13.56-.4,15.12-.6,29.86-.02,45.05.99,26,29.66,44.21,51.2,52.94l35.37,14.33c-6.88,16.83-15.73,32.67-24.36,49.55-13.37,26.14-27.02,51.06-38.88,77.86-1.27,2.87-2.3,5.48-4.88,6.27-59.77-22.94-121.21-58.97-149.23-120.11-10.36-22.61-16.56-45.58-18.34-70.4-3.78-52.89,3.27-114.77,28.16-162.38,17.88-34.2,45.41-61.24,79.34-79.45,20.94-11.23,42.3-21.15,64.75-26.7l72.94-18.03c25.26-6.24,49.92-12.17,73.51-21.36,22.72-8.85,45.8-18.04,66.9-31.52,13.45-8.59,21.4-23.63,30.17-36.57,15.35-22.63,24.12-47.56,33.79-72.21,11.3,5.9,21.88,12.48,33.52,19.53,32.12,19.47,64.57,36.84,97.46,53.37Z"/>
  </g>
</svg>