<?xml version="1.0" encoding="UTF-8"?>
<svg id="Layer_1" data-name="Layer 1" xmlns="http://www.w3.org/2000/svg" viewBox="0 0 2560 2560">
  <defs>
    <style>
      .cls-1 {
        fill: #e32229;
      }
    </style>
  </defs>
  <path class="cls-1" d="M1279.82,166.45l-268.4,463.98,268.56,463.56,268.25-463.46-268.41-464.09ZM1816.31,1094.91l-535.87.93,266.56,462.69,536.3-.51-266.99-463.11ZM476.7,1558.37l535.8.42,266.77-463.03-536.45-.33-266.13,462.94Z"/>
  <path d="M1434.86,2101.73l-49.61,228.83-51.24-229.91c-32.19-4.9-60.78-5.3-90.83.51l-51.34,230.22-48.64-228.71c-22.74-5.94-45.04-6.89-66.91.91l66.23,279.61c32.02,4.22,61.01,4.85,91.04-.62l54.15-229.4,51.92,229.94c30.94,4.45,60.2,4.67,91.4-.15l67.43-280.02c-20.77-7.2-41.3-5.39-63.6-1.23ZM866.28,2096.16c-97,23.8-120.87,127.22-93.18,212.13,13.21,40.5,44.62,68.68,85.95,78.79,74.7,18.28,162.82-.2,190.86-81.07,13.13-37.88,14.31-78.37,4.56-117.31-21.33-85.16-111.18-111.43-188.18-92.54ZM983.99,2290.53c-9.83,30.44-35.37,48.6-68.55,49.82-38.02,1.39-67.19-19.57-77.31-54.71-8.48-29.45-8.89-60.87-.31-90.19,9.66-32.97,37.11-51.28,70.76-52.28,35.28-1.06,65,17.98,76.33,52.3,10.11,30.64,9.06,64.13-.93,95.07ZM1989.73,2273.4c34.22-16.29,47.48-48.82,47.78-84.36.31-36.85-16.22-68.36-51.59-82.01-51.39-19.79-126.94-14.02-182.29-5.62l.04,279.76c23.26,6.19,45.67,6.65,66.81-.48l.2-90.84,53.84-.02,61.44,94.02c26.14,2.48,49.51,4.05,73.01-5.89l-69.24-104.54ZM1933.94,2234.15c-21.37,4.02-42.24,2.78-63.58,1.92l-.09-86.58c32.37-4.46,101.1-9.12,99.11,39.56,2.11,22.21-11.77,40.64-35.45,45.09ZM1606.24,2331.92l.32-66,131.33-.22c3.86-19.1,4.02-33.39-.55-50.25l-131.1-.37.33-63.77,141.37-.2c5.4-17.34,5.57-34.06-.19-51.79l-207.8.06v284.85s211.54-.13,211.54-.13c5.69-18.19,6.16-35.53-.59-51.92l-144.66-.27ZM682.64,2107.04c-55.6-19.73-119.38-14.1-181.51-5.96l-.1,280.12c23.03,6.24,45.65,6.41,66.12-.21l.58-83.07c68.15-.21,160.2-4.09,167.29-87.25,4.07-47.78-5.59-82.37-52.37-103.63ZM668.47,2197.05c-1.75,53.6-60.35,46.49-101.23,47.67l-.07-95.19c24.49-4.03,48.16-3.79,70.95,2.98,20.82,6.19,31.04,23.32,30.35,44.54Z"/>
  <path d="M290.26,1730.01l-67.09,226.97-70.89-227.29c-35.2-5.92-68.56-5.39-104.75.1l.02,279.67c21.01,5.72,39.19,6.05,59.29-.31l1.6-232.78,81.2,233.81c21.01,5.74,41.14,5.45,63.24.42l79.65-235.34,1.17,234.13c21.26,5.86,40.52,6.66,59.63-.94l-.07-278.61c-35.33-5.56-69.06-6.35-102.99.15ZM1621.75,1861.81c25.37-9.04,41.42-27.41,43.97-53.78,10.23-105.83-161.03-88.24-228.45-77.42l-.14,280.07c42.94,3.92,82.85,4.89,124.55,4.16,42.61-.74,104.24-14.31,117.16-60.63,6.47-23.21,5.07-47.41-10.77-66.44-11.91-14.31-27.88-18.74-46.32-25.97ZM1503.26,1775.51c28.3-3.87,94.09-8.31,95.28,31.21,1.27,42.58-65.92,33.36-95.37,33.54l.09-64.75ZM1612.61,1936.18c-10.42,35.45-78.97,28.26-109.35,26.01l-.11-71.16,56.12.33c14.27.08,30.51,3.87,42.71,12.39,11.41,7.97,13.75,21.82,10.63,32.42ZM2313.38,1730.44l-.18,109.27h-132.06s-.37-109.5-.37-109.5c-22.82-6.2-42.92-6.43-65.91-.14l-.03,278.45c22.68,7.3,43.97,6.81,66.01-.16l.23-115.65,131.93-.13.5,116c22.35,6.45,46.09,8.64,65.88-2.17l-.1-275.52c-21.71-7.5-44.24-7.25-65.92-.45ZM1312.16,1731.22l-.05,181.23c-2.89,17.74-8.15,35.62-25,44.4-24.07,12.55-54.52,13.42-79.32.86-15.32-7.76-24.31-26.48-24.37-44.18l-.57-183.41c-23.24-6-44.85-6.67-66.23.51l1.25,198.16c.27,43.26,32.12,76.15,72.54,85.84,36.29,8.71,72.56,8.57,108.73-.76,42.08-10.85,75.59-45.46,75.96-90.92l1.54-192.93c-22.79-5.79-43.87-7.07-64.47,1.2ZM927.68,1791.77c7.95-39.66,99.11-19.53,129.72-2.1,3.49-17.25.48-39.85-11.44-54.07-39.51-20.98-87.29-22.76-129.51-9.76-35.49,10.93-55.91,40.58-56.56,76.61-2,111.11,161.28,70.41,145.4,141.24-10.03,44.75-117.06,20.52-151.08,4.5-4.04,18.28.47,40.18,10.96,56.4,46.28,18.85,100.21,22.05,149.36,7.19,36.91-11.16,55.78-41.53,58.17-76.74,7.86-115.85-157.64-80.31-145.03-143.27ZM1921.99,1788.56c2.3-8.29,12.85-15.76,23.89-17.77,36.86-6.68,70.52,3.83,105.82,18.71,2.4-18.54-1.03-38.35-11.51-53.26-40.27-21.81-89.54-23.78-132.89-9.51-33.02,10.86-52.31,39.04-54.18,72.93-6.25,113.2,162.23,73.3,145.54,144.06-10.73,45.49-117.86,19.96-151.23,4.49-2.86,19.22-.1,39.83,11.22,56.43,45.89,18.74,100.3,22.06,149.16,7.21,38.88-11.82,58.01-44.94,58.32-82.2.94-113.19-162.86-73.49-144.14-141.08ZM579.7,1727.4c-6.36,17.97-5.89,35.8-.08,53.02l88.51.86.06,226.54c21.64,8.11,44.6,8.19,67.23-.11l.05-226.74,88.27-.59c5.9-18.56,6.28-35.34-.16-52.98h-243.87ZM1730.71,1730.56l.03,277.96c22.52,7.02,44.65,7.68,66.38-.72l-.02-276.99c-21.69-7.3-44.44-7.28-66.4-.26ZM2512.29,1730.33c-23.13-6.53-43.49-6.41-66.51-.32l-.02,278.46c22.98,6.21,46.64,8.98,66.7-1.68l-.18-276.46ZM460.6,1730.88v277.39c22.71,6.73,46.55,9.11,67.16-1.53l-.12-276.15c-22.72-6.94-45.07-7.18-67.04.29Z"/>
</svg>