<?xml version="1.0" encoding="UTF-8"?>
<svg id="Layer_1" data-name="Layer 1" xmlns="http://www.w3.org/2000/svg" viewBox="0 0 2560 2560">
  <defs>
    <style>
      .cls-1 {
        fill: #0e466d;
      }

      .cls-2 {
        fill: #17496f;
      }

      .cls-3 {
        fill: #14486e;
      }

      .cls-4 {
        fill: #3db18d;
      }

      .cls-5 {
        fill: #11476d;
      }

      .cls-6 {
        fill: #0d466d;
      }

      .cls-7 {
        fill: #0f476d;
      }

      .cls-8 {
        fill: #3ab08d;
      }

      .cls-9 {
        fill: #0b466c;
      }

      .cls-10 {
        fill: #12486e;
      }

      .cls-11 {
        fill: #13486e;
      }

      .cls-12 {
        fill: #0e476d;
      }

      .cls-13 {
        fill: #10476d;
      }
    </style>
  </defs>
  <path class="cls-8" d="M1440.7,1345.39c-36.72-37.77-72.12-71.48-112.66-102.56-87.2-65.32-188.47-101.26-292.94-51.1-22.39,10.75-42.57,23.46-62.64,37.61-16.29,11.49-18.51,33.97-6.14,47.04,14.76,15.58,34,11.17,48.49-2.13,18.28-16.78,42.13-26.54,65.92-34.65,118.61-40.42,223.79,52.47,302.93,132.76-88.78,38.03-180.28,60.23-276.37,65.02-136.2,6.51-269.98-26.9-388.9-92.8l.16-666.75c163.61,162.44,381.53,246.89,608.05,239.11,223.03-7.88,430.66-104.91,579.34-273.46l.54,230.63c-82.02,156.93-199.02,293.08-342.14,395.92-50.55-51.99-98.63-100.5-149.98-147.54-31.85-29.17-65.06-52.99-101.48-75.42-65.43-37.21-139.82-58.56-213.08-31.57-37.28,13.74-70.35,36.21-96.38,65.37-12.36,13.84-13.1,32.25-2.61,44.17,11.77,13.38,32.36,13.5,44.98.27,20.52-21.51,43.24-38.25,71.47-48.47,75.72-27.42,141.42-2.54,202.91,44.21,29.48,22.41,56.33,45.87,82.75,72.09l110.17,109.35-72.37,42.9Z"/>
  <path class="cls-1" d="M1432.52,1415.5c67.77,69.22,144.77,148.19,237.16,183.5,76.08,29.07,158.56,28.35,236.64,2.58l.19,93.85-1187.87.04-.15-288.15c55.09,27.94,109.25,45.96,168.09,59.12,130.41,27.39,263.69,27.28,394.16.22,52.31-13.76,101.21-30.27,151.79-51.15Z"/>
  <path class="cls-6" d="M1906.58,1393.73c-114.44,21.93-208.65-11.8-296.28-86.15,58.4-45.55,110.42-93.79,159.46-148.19,50.45-55.15,93.13-112.99,136.57-176.26l.24,410.6Z"/>
  <path class="cls-4" d="M1543.22,630.88c11.19-95.48-25.73-165.15-73.24-244.26-56.08-85.22-120.38-157.43-191.29-231.24-86.29,108.44-158.31,210.26-204.54,338.64-15.55,42.59-22.66,84.03-26.16,129.73-11.97-88.22,23.16-195.31,62.1-276.03,52.71-105.97,113.77-188.29,187.51-283.93,85.08,96.93,167.17,192.17,227.13,304.94,51.79,98.37,75.89,197.1,44.8,306.47-29.63,104.21-122.11,167.9-225.69,183.9l-37.08-1.17c131.63-4.5,221.14-96.45,236.45-227.07Z"/>
  <path class="cls-12" d="M1906.61,1538.85c-140.64,65.18-285.37-11.16-381.41-114.96l-36.14-37.77,73.15-43.09c77.62,63.44,145.01,108.76,248.13,115.99,32.64,2.29,63.16,2.46,95.99-3.03l.27,82.86Z"/>
  <path class="cls-2" d="M1125.65,617.8c2.69,82.44,48.08,152.14,109.16,206.86-33.82-9.74-60.63-29.63-85.16-51.22-32.06-28.21-48.21-64.43-56.37-105.59-10.26-51.75-10.33-101.95,8.79-151.86,17.44-45.51,37.01-88.81,62.8-130.65,32.62-52.93,69.57-101.74,115.13-145.75l-70.25,100.42c-15.84,22.64-27.22,46.39-39.44,71.48-31.5,64.7-47.02,134.29-44.66,206.32Z"/>
  <g>
    <path class="cls-13" d="M1462.39,2110.3c-1.97,25.29-12.56,46.68-32.92,59.81-26.12,11.64-55.02,7.49-76.85-11.26-12.81-11.21-24.01-25.41-30.27-41.53-.54-1.4,5.12-1.3,5.98-.05,16.69,24.38,42.72,42.4,73.59,31.65,14.67-5.11,26.77-18.18,26.83-34.95l.26-79.46c.04-11.23,4.45-21.08,12.37-28.35l20.54-14.34.2,80.46h171.54s.05-201.63.05-201.63c0-9.59,3.45-17.83,8.11-25.18l24.86-20.31.13,164.55,376.22-.04c13.29,0,24.09-4.72,35.17-10.26,13.05-8.27,23.63-18.45,32.68-30.77l.06,120.34,176.56-.06-.12-41.01-121.17-.14c4.87-9.93,8.28-17.91,10.59-27.35l12.09-49.46c4.96-20.31,18.91-35.44,36.88-45.24,11.65-5.41,23.15-9.26,35.57-12.65,26.18-6.54,45.71-23.22,62.55-45.95l.11,263.17h-861.62ZM2216.79,1989.58l70.7.13-.06-65.87c-14.41,3.91-26.6,8.37-39.49,13.9-7.85,4.35-14.51,9.68-19.83,16.76-5.21,11.15-8.93,20.83-11.33,35.09ZM2072.79,2027.83h-404.4v44.44h404.4v-44.44Z"/>
    <path class="cls-13" d="M579.85,2167.89c-21.51-14.01-43.85-46.78-32-40.99.82.4,2.95,1.65,3.82,2.71,18,21.94,51.25,29.28,76.31,12.76,7.89-5.2,11.45-16.39,14.08-25.11,6.16-20.46,5.58-40.6,6.28-61.84.87-26.44,19.46-47.42,43.55-56.56,13.17-4.99,26.2-7.05,40.34-9.11,13.03-4.76,23.11-12.9,34.54-22.64l.19,105.16h263.65s.52-34.5.52-34.5c.32-21.08,18.71-32.25,36.13-45.9l.31,78.72,64.1-.03.05-199.48c1.69-15.78,10.46-25.56,22.24-34.68l14.15-10.95-1.6,244.93,70.79.27.07-196.13c0-10.14,4.03-18.96,9.4-26.74l25.38-22.6.03,280.14h-543.16s-.25-65.76-.25-65.76c-.02-5.87-5.21-10.48-11.21-9.14-17.43,3.9-28.62,9.97-33.67,28.33-9.67,35.13-1.58,57.71-16.29,87.39-6.11,12.33-15.42,20.62-27.59,26.22-20.05,9.23-41.13,7.92-60.15-4.48Z"/>
    <path class="cls-13" d="M447.04,2448.27c.98-1.11,2.37-2.3,2.95-2.8.82-.71,4.35,1.81,3.57,3.32-7.45,14.49-22.03,30.12-37.26,38.59-25.44,14.15-56.17,11.08-78.37-7.86-11.22-9.57-15.68-23.76-19.11-37.91-37.86-.58-68.35-24.32-75.9-60.93-6.28-30.42-6.48-62.04,1.57-91.98,7.04-26.21,25.68-45.23,51.75-51.73,33.93-8.46,86.87-7.46,111.17,21.08,24.47,28.73,25.59,80.59,19.62,116.21-2.23,13.29-7.95,26.77-15.92,37.6-13.12,17.83-33.66,26.67-56.08,30.03.94,12.27,10.25,21.91,21.94,25.86,25.66,8.67,51.83,1.19,70.08-19.48ZM350.64,2380.81l.51,24.56c40.91-6.88,36.56-75.96,30.36-104.46-6.71-30.86-37.84-37.99-64.86-31.79-12.67,2.91-21.84,11.44-27.02,23.28-11.28,25.78-11.45,69.29,2.55,94.37,5.26,9.43,13.02,17.13,23.66,18.16l.44-24.13h34.36Z"/>
    <path class="cls-10" d="M2285.59,2340.6c-.09-23.08-28.75-16.42-45.76-17.34l-.09,115.31-38.07-.08-.04-115.27-44.37-.03-.15,115.52-38.09-.32.1-161.82c10.99,9.09,21.6,13.22,34.57,13.29l122.83.74c15.6.09,30.3,7.18,38.51,19.78,5.5,8.45,7.19,19.35,7.2,29.53l.12,98.56-36.37.18-.39-98.06Z"/>
    <path class="cls-7" d="M1238.57,2347.49c-11.14,13.2-27.68,17.98-44.28,19.14-24.35,1.7-47.66,1.01-72.34,1.3l-.12,70.74-39.68-.06-.02-220.37c9.62,8.87,20.12,17.04,33.73,17.17l61.91.58c15.2.14,31.32,2.03,45.2,7.84,32.23,13.5,42.61,71.66,15.6,103.66ZM1200.27,2324.4c10.1-14.54,9.85-32.03-.3-45.65-6.57-3.66-14.36-6.55-22.15-6.58l-55.91-.19v59.35s57.42-.16,57.42-.16c7.18-.02,14.5-3.04,20.93-6.77Z"/>
    <path class="cls-13" d="M248.32,2045.66c.46-1.02,3.63-2.72,4.59-2.97,7.43-1.91-11.84,36.87,8.01,78.28,8.72,18.2,25.77,26.45,45.28,23.8,13.11-1.78,25.52-5.91,34.29-15.55,10.63-11.69,10.44-25.19,10.43-40.17l-.16-216.29c-.02-23.94,16.93-39.78,36.31-50.65l-3.45,270.81c-.54,42.54-22.82,80.79-68.52,83.3-13.56.75-27-2.29-39.51-7.4-48.77-19.89-45.52-82.53-27.27-123.15Z"/>
    <path class="cls-10" d="M441.64,2397.95c.07-13.93,1.63-27.21,11.2-36.51,8.96-8.71,22.79-12.98,35.55-13.11l57.88-.62c1.61-6.2,1.3-15.65-5.04-20.49-4.73-3.61-13.37-5.48-19.78-5.51l-70-.37-.05-31.17,81.96.13c14.24.02,27.39,4.67,38.56,12.67,9.05,9.83,14.74,22.25,14.76,36.17l.18,99.55-107.35-.29c-22.18-.06-38.36-18.1-37.88-40.45ZM497.91,2408.82l49.25.04.02-31.15-40.99-.07c-6.79-.01-15.94.01-21.52,4.08-6.31,4.59-6.88,16.67-1.82,22.38,2.77,3.13,10.2,4.72,15.07,4.72Z"/>
    <path class="cls-10" d="M716.91,2410.35c-2.59-21.3-2.79-44.21,17.52-54.57,10.64-5.43,22.97-7.87,35.28-7.92l51.28-.19c.58-7.13-.66-13.62-5.04-18.62-3.02-3.44-10.75-6.99-16.63-7.04l-75.36-.62v-31.33s83.44.19,83.44.19c13.73.03,26.34,4.81,36.99,12.74,9.05,9.78,14.71,22.23,14.74,36.14l.2,99.55-105.87-.2c-17.41-.03-31.23-11.84-36.54-28.14ZM821.36,2408.7l-.19-31.01-44.03-.03c-5.31,0-12.94.49-17.51,3.3-6.81,4.2-7.79,15.77-3.28,22.46,2.42,3.59,10.31,5.48,14.92,5.46l50.08-.18Z"/>
    <path class="cls-5" d="M445.86,2152.19c30.87,2.81,54.95-20.66,53.02-51.76l-86.91-.06c-.56-42.89,22.13-77.91,63.29-90.65,25.23-7.81,41.8-14.4,58.72-37.55l-1.77,152.2c-.31,26.65-18.31,45.44-42.84,50.68s-49.32,1.04-68.53-16.19c-10.2-9.15-20.69-19.38-25.81-34.07,14.56,14.48,30.24,25.52,50.82,27.4ZM497.67,2065.65l-.16-24.43c-16.57,6.4-28.38,6.36-33.79,24.24l33.95.19Z"/>
    <path class="cls-13" d="M1775.51,2364.36c0,42.82-34.73,77.54-77.58,77.54s-77.58-34.72-77.58-77.54,34.73-77.54,77.58-77.54,77.58,34.72,77.58,77.54ZM1699.34,2408.95c14.16-.4,24.83-7.42,30.27-20.01,6.66-15.41,6.33-33.91-.2-49.33-5.56-13.13-17.02-19.73-30.82-19.86-14.3-.14-26.32,6.5-31.99,20.19-6.28,15.15-6.62,33.25-.33,48.35,5.74,13.78,17.64,21.09,33.07,20.66Z"/>
    <path class="cls-10" d="M2069.5,2290.38l38.13-.3.02,148.56-71.87.07c-8.66,0-16.99-1.39-25.36-3.13-19.53-5.59-32.87-21.99-32.96-43.18l-.4-102.3,38.09.25.23,97.63c.02,10.39,7.39,17.27,17.36,17.3l36.75.11.02-115.01Z"/>
    <path class="cls-5" d="M1880.7,2379.29c-1.12,7.5.06,17.81,7.03,23.25,4.92,3.84,14.69,4.53,21.16,4.56l54.98.27.08,31.24-56.22.07c-30.55.04-58.95-14.08-66.21-45.83-4.26-18.63-4.27-37.94-.1-56.55,7.22-32.26,35.24-46.13,66.36-46.15l56.06-.04.14,31.23-53.28.28c-6.41.03-15.05.68-20.28,3.57-8.53,4.71-10.79,14.99-10.08,24.17l83.6.19-.11,29.7-83.14.04Z"/>
    <path class="cls-5" d="M1297.76,2379.3c-1.08,7.12.1,18.1,7.27,23.22,5.94,4.24,16.35,4.55,23.72,4.59l52.3.28.04,31.23-61.71-.3c-15.18-.07-30.26-5.15-41.84-14.61-29.06-23.73-29.36-92.87-1.21-117.63,11.53-10.14,27.21-15.5,42.86-15.6l61.84-.37.1,31.24-56.03.33c-6.06.04-14.48,1.42-19.03,4.61-7.48,5.24-8.87,14.03-8.89,23.07l83.94.18-.07,29.7-83.26.08Z"/>
    <path class="cls-3" d="M1496.66,2438.74l-39.02-.24c-25.54-.16-38.59-22.06-38.62-45.89l-.09-72.49-26.24-.39-.21-29.31,26.31-.49c.31-10.58-.34-20.66.77-31.32,1.19-11.51,8.06-24.4,16.73-31.46l20.71-16.87.19,79.63,39.38.34.13,29.46-39.58.36.36,69.27c.06,10.61,7.79,18.83,18.08,19.14l21.06.63.03,29.63Z"/>
    <path class="cls-13" d="M660.53,2438.52c-26.33-.1-38.96-22.55-39-45.89l-.14-72.55-26.13-.29-.14-29.62,26.08-.12c.4-10.65-.24-20.59.84-31.31,1.15-11.4,7.95-24.38,16.55-31.41l20.84-17.02.28,79.7,39.42.18.07,29.55-39.63.32.4,69.07c.06,11.15,8.06,19.14,18.83,19.43l20.36.53.02,29.57-38.65-.15Z"/>
    <path class="cls-2" d="M1584.37,2333.01c-.95-5.58-3.06-13.52-8.12-14.06-10.09-1.07-19.47-.8-29.98-.48l-.03,120.03-38.12.15v-160.14c7.53,7.56,15.59,11.36,25.49,11.44l43.17.36c26.29.22,40.3,18.29,40.07,42.71l-32.47-.02Z"/>
    <path class="cls-2" d="M952.1,2332.98c-1.31-4.94-2.77-13.43-8.14-14.01-10.03-1.1-19.43-.82-30.01-.47l-.14,120.21-38.07-.18.04-160.03c6.92,7.13,15.21,11.38,25.3,11.46l43.46.37c26.08.22,40.29,18.43,39.92,42.71l-32.36-.05Z"/>
    <path class="cls-9" d="M1785.6,2443.58l-.05-184.89c3.29-11.82,7.76-23.68,17.06-31.35l20.91-17.26.02,233.44-37.93.07Z"/>
    <path class="cls-11" d="M750.02,1941.41c-11.4,2.2-20.38-3.22-24.48-14.5-3.57,10.56-12.21,16.25-23.01,14.77-8.03-1.1-14.89-6.65-17.08-13.11-2.78-8.19-.24-16.39,5.91-22.09,5.51-5.11,13.06-7.13,20.74-4.76,6.17,1.9,11.17,8.44,13.31,15.64,3.06-7.66,7.68-13.7,13.27-15.52,8.18-2.66,15.98-.48,21.68,5.18s7.8,12.72,5.64,20.71c-1.59,5.89-7.74,12.1-15.96,13.69Z"/>
    <path class="cls-3" d="M2278.71,1856.91c-5.68,6.3-13.39,8.8-21.54,6.6-6.16-1.66-11.34-7.73-14.28-15.85-2.28,6.76-6.75,13.04-12.31,15.18-8.01,3.08-15.86,1.21-21.91-4.39-4.26-3.94-7.05-10.14-6.98-15.79.07-5.28,3.44-11.27,8.11-14.85,5.97-4.59,13.38-6,20.48-3.4,5.74,2.1,10.46,8.18,12.46,14.47,3.04-6.46,6.96-11.89,11.67-13.98,6.67-2.97,13.71-2.04,19.65,1.48,11.13,6.6,13.63,20.59,4.66,30.53Z"/>
    <ellipse class="cls-10" cx="975.8" cy="2155.36" rx="20.54" ry="20.53"/>
  </g>
  <circle class="cls-2" cx="1236.85" cy="825.86" r="1.23"/>
</svg>