<?xml version="1.0" encoding="UTF-8"?>
<svg id="Layer_1" data-name="Layer 1" xmlns="http://www.w3.org/2000/svg" viewBox="0 0 2560 2560">
  <defs>
    <style>
      .cls-1 {
        fill: #cd242b;
      }

      .cls-2 {
        fill: #f5d232;
      }
    </style>
  </defs>
  <path class="cls-1" d="M572.76,2502.96l-190.7.62c-42.5.14-82.7-5.93-123.32-15.75-51.23-12.39-51.96-73.53-51.38-117.16l182.4.44c-1.94,21.88,5.06,50.17,28.18,55.42,39.44,8.96,81.26,5.39,121.24,2.2,13.38-1.07,23.35-9.76,26.66-21.97,6.86-25.32,10.25-77.38-28.43-79.92-77.69-5.11-156.07,2.16-228-4.93-20.88-2.06-40.78-9.1-59.45-17.47-53.63-24.04-48.61-104.73-29.77-149.08,16.66-39.2,60.76-49.51,100.24-51.01,104.68-3.96,207.94-3.45,312.64.01,17.76.59,33.73,3.99,49.77,9.93,45.31,16.77,56.14,62,54.25,106.37l-166.6.03c-2.3-19.45.77-54.7-28.77-56.62-41.64-2.72-82.52-2.61-124.29.17-13.7.91-25.3,8.63-29.23,22.33-4.78,16.69-5.07,36.14,2.29,52.31,4.56,10.01,16.76,13.44,27.6,13.88l196.62,7.95c45.66,1.85,109.19,11.23,121.97,63.48,8.81,36.01,10.18,73.2-.71,109.23-6.3,20.85-20.16,46.16-42.34,52.34-39.18,10.92-78.67,17.04-120.86,17.18Z"/>
  <path class="cls-1" d="M1287.84,2505.61l-156.62-.1-.11-172.04c-.03-49.55-72.2-41.37-103.95-36.7-19.41,3.85-30.73,18.04-32.53,37.92l-.48,171.01-156.4-.13v-399.91s156.35-.02,156.35-.02l.54,134.44c30.4-13.22,61.54-19.94,94.87-22.49,34.62-2.17,68.15-2.38,102.71-.62,29.49,1.97,56.66,11.53,79.03,30.73,11.67,14.73,15.79,32.84,15.86,52.3l.74,205.61Z"/>
  <path class="cls-1" d="M1680.3,2396.48l156.82-.11c-4.23,22.19-7.8,46.4-22.83,64.66-16.28,19.77-41.63,29.2-67.41,32.9-83.77,12.02-231.13,16.93-310.17-8.89-22-7.19-36.34-22.85-44.02-44.68-15.91-45.18-18.06-126.25-1.08-171.37,7.42-19.71,20.67-32.87,40.85-39.12,71.81-22.24,209.08-18.18,285.65-11.98,30.32,2.45,86.18,11.76,101.95,40.04,17.76,31.85,19.55,88.94,17.1,123.17l-299.25-.7c-2.77,29.71,7.41,56.93,38.16,62.13,21.55,1.67,43.18,2.06,64.47-1.18,22.13-4.94,39.4-19.08,39.76-44.85ZM1679.57,2323.57c4.44-23.72-8.95-45.33-32.69-51.02-27.21-6.52-56.85-6.76-83.71,2.47-19.91,6.85-27.41,29.29-25.45,48.32l141.84.23Z"/>
  <rect class="cls-1" x="1926.37" y="2105.6" width="160.52" height="400.35"/>
  <rect class="cls-1" x="2194.31" y="2105.6" width="158.63" height="400.35"/>
  <g>
    <path class="cls-1" d="M1143.31,1955.81l-513.04-.05-48.19-389.76-199.37-144.96-143.89-105.79c-33.26-244.76-18.93-475.28,103.01-694.55,28.65-51.53,58.09-101.03,94.3-148.02,96.66-125.42,220.86-227.26,361.8-300.1,156.49-80.88,331.1-122.37,507.35-118.25,310.33,7.26,603.31,151.33,799.23,391.15,65.9,80.67,118.36,171.1,159.44,267.08,50.34,121.44,77.11,248.72,78.95,380.12,1.11,79.23-6.12,156.6-21.33,234.07l-325.38,239.4-47.97,389.47-515.98.13c-83.88,67.17-202.57,67.56-288.93.06ZM2152.56,1212.58c24.56-92.01,26.71-209.42-16.28-293.13l-202.23,198.16-360.06,351.25,302.56-371.05,229.45-281.25c-10.54-60.75-21.46-99.48-55.5-151.33-21.44-32.66-44.4-63.11-75.16-89.2l-123.47,204.96-178.03,304.37c-68.84,117.69-135.5,234.71-207.1,349.63l143.32-308.91,154.05-339,134.7-289.28c-45.42-76.9-118.03-133.36-205.08-158.35l-165.64,561.45-146,496.61,212.05-1098.32c-72.62-51.9-164.35-66.37-251.54-54.95l-19.07,363.5-15.02,415.84-20.84,384.29-23.97-423.99-16.71-405.82-16.81-332.76c-33.11-11.56-108.3-6.79-140.75,1.51-40.19,10.27-77.44,26.4-114.79,46.69l109.86,555.32,107.17,544.16c1.35,6.84,5.47,10.39,2.69,17.26-4.54-6.56-3.91-12.9-6.44-21.53l-152.02-517.53-155.7-532.43c-79.65,16.59-167.38,87.41-206.15,155.28l212.91,465.48,212.69,465.15-152.41-256.19-174.3-300.69-173.57-292.37c-74.88,58.1-122.14,145.08-131.1,239.58l536.31,656.14c-93.16-81.55-176.15-169.2-263.33-255.03l-304.07-299.36c-47.05,84.38-44.37,203.2-18.14,292.77l355.52,263.88,37.94,293.57,391.34,2.86,26.36,29.75c13.07,13.99,30.39,20.27,49.67,22.5,37.16,2.04,71.32-17.85,89.04-52.25l390.53-.05,39.51-294.11,353.62-263.08Z"/>
    <g>
      <path class="cls-2" d="M2152.56,1212.58l-353.62,263.08-39.51,294.11-390.53.05c-17.71,34.41-51.88,54.3-89.04,52.25-19.28-2.23-36.6-8.51-49.67-22.5l-26.36-29.75-391.34-2.86-37.94-293.57-355.52-263.88c-26.24-89.57-28.92-208.39,18.14-292.77l304.07,299.36c87.18,85.83,170.17,173.48,263.33,255.03L468.26,814.99c8.97-94.5,56.22-181.48,131.1-239.58l173.57,292.37,174.3,300.69,152.41,256.19-212.69-465.15-212.91-465.48c38.76-67.88,126.5-138.69,206.15-155.28l155.7,532.43,152.02,517.53c2.54,8.63,1.9,14.97,6.44,21.53,2.78-6.87-1.34-10.42-2.69-17.26l-107.17-544.16-109.86-555.32c37.35-20.29,74.6-36.42,114.79-46.69,32.45-8.3,107.64-13.07,140.75-1.51l16.81,332.76,16.71,405.82,23.97,423.99,20.84-384.29,15.02-415.84,19.07-363.5c87.19-11.41,178.92,3.05,251.54,54.95l-212.05,1098.32,146-496.61,165.64-561.45c87.05,24.99,159.66,81.45,205.08,158.35l-134.7,289.28-154.05,339-143.32,308.91c71.6-114.92,138.26-231.94,207.1-349.63l178.03-304.37,123.47-204.96c30.75,26.09,53.71,56.54,75.16,89.2,34.05,51.86,44.96,90.58,55.5,151.33l-229.45,281.25-302.56,371.05,360.06-351.25,202.23-198.16c42.99,83.7,40.84,201.12,16.28,293.13ZM1014.93,1483.65l-8.8-10.79c.39,6.96,5.31,8.9,8.8,10.79ZM1564.81,1478.43c4.33-.84,6-3.01,6.84-6.15-3.62,1.5-4.86,3.99-6.84,6.15Z"/>
      <path class="cls-1" d="M1014.93,1483.65c-3.49-1.89-8.41-3.83-8.8-10.79l8.8,10.79Z"/>
      <path class="cls-1" d="M1564.81,1478.43c1.98-2.15,3.22-4.65,6.84-6.15-.84,3.14-2.51,5.31-6.84,6.15Z"/>
    </g>
  </g>
</svg>