<?xml version="1.0" encoding="UTF-8"?>
<svg id="Layer_1" data-name="Layer 1" xmlns="http://www.w3.org/2000/svg" viewBox="0 0 4051.63 2560">
  <defs>
    <style>
      .cls-1 {
        fill: #069a9a;
      }

      .cls-2 {
        fill: #652e8a;
      }
    </style>
  </defs>
  <path class="cls-2" d="M687.89,1723.12c76.76,4.2,151.06,4.93,226.68-.19,45.57-.7,79.84-39.55,75.12-85.6l57.34-.46c5.45,76.63-54.13,140.16-131.45,143.69l-50.22,2.29c-6.32-1.37-12.23.9-18.41.87l-93.46-.47-28.15-.87-39.56-1.96c-65.35-3.23-125.24-53.97-127.91-122.45-2.62-67.09-2.48-135.56-.07-202.49,2.54-70.34,63.36-121.17,130.61-123.82,76.61-3.02,151.21-4.76,227.27.64,73.28.98,131.69,60.85,131.68,133.96v119.38s-293.96-.03-293.96-.03l.04-58.71,236.57-.07.03-60.4c.02-43.3-33.47-74.92-75.51-77.2-75.31-4.07-149.31-4.04-224.7-.05-40.83,2.16-75.73,32.18-75.76,74.86l-.15,183.07c-.03,41.61,32.56,73.76,73.97,76.03Z"/>
  <path class="cls-2" d="M2686.4,1585.65l-.11-58.79,293.85-.02v120.22c-.02,72.89-58.29,131.7-131.03,133.4-17.02.59-33.26,1.06-50.31,2.07l-18.42,1.09-93.45-.36-28.25-.88-39.97-2c-72.52-3.62-129.47-61.84-129.46-134.4l.02-179.75c0-73.11,58.39-133.02,131.78-133.9,75.74-5.6,151.11-3.46,226.82-.74,77.66,2.79,137.6,66.82,131.91,144.26l-57.3-.18c4.95-47.45-29.72-84.17-75.72-86.54-75.16-3.87-149.36-4.02-224.58.08-42.03,2.29-75.57,33.82-75.57,77.12l-.02,179.55c0,44.08,33.92,75.48,76.66,77.63,74.95,3.77,148.67,3.96,223.68-.09,41.43-2.24,75.8-32.42,75.81-75.24l.02-62.55-236.33.02Z"/>
  <path class="cls-2" d="M1761.34,1723.19c76.89,4.46,151.02,4.18,226.75.13,45.74-2.44,79.63-39.84,74.66-86.43h57.29c5.69,75.62-53.06,139.96-129.76,143.57l-51.42,2.42c-6.32-1.44-12.23.88-18.41.84l-93.46-.49-28.23-.88-44.69-2.3c-69.25-3.56-124.3-62.02-124.29-131.81l.03-184.12c.01-73.14,59.28-129.57,131.23-132.43,76.3-3.03,151.94-4.84,228.1.62,73.71,1.16,131.44,61.65,131.37,135.1l-.12,118.25-293.79-.05-.03-58.76,236.48.02.02-61.65c.01-43.37-34.43-73.94-76.17-76.09-75.31-3.88-149.23-4.04-224.57.11-40.53,2.23-75.14,32.43-75.15,74.79l-.03,184.18c0,41.54,33.34,72.6,74.2,74.97Z"/>
  <path class="cls-2" d="M1425.08,1389.01c-57.94-3.86-113.37-3.58-170.5-.11-40.88,2.48-73.67,32.43-75.41,74.25l-.02,316.27-57.3.03v-313.04c-.01-72.78,56.62-129.49,128.06-134.33,59.97-4.07,119.06-4.09,179.09.02,71.36,4.88,127.94,61.68,127.84,134.35l.02,312.95-57.32.1.11-312.03c.01-42.85-31.79-75.62-74.56-78.46Z"/>
  <g>
    <g>
      <polygon class="cls-1" points="2571.85 1039.96 2397.69 1039.98 2397.72 1146.1 2602.87 1146.06 2602.98 1231.56 2277.26 1231.49 2277.25 784.46 2597.87 784.33 2597.87 865.16 2397.75 865.15 2397.7 966.17 2571.9 966.24 2571.85 1039.96"/>
      <g>
        <path class="cls-1" d="M3495.68,1085.15v26.39c0,55.55-51.06,99.84-104.94,116.6-25.06,7.8-49.98,11.12-76.57,12.17-51.79,1.25-102.46-4.14-153.39-16.03l.13-88.25c36.13,11.17,70.74,19.27,107.31,22.56,35.05,2.71,114.01,4.75,105.62-48.24-1.45-9.15-7.81-18.25-17.11-24.26-13.23-8.54-27.13-14.81-41.71-21.16l-60.07-26.15c-17.92-7.8-34.02-16.88-50.45-27.39-45.81-29.31-60.81-80.68-49.22-132.28,10.33-45.99,45.25-73.42,87.83-88.76,29.72-10.71,73.23-15.95,104.37-13.46l11.72.94c34.35,2.75,67.66,8.57,101.54,15.01l-.06,84.8c-18.4-6.82-36.22-13.08-55.64-17.48-32.74-7.84-86.19-12.47-116.4,3.03-15.77,8.09-23.54,26.13-16.48,42.65,3.05,7.13,9.39,12.17,16.21,15.8,40.84,21.77,82.41,37.04,123.93,59.65,47.5,25.87,75.42,48.34,83.36,103.87Z"/>
        <polygon class="cls-1" points="3072.04 1231.48 2931.25 1231.63 2773.55 928.69 2773.34 1231.58 2685.26 1231.52 2685.26 784.4 2830.18 784.32 2983.61 1082.78 2983.98 784.41 3072.05 784.38 3072.04 1231.48"/>
      </g>
    </g>
    <g>
      <g>
        <polygon class="cls-1" points="2044.08 1231.64 2043.33 917.36 1912.58 1235.95 1835.23 1236.18 1706.8 916.58 1706.27 1231.54 1618.3 1231.54 1618.29 784.43 1780.36 784.28 1893.02 1069.81 2008.49 784.26 2162.42 784.37 2162.47 1231.49 2044.08 1231.64"/>
        <polygon class="cls-1" points="1505.62 1039.93 1331.52 1039.96 1331.32 1146.1 1536.52 1146.07 1536.73 1231.53 1210.92 1231.52 1210.9 784.48 1531.48 784.33 1531.48 865.16 1331.39 865.15 1331.34 966.17 1505.4 966.18 1505.62 1039.93"/>
      </g>
      <g>
        <path class="cls-1" d="M897.64,1127.72c-16.02,80.49-103.76,110.57-177.07,112.55-52.44,1.43-103.96-4.05-155.02-16.02l.08-88.18c35.85,10.93,70.86,19.36,107.87,22.54,34.75,2.51,111.85,4.85,105.4-46.98-1.21-9.68-7.48-19.02-16.94-25.24-12.45-8.18-25.55-14.26-39.37-20.26l-60.77-26.39c-18.29-7.94-34.81-17.2-51.62-27.76-30.87-19.38-50.05-50.63-53.16-87.03-3.6-42.09,8.75-81.84,42.81-108.57,34.09-26.74,75.38-36.46,117.84-39.34,11.75-.8,23.25-1.16,35.05-.16l11.74.99c34.01,2.86,66.95,8.54,101.01,14.92l.02,85.01c-20.68-8.1-40.48-14.54-61.87-19.03-31.53-6.72-81.05-10.39-110.04,4.32-15.98,8.11-23.84,26.5-16.4,43.17,3.15,7.07,9.58,11.95,16.39,15.57,51.45,27.36,116.9,49.73,162.59,84.06,39.01,29.31,50.73,75.3,41.46,121.82Z"/>
        <rect class="cls-1" x="971.1" y="784.36" width="125.02" height="447.2"/>
      </g>
    </g>
  </g>
  <path class="cls-2" d="M2259,1461.93l-.62,317.46h-57.09s-.09-313.19-.09-313.19c-.01-42.38,19.07-81.01,52.6-106.44,21.04-15.96,45.19-25.42,71.98-26.74h122.35s.05,57.24.05,57.24l-122.66.17c-35.46,3.87-66.44,34.02-66.52,71.5Z"/>
  <g>
    <path class="cls-2" d="M3495.68,1333.71v.46l-220.93,291.78c-10.16,13.42-14.6,28.96-14.89,45.49l-.02,108.06-57.25-.02-.02-109.19c.06-29.34,9.69-56.62,27.26-79.91l194.19-257.41,71.66.75Z"/>
    <polygon class="cls-2" points="3226.13 1529.09 3190.81 1576.13 2986.92 1333.4 3061.48 1333.09 3226.13 1529.09"/>
  </g>
</svg>