<?xml version="1.0" encoding="UTF-8"?>
<svg id="Layer_1" data-name="Layer 1" xmlns="http://www.w3.org/2000/svg" viewBox="0 0 1639.76 271.06">
  <defs>
    <style>
      .cls-1 {
        fill: #fff;
      }
    </style>
  </defs>
  <path class="cls-1" d="M553.77,16.05l-12.05.03-61.35,120.84,61.83,120.99,11.57-.11-61.88-120.82,61.88-120.94ZM506.52,16.05l-12.05.03-61.35,120.84,61.83,120.99,11.57-.11-61.88-120.82,61.88-120.94ZM565.35,16.08l-61.35,120.84,61.83,120.99,11.57-.11-61.88-120.82,61.88-120.94-12.05.03ZM530.15,16.05l-12.05.03-61.35,120.84,61.83,120.99,11.57-.11-61.88-120.82,61.88-120.94ZM337.81,173.36c-7.61,7.11-16.82,10.29-22.57,10.29h-49.58l4.34,11h45.24c7.33,0,19.61-3.47,30.08-13.25,8.08-7.56,17.72-21.39,17.72-44.42,0-40.59-31.18-57.44-47.87-57.44h-90.61l4.34,11h86.27c9.84,0,36.87,11.01,36.87,46.44,0,19.08-7.74,30.32-14.23,36.38ZM80.72,257.91h11.43l51.8-131.52-5.91-14.02-57.31,145.54ZM127.2,83l-69.1,174.87h11.36l63.28-160.5-5.54-14.38ZM108.35,16L12.73,257.79h11.59L114.22,30.71l89.85,227.12,11.23-.09L119.91,16h-11.56ZM115.53,55.55l-80.08,202.23h11.41L121.57,68.39l-6.04-12.84ZM131.22,16.17l95.14,241.61h11.85L142.84,16.17h-11.62ZM176.33,16.17l95.14,241.61h11.85L187.95,16.17h-11.62ZM320.13,215.55c9.88,0,26.45-4.71,40.65-17.98,11.01-10.29,24.14-29.16,24.14-60.64s-13-49.56-23.91-59.9c-14.33-13.58-31.03-18.4-40.97-18.4h-103.72l4.34,11h99.38c18.79,0,53.88,19.74,53.88,67.3,0,27.53-11.23,43.8-20.65,52.6-11.1,10.37-24.64,15.01-33.14,15.01h-46.21l4.34,11h41.87ZM329.82,16.57h-130.11l4.34,11h125.76c13.07,0,35.27,6.58,54.84,25.12,15.18,14.38,33.27,40.65,33.27,84.14s-18.25,70.94-33.56,85.25c-19.37,18.1-41.42,24.52-54.41,24.52h-39.44l4.34,11h35.1c14.99,0,40.21-7.2,61.92-27.49,16.9-15.79,37.05-44.8,37.05-93.29,0-84.99-64.55-120.27-99.11-120.27ZM153.78,16.17l95.14,241.61h11.85L165.4,16.17h-11.62ZM376.42,213.94c13.97-13.06,30.63-37.02,30.63-77.06,0-70.24-53.46-99.4-82.09-99.4h-116.99l4.34,11h112.65c10.51,0,28.38,5.31,44.18,20.28,12.27,11.63,26.91,32.89,26.91,68.12s-14.76,57.45-27.14,69.02c-15.64,14.61-33.38,19.8-43.83,19.8h-42.81l4.34,11h38.47c12.45,0,33.37-5.96,51.34-22.76ZM1293.39,248.28h11.04v-9.63h-11.04v9.63ZM748.81,199.82s0-.01,0-.02v-1.85c0-9.99-8.1-18.09-18.09-18.09h-.97c-9.99,0-18.09,8.1-18.09,18.09v1.85c0,9.99,8.1,18.09,18.09,18.09h.97c2.22,0,4.33-.42,6.29-1.15v.02s-1.51,3.18-8.03,5.67v8.51s12.06.74,16.16-4.6c4.11-5.34,3.69-10.38,3.67-12.95-.01-2.18,0-10.96,0-13.59ZM737.01,200.07c0,3.91-3.17,7.07-7.07,7.07s-7.07-3.17-7.07-7.07v-2.5c0-3.91,3.17-7.07,7.07-7.07s7.07,3.17,7.07,7.07v2.5ZM1332.34,187.49l.25-11.17s-30.25-2.2-29.51,27.81h20.82s.18,16.12-17.58,16.12-18-14.37-18-16.69v-10.51h-11.77v11.15c0,10.82,9.58,26.98,29.77,26.98s29.77-14.27,29.77-27.45v-9.76h-18.18s.11-6.48,14.44-6.48ZM1309.37,248.29h11.04v-9.63h-11.04v9.63ZM1201.4,187.49l.25-11.17s-30.25-2.2-29.51,27.81h20.82s.18,16.12-17.58,16.12-18-14.37-18-16.69v-10.51h-11.77v11.15c0,10.82,9.58,26.98,29.77,26.98s29.77-14.27,29.77-27.45v-9.76h-18.18s.11-6.48,14.44-6.48ZM1178.44,248.29h11.04v-9.63h-11.04v9.63ZM1229.23,180.02c-3.23,0-7.12.21-7.12.21l-.1,9.33s2.84-.18,3.4-.18c10.38-.14,17.79,8.59,17.31,16.75h-30.54v11.43h41.72c4.07-27.48-11.48-37.57-24.68-37.55ZM1585.19,164.25h-11.04v9.63h11.04v-9.63ZM1344.56,217.39h11.89v-53.23h-11.89v53.23ZM1415.59,164.23v-9.63h-11.04v9.63h11.04ZM1558.16,173.87h11.04v-9.63h-11.04v9.63ZM1457.5,181.38l10.53-16.66-13.46-.05-16.21,26.02h21.96c8.3,0,15.09,7.95,14.91,15.58h-48.28c-4.24,0-7.68-3.44-7.68-7.68v-26.76h-19.68c-5.98,0-19.26,3.3-19.34,18.25-.08,15.14,7.13,22.34,16.03,22.2,4.88-.08,8.92-2.14,11.78-4.55,2.24,5.79,7.85,9.9,14.43,9.9h65.57v-7.87c0-5.73,1.89-28.36-30.57-28.36ZM1407.01,195.79s-.04-.02-.04-.02c0,0-1.49,6.96-8.8,6.96s-6.26-9.46-6.26-11.96.59-10.03,10.1-10.26c2.11-.05,3.73-.09,5.01-.12v15.39ZM1350.82,152.34c1.26-2.89,4.44,0,4.44,0l1.85-2.85s-3.11-2.84-5.85-2.83c-5.48.02-8.13,13.58-8.13,13.58h14.37v-4.64h-1.74c-3.93-.07-6.06-.72-4.95-3.26ZM1399.6,164.22v-9.63h-11.04v9.63h11.04ZM939.62,200.93c0,2.97-2.41,5.37-5.37,5.37h-14.48v-1.06c0-10.15-8.23-18.38-18.38-18.38h-1.63c-10.15,0-18.38,8.23-18.38,18.38v1.06h-12.11c-3.58-.77-3.94-4.55-3.94-4.55h0c-.79-4.86-3.43-12.69-12.05-18.59-13.44-9.2-31.58-1.02-35.8,4.53l5.68,7.8s6.28-5.66,14.5-5.59c8.22.07,16.66,6.62,16.29,16.4h-56.07v-2.27h-.02c-.25-13.18-12.35-23.82-27.26-23.82-1.6,0-3.15.15-4.67.38l.72,10.01c1.27-.28,2.58-.45,3.95-.45,8.89,0,16.1,6.4,16.1,14.29,0,.58-.05,1.14-.12,1.7h-29.62v11.76h127.83c3.33,4.7,8.8,7.77,14.99,7.77h1.63c6.19,0,11.66-3.07,14.99-7.77h19.1c6.26,0,15.47-5.01,15.47-12.72v-40.98h-11.34v36.73ZM908.39,207.34c0,4.18-3.39,7.57-7.57,7.57h-.17c-4.18,0-7.57-3.39-7.57-7.57v-3.29c0-4.18,3.39-7.57,7.57-7.57h.17c4.18,0,7.57,3.39,7.57,7.57v3.29ZM959.46,217.37h11.63v-53.21h-11.63v53.21ZM636.44,161.89v9.63h11.04v-9.63h-11.04ZM676.25,180.21c-1.6,0-3.15.15-4.67.38l.72,10.01c1.27-.28,2.58-.45,3.95-.45,8.89,0,16.1,6.4,16.1,14.29,0,.58-.05,1.14-.12,1.7h-29.62v11.76h40.94v-13.87h-.02c-.25-13.18-12.35-23.82-27.26-23.82ZM620.67,161.89v9.63h11.04v-9.63h-11.04ZM1590.01,199.69c0,3.3-2.67,5.97-5.97,5.97h-6.18v-25.24h-11.13v19.27c0,3.3-2.67,5.97-5.97,5.97h-6.78v-25.24h-11.13v19.27c0,3.3-2.67,5.97-5.97,5.97h-18.49v-25.24h-11.13v35.91c0,4.1-11.71,5.54-11.71,5.54v9.02s19.29,1.26,22.4-13.13h64.6c10.26,0,18.58-8.32,18.58-18.58v-18.76h-11.13v19.27ZM1027.89,248.29h11.04v-9.63h-11.04v9.63ZM1162.45,248.28h11.04v-9.63h-11.04v9.63ZM635.89,177.77h-2.47c-10.43,0-18.89,8.46-18.89,18.89v2.04c0,10.43,8.46,18.89,18.89,18.89h2.47c10.43,0,18.89-8.46,18.89-18.89v-2.04c0-10.43-8.46-18.89-18.89-18.89ZM643.65,199.49c0,5.05-4.09,9.14-9.14,9.14s-9.14-4.09-9.14-9.14v-3.75c0-5.05,4.09-9.14,9.14-9.14s9.14,4.09,9.14,9.14v3.75ZM1576.56,150.6h-11.04v9.63h11.04v-9.63ZM1094.87,184.6l10.53-16.66-13.46-.05-16.21,26.02h21.96c8.3,0,15.09,7.95,14.91,15.58h-46.94c-6.82,0-7.81-2.23-8.2-3.19-.4-.95-2.85-12.66-17.19-13.03-4.26.02-5.65.55-5.65.55v9.48s5.5-1.01,7.94,3.39c2.44,4.4-.31,17.14-16.39,17.09-16.26-.05-17.36-13.97-17.6-17.48s-.57-9.63-.57-9.63h-11.57c0,30.13,12.69,38.1,30.19,38.1,19.38,0,26.89-10.74,28.67-16.79,0,0,3.78,2.85,7.42,2.85h62.72v-7.87c0-5.73,1.89-28.36-30.57-28.36ZM1011.9,248.28h11.04v-9.63h-11.04v9.63ZM1571.55,132.22c5.3-1.42,10.25-4.27,14.87-8.56,4.62-4.28,8.22-9.6,10.82-15.94,2.6-6.34,3.9-15.27,3.9-26.78,0-7.35-.88-14.3-2.62-20.86-1.75-6.56-4.57-12.32-8.46-17.26-3.89-4.95-8.81-8.74-14.76-11.39-5.95-2.64-13.76-3.97-23.43-3.97h-49.05v107.69h49.05c5.88,0,12.44-.98,19.68-2.94ZM1535.83,110.69v-58.84h8.24c8.55,0,14.67,2.11,18.37,6.32,3.69,4.21,5.54,12.02,5.54,23.43,0,8.62-.83,14.85-2.48,18.7-1.65,3.85-3.94,6.54-6.85,8.08-2.91,1.54-7.82,2.31-14.72,2.31h-8.09ZM1431.2,135.15h33.02V54.05h33.67v-26.59h-100.37v26.59h33.67v81.1ZM1240.57,135.15h15.16c-.21,3.02-1.12,3.46-2.66,5.79v5.72l19-11.9c.12-1.51.2-3.05.2-4.68v-24.61h-31.71v29.68ZM1009.85,131.89c.29.14.6.25.9.39.35.18.7.36,1.06.53,6.06,2.79,13.76,4.19,23.12,4.19.47,0,.91-.02,1.37-.03.46,0,.9.03,1.37.03,9.36,0,17.06-1.4,23.12-4.19.36-.17.71-.35,1.06-.53.3-.13.61-.25.9-.39,7.2-3.4,13.41-9.38,18.63-17.95,2.46-4.03,4.32-8.62,5.62-13.72h-33.18c-1.13,2.53-2.46,4.68-4.01,6.43-3.07,3.48-7.59,5.25-13.52,5.35-5.93-.09-10.44-1.87-13.52-5.35-2.53-2.87-4.5-6.79-5.92-11.74-.75-3.91-1.14-8.57-1.14-14.08,0-9.63,1.47-16.7,4.42-21.2,3.77-5.88,9.17-8.88,16.16-9.06,6.99.18,12.38,3.19,16.16,9.06.73,1.12,1.37,2.4,1.92,3.83h33.05c-2.12-9.52-6.11-17.35-12-23.48-6.54-6.81-15.03-11.19-25.44-13.15-.16-.03-.31-.06-.47-.09-2.64-.48-5.4-.8-8.29-.97-.18-.01-.35-.02-.53-.03-1.4-.07-2.82-.12-4.28-.12-.04,0-.08,0-.13,0-.04,0-.08,0-.13,0-1.46,0-2.88.05-4.28.12-.18,0-.36.02-.53.03-2.89.17-5.65.49-8.29.97-.16.03-.31.06-.47.09-10.41,1.96-18.89,6.34-25.44,13.15-9.19,9.57-13.79,23.26-13.79,41.07,0,13.36,2.61,24.32,7.84,32.89,5.22,8.57,11.44,14.55,18.63,17.95ZM694.23,117.38l5.35,17.78h81.72c5.88,0,12.44-.98,19.68-2.94,5.3-1.42,10.25-4.27,14.87-8.56,4.62-4.28,8.22-9.6,10.82-15.94,2.6-6.34,3.9-15.27,3.9-26.78,0-7.35-.88-14.3-2.62-20.86-1.75-6.56-4.57-12.32-8.46-17.26-3.89-4.95-8.81-8.74-14.76-11.39-5.95-2.64-13.76-3.97-23.43-3.97h-49.05v102.58l-38.24-102.58h-36.02l-40.16,107.69h33.71l5.21-17.78,3.59-11.64h30.48l3.42,11.64ZM765.26,51.85h8.24c8.55,0,14.68,2.11,18.37,6.32,3.69,4.21,5.54,12.02,5.54,23.43,0,8.62-.83,14.85-2.48,18.7-1.65,3.85-3.94,6.54-6.85,8.08-2.91,1.54-7.82,2.31-14.72,2.31h-8.09v-58.84ZM667.43,82.45l8.16-27.07,8.25,27.07h-16.41ZM1191.56,113.3c4.2-8.05,6.31-18.38,6.31-30.96,0-17.34-4.81-30.82-14.43-40.44-9.62-9.62-23.32-14.43-41.11-14.43s-30.88,4.9-40.6,14.69c-9.72,9.8-14.58,23.48-14.58,41.06,0,12.59,2.45,23.07,7.36,31.44,4.91,8.37,11.31,14.5,19.21,18.37,7.9,3.87,17.87,5.8,29.92,5.8s21.76-2.24,29.7-6.72c7.94-4.48,14.02-10.75,18.22-18.81ZM1159.01,106.94c-3.89,4.65-9.38,6.98-16.47,6.98s-12.35-2.37-16.36-7.13c-4.01-4.75-6.01-12.56-6.01-23.43s2.02-18.83,6.05-23.58c4.03-4.75,9.38-7.13,16.04-7.13s12.45,2.34,16.51,7.02c4.06,4.68,6.09,12.08,6.09,22.22,0,12.05-1.94,20.4-5.83,25.05ZM869.82,108.87l17.06-18.01,22.53,44.29h40.66l-40.74-67.04,38.99-40.65h-43.91l-34.59,40.7V27.46h-33.02v107.69h33.02v-26.28ZM1403.04,108.64h-51.53V27.46h-33.02v107.69h84.55v-26.52ZM1233.68,105.18h-31.71v29.97h31.71v-29.97Z"/>
</svg>