<?xml version="1.0" encoding="UTF-8"?>
<svg id="Layer_1" data-name="Layer 1" xmlns="http://www.w3.org/2000/svg" viewBox="0 0 2608.3 644.84">
  <defs>
    <style>
      .cls-1 {
        fill: #231f20;
      }

      .cls-2 {
        fill: #cd202a;
      }

      .cls-3 {
        fill: #14499c;
      }
    </style>
  </defs>
  <path class="cls-2" d="M525.75.36h-148.27v4.01l-11.63,69.51h159.91s34.7-1.43,25.88,51.28c-6,35.86-22.62,44.01-35.57,45.56h-166.41l-30.09,179.83h78.56l20.97-125.29h37.63c48.08,0,75.5,12.09,67.01,72.24l-8.88,53.05h78.46l-.04-.07s.09.05.13.07c-1.52-21.32,13.59-52.94,11.94-86.12-1-20.2-9.42-40.47-26.41-56.96,24.15-14.36,44.3-38.15,49.9-74.24C639.33,65.51,615.1.16,525.75.36ZM224.78.36H76.51v4.01l-11.63,69.51h159.91s34.7-1.43,25.88,51.28c-6,35.86-22.62,44.01-35.57,45.56H48.67l-30.09,179.83h78.56l20.97-125.29h62.88c-.02.09-.03.14-.03.14h31.41c43.24,0,104.99-24.44,115.49-92.16C338.37,65.51,314.14.16,224.78.36ZM870.1,223.63h75.88l3.15-18.82h-75.7l-3.33,18.82ZM883.35,148.8h75.15l3.15-18.82h-74.97l-3.33,18.82ZM866.55,2.28h-70.23c-64.32,0-125.2,52.15-135.96,116.47l-19.43,116.1c-10.76,64.32,32.66,116.47,96.98,116.47h70.23c61.85,0,120.5-48.21,134.49-109.11h-75.83l-.5,2.84c-3.31,22.07-22.01,39.97-41.77,39.97h-83.46c-19.76,0-33.1-17.9-29.79-39.97l24.18-136.51c3.31-22.07,22.01-39.97,41.77-39.97h83.46c19.76,0,33.1,17.9,29.79,39.97l-.5,2.84h74.55c6.39-60.89-36.12-109.11-97.97-109.11ZM876.72,186.22h75.52l3.15-18.82h-75.33l-3.33,18.82Z"/>
  <path class="cls-1" d="M776.92,560.09c-1.51,9.01-3.46,13.79-4.84,16.21-1.72,3.03-4.26,5.48-7.53,7.27-3.47,1.9-7.05,2.86-10.63,2.86-3.36,0-6.01-.82-7.88-2.44-1.85-1.61-2.81-3.72-2.99-6.59-.09-1.7.15-5.77,1.79-15.55l9.6-57.38h-26.44l-10.62,63.45c-1.2,7.19-1.73,12.38-1.61,15.86.16,5.38,1.28,10.05,3.33,13.87,2.14,4,5.82,7.3,10.93,9.82,4.94,2.43,10.55,3.67,16.68,3.67,8.89,0,17.11-2.49,24.53-7.43l-.89,5.31h24.82l17.49-104.54h-26.44l-9.31,55.62ZM578.84,583.85c-2.53.36-4.62.56-6.04.56-1.77,0-2.28-.31-2.29-.31-.23-.16-.31-.29-.36-.46-.02-.25-.11-1.77.7-6.64l8.22-49.14h15.47l3.91-23.38h-15.47l6.2-37.07-29.1,16.38-3.46,20.7h-11.29l-3.91,23.38h11.29l-8.08,48.26c-1.76,10.5-2.13,17.13-1.17,20.86,1.04,4.07,3.44,7.36,7.14,9.78,3.54,2.32,8.66,3.5,15.22,3.5,3.8,0,8.19-.52,13.05-1.53l5.29-1.1.21-24.56-5.54.8ZM675.47,502.36c-4.74,0-9.37,1.41-13.76,4.18-.4.25-.81.53-1.21.82l.48-2.89h-24.9l-17.49,104.54h26.44l9.12-54.47c1.02-6.11,2.76-11.79,5.14-16.86,1.22-2.58,2.85-4.57,4.83-5.94,1.95-1.34,3.85-1.96,6-1.96,2.72,0,5.4.88,7.97,2.63l5.19,3.52,13.32-25.23-3.34-2.38c-5.57-3.96-11.55-5.97-17.78-5.97ZM1045.9,609.02h26.44l17.49-104.54h-26.44l-17.49,104.54ZM908.11,568.5c-2.01,6.6-4.84,11.42-8.41,14.33-3.53,2.88-7.36,4.22-12.05,4.22-5.92,0-10.03-2.07-12.93-6.52-3-4.59-3.61-12.84-1.76-23.87,1.84-10.98,5.17-18.92,9.91-23.59,4.58-4.52,9.6-6.63,15.79-6.63,3.83,0,6.67,1.08,8.92,3.39,2.31,2.37,3.63,6.15,3.94,11.24l.3,5.05,26.37-4.08-.11-5.58c-.21-10.72-3.5-19.18-9.78-25.14-6.26-5.94-15.07-8.95-26.2-8.95-8.74,0-17.32,2.15-25.48,6.4-8.41,4.38-15.3,10.99-20.47,19.66-4.91,8.23-8.31,17.88-10.12,28.68-2.84,16.95-.78,30.3,6.12,39.66,7.01,9.53,17.67,14.37,31.66,14.37,11.27,0,21.54-3.54,30.53-10.51,8.92-6.92,15.4-16.51,19.25-28.51l1.79-5.57-25.6-3.5-1.66,5.46ZM1005.9,583.85c-2.53.36-4.62.56-6.04.56-1.77,0-2.29-.31-2.29-.31-.23-.16-.31-.29-.36-.46-.02-.25-.11-1.78.7-6.64l8.22-49.14h15.47l3.91-23.38h-15.47l6.2-37.07-29.1,16.38-3.46,20.7h-11.29l-3.91,23.38h11.29l-8.08,48.26c-1.76,10.5-2.13,17.13-1.17,20.86,1.04,4.07,3.44,7.36,7.14,9.78,3.54,2.32,8.66,3.5,15.22,3.5,3.8,0,8.19-.52,13.05-1.53l5.29-1.1.21-24.56-5.54.8ZM488.2,549.09h0c-4.2-2.01-11.7-4.58-22.25-7.62-8.95-2.64-11.6-3.55-12.38-3.86-1.56-.7-2.64-1.53-3.16-2.45-.41-.68-.52-1.34-.38-2.19.17-1.01.68-2.4,3.14-4.13,1.28-.9,4.55-2.41,12.09-2.41,4.64,0,7.97.94,9.91,2.79,1.92,1.83,2.77,4.31,2.68,7.78l-.14,5.46,26.71-3.66.04-5.56c.05-6.86-1.11-12.52-3.44-16.81-2.44-4.48-6.69-8.02-12.65-10.53-5.61-2.36-12.4-3.55-20.19-3.55-5.25,0-10.39.72-15.27,2.13-4.98,1.45-9.16,3.3-12.36,5.45-4.34,2.84-8.04,6.45-10.99,10.74-2.98,4.33-4.93,9.09-5.77,14.13-.93,5.57-.4,10.74,1.58,15.37,2.01,4.7,5.51,8.41,10.39,11.03,4.34,2.33,11.93,4.95,23.18,8.01,10.62,2.88,12.91,4.34,13.24,4.59,1.33,1.02,1.75,2.15,1.46,3.88-.4,2.4-1.72,4.32-4.27,6.26-2.67,2.03-7.04,3.1-12.63,3.1s-9.71-1.24-12.16-3.69c-2.42-2.42-3.57-6.12-3.42-10.99l.18-5.62-27.04,4.26.03,5.5c.06,11.22,3.25,19.9,9.48,25.79,6.19,5.85,15.94,8.82,28.99,8.82,7.88,0,15.33-1.45,22.15-4.32,7.11-2.99,12.99-7.32,17.48-12.88,4.49-5.55,7.3-11.57,8.36-17.9,1.09-6.49.47-12.09-1.83-16.65-2.28-4.5-5.9-7.96-10.75-10.28ZM212.84,502.36c-12.57,0-24.07,3.96-34.21,11.79-12.1,9.39-19.84,23.72-23,42.59-2.87,17.16-.67,30.63,6.54,40.04,7.29,9.52,18.21,14.34,32.46,14.34,8.86,0,17.52-2.17,25.74-6.45,8.35-4.34,15.27-10.52,20.57-18.36,5.17-7.65,8.88-18.04,11.03-30.89,2.72-16.23.39-29.25-6.91-38.69-7.38-9.54-18.22-14.37-32.23-14.37ZM214.69,580.02c-4.86,4.79-9.96,7.03-16.02,7.03s-10.51-2.22-13.77-6.99c-3.35-4.9-4.16-12.74-2.39-23.31,1.77-10.56,5.19-18.39,10.17-23.26,4.86-4.75,9.98-6.96,16.12-6.96s10.36,2.23,13.65,7c3.38,4.9,4.23,12.53,2.53,22.68-1.82,10.86-5.28,18.87-10.28,23.8ZM92.57,557.1c-3.62,9.59-8.62,16.82-14.87,21.5-6.15,4.61-13.27,6.95-21.16,6.95-6.56,0-12.45-1.77-17.51-5.25-4.9-3.38-8.14-8.63-9.62-15.61-1.59-7.52-1.53-16.53.18-26.78,1.32-7.89,3.85-15.64,7.52-23.06,3.39-6.86,8.24-12.38,14.4-16.41,6.14-4.02,13.51-6.06,21.89-6.06,7.08,0,12.67,1.77,16.59,5.27,3.99,3.56,6.61,9.54,7.78,17.78l.71,4.96,28.05-6.54-.63-5.52c-1.5-13.03-6.44-23.33-14.7-30.61-8.28-7.3-19.43-11-33.16-11-11.97,0-23.59,2.86-34.53,8.5-11.1,5.72-20.43,14.18-27.73,25.15-7.15,10.73-11.98,23.39-14.36,37.63-2.17,12.99-1.87,25.34.9,36.7,2.86,11.72,8.52,20.84,16.83,27.1,8.3,6.26,19.89,9.43,34.46,9.43s27.31-4.14,38.68-12.29c11.3-8.1,20.21-19.89,26.5-35.04l2.2-5.3-26.29-7.15-2.14,5.67ZM377.61,515.74h0c-2.17-4.12-5.86-7.44-10.96-9.87-4.88-2.33-10.52-3.51-16.73-3.51-9.06,0-17.28,2.37-24.55,7.06l.83-4.94h-24.9l-17.49,104.54h26.44l9.47-56.59c2.14-12.81,5.92-18.1,8.7-20.28,4.25-3.32,9-5.01,14.11-5.01,3.03,0,5.54.68,7.46,2.02,1.82,1.27,2.87,2.84,3.3,4.91.36,1.76.55,5.37-.65,12.54l-10.44,62.4h26.44l10.54-63.01c1.32-7.86,1.89-13.1,1.8-16.5-.18-5.24-1.31-9.87-3.36-13.76ZM1064.44,498.18h26.44l4.9-29.28h-26.44l-4.9,29.28ZM1751.71,507.95c-.64-.47-1.31-.91-2-1.33-4.61-2.83-10.2-4.26-16.59-4.26-8.55,0-16.8,2.36-24.51,7.01-7.74,4.66-14.13,11.4-19,20.02-4.64,8.22-7.84,17.45-9.51,27.44-1.73,10.31-1.44,19.63.86,27.68,2.36,8.28,6.66,14.84,12.78,19.51,6.18,4.72,13.54,7.11,21.87,7.11,7.65,0,14.61-1.9,20.81-5.66l-.59,3.55h25.33l23.45-140.11h-26.36l-6.53,39.04ZM1735.07,580.55h0c-4.42,4.43-8.86,6.5-13.98,6.5s-8.85-2.19-11.95-6.89c-3.22-4.88-3.95-12.73-2.18-23.33,1.85-11.04,5.1-19.03,9.65-23.76,4.31-4.47,8.73-6.55,13.92-6.55s9.25,2.19,12.23,6.91c3.13,4.95,3.75,13.27,1.83,24.72-1.71,10.24-4.92,17.78-9.53,22.4ZM1812.45,609.02h28.58l4.87-29.1h-28.58l-4.87,29.1ZM2193.44,502.36c-12.57,0-24.07,3.96-34.21,11.79-12.1,9.39-19.84,23.72-23,42.59-2.87,17.16-.67,30.63,6.54,40.04,7.29,9.52,18.21,14.34,32.46,14.34,8.86,0,17.52-2.17,25.74-6.45,8.35-4.34,15.27-10.52,20.57-18.36,5.17-7.65,8.88-18.04,11.03-30.89,2.72-16.23.39-29.25-6.91-38.69-7.38-9.54-18.22-14.37-32.23-14.37ZM2195.3,580.02c-4.87,4.79-9.96,7.03-16.03,7.03s-10.51-2.22-13.77-6.99c-3.35-4.9-4.16-12.74-2.39-23.31,1.77-10.56,5.19-18.39,10.17-23.26,4.86-4.75,9.98-6.96,16.12-6.96s10.36,2.23,13.65,7c3.38,4.9,4.23,12.53,2.53,22.68-1.82,10.86-5.28,18.87-10.28,23.8ZM2442.7,509.51h0c-6.05-4.74-13.61-7.15-22.47-7.15-6.88,0-13.13,1.44-18.59,4.29-1.09.57-2.18,1.2-3.25,1.89l.68-4.06h-25.07l-23.49,140.37h26.44l6.5-38.83c.55.38,1.11.74,1.68,1.09,4.43,2.67,9.74,4.02,15.79,4.02,8.05,0,16.19-2.35,24.2-6.99,8.04-4.66,14.76-11.41,19.97-20.05,5.02-8.32,8.43-17.76,10.15-28.04,1.61-9.59,1.45-18.57-.47-26.67-2-8.46-6.06-15.15-12.08-19.86ZM2418.37,580.14h0c-4.64,4.71-9.23,6.91-14.45,6.91s-8.86-2.1-11.81-6.61c-3.09-4.71-3.75-12.5-1.96-23.16,1.79-10.69,5.28-18.78,10.38-24.06,4.88-5.04,9.43-7.39,14.32-7.39s8.65,2.17,11.6,6.82c3.11,4.9,3.79,12.74,2.02,23.3-1.86,11.13-5.26,19.27-10.11,24.19ZM2073.18,557.1c-3.62,9.59-8.62,16.82-14.87,21.5-6.15,4.61-13.27,6.95-21.16,6.95-6.56,0-12.45-1.77-17.51-5.25-4.9-3.38-8.14-8.63-9.62-15.61-1.59-7.52-1.53-16.53.18-26.78,1.32-7.89,3.85-15.65,7.52-23.06,3.39-6.86,8.24-12.38,14.4-16.41,6.14-4.02,13.51-6.06,21.89-6.06,7.08,0,12.67,1.77,16.59,5.27,3.99,3.56,6.61,9.54,7.78,17.78l.71,4.96,28.04-6.54-.63-5.52c-1.5-13.03-6.44-23.33-14.7-30.61-8.28-7.3-19.43-11-33.16-11-11.97,0-23.59,2.86-34.53,8.5-11.1,5.72-20.43,14.18-27.73,25.15-7.15,10.73-11.98,23.39-14.36,37.63-2.17,12.99-1.87,25.34.9,36.7,2.86,11.72,8.52,20.84,16.83,27.1,8.3,6.26,19.89,9.43,34.46,9.43s27.31-4.14,38.68-12.29c11.3-8.1,20.21-19.89,26.5-35.04l2.2-5.3-26.29-7.15-2.14,5.67ZM2321.11,502.36c-4.74,0-9.37,1.41-13.76,4.18-.4.25-.81.53-1.21.82l.48-2.89h-24.9l-17.49,104.54h26.44l9.12-54.47c1.02-6.12,2.76-11.79,5.14-16.86,1.22-2.57,2.85-4.57,4.83-5.94,1.95-1.34,3.85-1.96,6-1.96,2.72,0,5.4.88,7.97,2.63l5.19,3.51,13.32-25.23-3.34-2.37c-5.57-3.96-11.55-5.97-17.78-5.97ZM2496.9,579.92l-4.87,29.1h28.58l4.87-29.1h-28.58ZM1178.73,502.36c-12.57,0-24.07,3.96-34.21,11.79-12.1,9.39-19.84,23.72-23,42.59-2.87,17.16-.67,30.63,6.54,40.04,7.29,9.52,18.21,14.34,32.46,14.34,8.86,0,17.52-2.17,25.74-6.45,8.35-4.34,15.27-10.52,20.57-18.36,5.17-7.65,8.88-18.04,11.03-30.89,2.72-16.23.39-29.25-6.91-38.69-7.38-9.54-18.22-14.37-32.23-14.37ZM1180.58,580.02c-4.86,4.79-9.96,7.03-16.02,7.03s-10.51-2.22-13.77-6.99c-3.35-4.9-4.16-12.74-2.39-23.31,1.77-10.56,5.19-18.39,10.17-23.26,4.86-4.75,9.98-6.96,16.12-6.96s10.36,2.23,13.65,7c3.38,4.9,4.23,12.53,2.53,22.68-1.82,10.86-5.28,18.87-10.28,23.8ZM1515.67,468.91h-27.64l-23.45,140.11h89.37l4.4-26.28h-61.73l19.05-113.83ZM1637.01,583.85c-2.53.36-4.62.56-6.04.56-1.77,0-2.28-.31-2.29-.31-.23-.16-.31-.29-.37-.47-.02-.25-.11-1.78.7-6.63l8.22-49.14h15.47l3.91-23.38h-15.47l6.2-37.07-29.1,16.38-3.46,20.7h-11.29l-3.91,23.38h11.29l-8.08,48.26c-1.76,10.5-2.13,17.13-1.17,20.86,1.04,4.07,3.44,7.36,7.14,9.78,3.54,2.32,8.66,3.5,15.22,3.5,3.8,0,8.19-.52,13.05-1.53l5.29-1.1.21-24.56-5.54.8ZM1343.5,515.74h0c-2.17-4.12-5.86-7.44-10.96-9.87-4.89-2.33-10.52-3.51-16.73-3.51-9.06,0-17.28,2.37-24.55,7.06l.83-4.94h-24.9l-17.49,104.54h26.44l9.47-56.59c2.14-12.81,5.92-18.1,8.7-20.28,4.25-3.32,9-5.01,14.11-5.01,3.03,0,5.54.68,7.46,2.02,1.82,1.28,2.87,2.84,3.3,4.91.36,1.76.55,5.37-.65,12.54l-10.44,62.4h26.44l10.54-63.01c1.32-7.86,1.89-13.1,1.8-16.5-.18-5.24-1.31-9.87-3.36-13.76Z"/>
  <path class="cls-3" d="M1799.61,36.78h140V3.08h-263.53v33.7h28.89l-52.48,313.6h233.28l9.85-29.17h-143.61l21.36-127.67h133.1v-29.17h-128.22l21.35-127.59ZM2513.66,3.08l-26.99,161.3h-106.41l26.99-161.3h-131.76v33.7h31.49l-52.48,313.6h94.64l26.25-156.84h106.41l-26.25,156.84h94.64L2608.3,3.08h-94.64ZM1270.69,3.08h-35.96v33.65h30.33l-38.55,230.37L1126.03,3.08h-94.64l-58.12,347.3h94.64l48.65-290.74,109.34,290.74h32.3L1316.33,3.08h-45.64ZM1652.49,3.08h-298.59l-10.19,33.7h106.68l-52.48,313.6h94.64l52.48-313.6h107.47V3.08ZM2113.55,33.14c39.78,0,57.81,37.16,58.42,89.91h75.34c-3.99-71.41-44.37-123.05-128.21-123.05-104.15,0-167.92,79.68-184.37,177.97-16.45,98.29,11.87,177.97,124.81,177.97,90.92,0,144.27-51.64,170.2-123.05h-75.55c-17.23,52.75-45.97,89.91-89.1,89.91-56.99,0-67.15-64.84-53.76-144.83,13.39-79.99,49.68-144.83,102.24-144.83Z"/>
  <polygon points="2542.47 424.76 2546.96 397.88 15.24 397.88 10.74 424.76 2542.47 424.76"/>
</svg>