<?xml version="1.0" encoding="UTF-8"?>
<svg id="Layer_1" data-name="Layer 1" xmlns="http://www.w3.org/2000/svg" viewBox="0 0 590.85 428.94">
  <defs>
    <style>
      .cls-1 {
        fill: #29386e;
      }

      .cls-2 {
        fill: #2466a6;
      }
    </style>
  </defs>
  <g>
    <path class="cls-1" d="M115.94,39.55L35.86,241.78h11.41L121.99,52.4l-6.04-12.84ZM127.61,67.01L58.51,241.88h11.36l63.28-160.5-5.54-14.38ZM81.13,241.91h11.43l51.8-131.52-5.91-14.02-57.31,145.54ZM131.64.18l95.14,241.61h11.85L143.26.18h-11.62ZM154.19.18l95.14,241.61h11.85L165.81.18h-11.62ZM176.74.18l95.14,241.61h11.85L188.36.18h-11.62ZM338.23,157.36c-7.61,7.11-16.82,10.29-22.57,10.29h-49.58l4.34,11h45.24c7.33,0,19.61-3.47,30.08-13.25,8.08-7.56,17.72-21.39,17.72-44.42,0-40.59-31.18-57.44-47.87-57.44h-90.61l4.34,11h86.27c9.84,0,36.87,11.01,36.87,46.44,0,19.08-7.74,30.32-14.23,36.38ZM376.83,197.94c13.97-13.06,30.63-37.02,30.63-77.06,0-70.24-53.46-99.4-82.09-99.4h-116.99l4.34,11h112.65c10.51,0,28.38,5.31,44.18,20.28,12.27,11.63,26.91,32.89,26.91,68.12s-14.76,57.45-27.14,69.02c-15.64,14.61-33.38,19.8-43.83,19.8h-42.81l4.34,11h38.47c12.45,0,33.37-5.96,51.34-22.76ZM320.54,199.55c9.88,0,26.45-4.71,40.65-17.98,11.01-10.29,24.14-29.16,24.14-60.64s-13-49.56-23.91-59.9c-14.33-13.58-31.03-18.4-40.97-18.4h-103.72l4.34,11h99.38c18.79,0,53.88,19.74,53.88,67.3,0,27.53-11.23,43.8-20.65,52.6-11.1,10.37-24.64,15.01-33.14,15.01h-46.21l4.34,11h41.87ZM530.56.05l-12.05.03-61.35,120.84,61.83,120.99,11.57-.11-61.88-120.82L530.56.05ZM554.19.05l-12.05.03-61.35,120.84,61.83,120.99,11.57-.11-61.88-120.82L554.19.05ZM506.94.05l-12.05.03-61.35,120.84,61.83,120.99,11.57-.11-61.88-120.82L506.94.05Z"/>
    <path class="cls-2" d="M108.76,0L13.15,241.8h11.59L114.64,14.71l89.85,227.12,11.23-.09L120.32,0h-11.56ZM577.82.05l-12.05.03-61.35,120.84,61.83,120.99,11.57-.11-61.88-120.82L577.82.05ZM330.23.57h-130.11l4.34,11h125.76c13.07,0,35.27,6.58,54.84,25.12,15.18,14.38,33.27,40.65,33.27,84.14s-18.25,70.94-33.56,85.25c-19.37,18.1-41.42,24.52-54.41,24.52h-39.44l4.34,11h35.1c14.99,0,40.21-7.2,61.92-27.49,16.9-15.79,37.05-44.8,37.05-93.29C429.34,35.85,364.79.57,330.23.57Z"/>
    <path class="cls-1" d="M121.18,289.14c-2.34-2.97-5.29-5.25-8.87-6.84-3.58-1.59-8.27-2.38-14.08-2.38h-29.48v61.64l-22.98-61.64h-21.64L0,344.62h20.26l3.13-10.68,2.15-7h18.31l2.06,7,3.21,10.68h49.11c3.53,0,7.47-.59,11.83-1.77,3.18-.85,6.16-2.57,8.93-5.14,2.77-2.57,4.94-5.77,6.5-9.58,1.56-3.81,2.34-9.17,2.34-16.09,0-4.41-.53-8.59-1.58-12.54-1.05-3.94-2.75-7.4-5.08-10.37ZM29.81,312.95l4.9-16.27,4.96,16.27h-9.86ZM106.42,323.68c-.99,2.31-2.37,3.93-4.12,4.86-1.75.93-4.7,1.39-8.85,1.39h-4.86v-35.36h4.95c5.14,0,8.82,1.27,11.04,3.8,2.22,2.53,3.33,7.22,3.33,14.08,0,5.18-.5,8.92-1.49,11.23ZM198.59,279.91h-26.39l-20.78,24.45v-24.45h-19.84v64.71h19.84v-15.79l10.25-10.82,13.54,26.61h24.43l-24.48-40.29,23.43-24.42ZM315.16,279.91c-10.42,0-18.56,2.94-24.4,8.83-5.84,5.89-8.76,14.11-8.76,24.67,0,7.56,1.47,13.86,4.42,18.89,2.95,5.03,6.8,8.71,11.54,11.04,4.74,2.33,10.74,3.49,17.98,3.49s13.07-1.35,17.85-4.04c4.77-2.69,8.42-6.46,10.95-11.3,2.53-4.84,3.79-11.04,3.79-18.6,0-10.42-2.89-18.52-8.67-24.3-5.78-5.78-14.02-8.67-24.7-8.67ZM325.19,327.67c-2.34,2.8-5.64,4.19-9.9,4.19s-7.42-1.43-9.83-4.28c-2.41-2.85-3.61-7.55-3.61-14.08s1.21-11.31,3.64-14.17c2.42-2.85,5.63-4.28,9.64-4.28s7.48,1.41,9.92,4.22c2.44,2.81,3.66,7.26,3.66,13.35,0,7.24-1.17,12.26-3.5,15.05ZM351,344.62h19.05v-18.01h-19.05v18.01ZM440.86,279.91h-19.84v64.71h50.8v-15.93h-30.96v-48.78ZM468.5,295.89h20.23v48.73h19.84v-48.73h20.23v-15.98h-60.31v15.98ZM589.28,299.51c-1.05-3.94-2.75-7.4-5.08-10.37-2.34-2.97-5.29-5.25-8.87-6.84-3.58-1.59-8.27-2.38-14.08-2.38h-29.48v64.71h29.48c3.53,0,7.47-.59,11.83-1.77,3.18-.85,6.16-2.57,8.93-5.14,2.77-2.57,4.94-5.77,6.5-9.58,1.56-3.81,2.34-9.17,2.34-16.09,0-4.41-.53-8.59-1.58-12.54ZM569.44,323.68c-.99,2.31-2.37,3.93-4.12,4.86-1.75.93-4.7,1.39-8.85,1.39h-4.86v-35.36h4.95c5.14,0,8.82,1.27,11.04,3.8,2.22,2.53,3.33,7.22,3.33,14.08,0,5.18-.5,8.92-1.49,11.23ZM259.57,327.49c-1.85,2.09-4.56,3.16-8.12,3.21-3.56-.06-6.27-1.12-8.12-3.21-1.52-1.72-2.7-4.08-3.56-7.06-.45-2.35-.68-5.15-.68-8.46,0-5.79.88-10.04,2.65-12.74,2.27-3.53,5.51-5.34,9.71-5.45,4.2.11,7.44,1.91,9.71,5.45.44.67.82,1.44,1.16,2.3h19.86c-1.27-5.72-3.67-10.43-7.21-14.11-3.93-4.09-9.03-6.72-15.28-7.9-.09-.02-.19-.03-.28-.05-1.59-.29-3.25-.48-4.98-.58-.11,0-.21-.01-.32-.02-.84-.04-1.7-.07-2.57-.07-.03,0-.05,0-.08,0-.03,0-.05,0-.08,0-.88,0-1.73.03-2.57.07-.11,0-.21.01-.32.02-1.73.1-3.39.29-4.98.58-.09.02-.19.03-.28.05-6.25,1.18-11.35,3.81-15.28,7.9-5.52,5.75-8.28,13.98-8.28,24.68,0,8.03,1.57,14.62,4.71,19.76,3.14,5.15,6.87,8.74,11.19,10.78.17.08.36.15.54.23.21.11.42.22.64.32,3.64,1.68,8.27,2.52,13.89,2.52.28,0,.55-.01.82-.02.28,0,.54.02.82.02,5.62,0,10.25-.84,13.89-2.52.22-.1.42-.21.64-.32.18-.08.37-.15.54-.23,4.32-2.04,8.06-5.64,11.19-10.78,1.48-2.42,2.6-5.18,3.38-8.24h-19.94c-.68,1.52-1.48,2.81-2.41,3.86ZM374.19,344.62h9.11c-.12,1.81-.67,2.08-1.6,3.48v3.43l11.42-7.15c.07-.9.12-1.83.12-2.81v-14.79h-19.05v17.83Z"/>
  </g>
  <path class="cls-1" d="M21.25,377.53h-6.57v5.73h6.57v-5.73ZM238.1,428.94h6.57v-5.73h-6.57v5.73ZM247.62,428.94h6.57v-5.73h-6.57v5.73ZM327.69,428.94h6.57v-5.73h-6.57v5.73ZM337.21,428.94h6.57v-5.73h-6.57v5.73ZM11.87,377.53h-6.57v5.73h6.57v-5.73ZM14.36,386.98h-1.47c-6.21,0-11.24,5.03-11.24,11.24v1.21c0,6.21,5.03,11.24,11.24,11.24h1.47c6.21,0,11.24-5.03,11.24-11.24v-1.21c0-6.21-5.03-11.24-11.24-11.24ZM18.97,399.91c0,3-2.43,5.44-5.44,5.44s-5.44-2.43-5.44-5.44v-2.23c0-3,2.43-5.44,5.44-5.44s5.44,2.43,5.44,5.44v2.23ZM38.38,388.43c-.95,0-1.87.09-2.78.23l.43,5.95c.75-.17,1.54-.27,2.35-.27,5.29,0,9.58,3.81,9.58,8.51,0,.34-.03.68-.07,1.01h-17.63v7h24.36v-8.25h-.01c-.15-7.85-7.35-14.17-16.22-14.17ZM81.55,400.1s0,0,0-.01v-1.1c0-5.95-4.82-10.77-10.77-10.77h-.58c-5.95,0-10.77,4.82-10.77,10.77v1.1c0,5.95,4.82,10.77,10.77,10.77h.58c1.32,0,2.58-.25,3.74-.68h0s-.9,1.91-4.78,3.39v5.06s7.17.44,9.62-2.73c2.44-3.17,2.19-6.18,2.18-7.7,0-1.3,0-6.52,0-8.09ZM74.53,400.25c0,2.32-1.88,4.21-4.21,4.21s-4.21-1.88-4.21-4.21v-1.49c0-2.32,1.88-4.21,4.21-4.21s4.21,1.88,4.21,4.21v1.49ZM195.09,400.76c0,1.77-1.43,3.2-3.2,3.2h-8.62v-.63c0-6.04-4.9-10.93-10.93-10.93h-.97c-6.04,0-10.93,4.9-10.93,10.93v.63h-7.2c-2.13-.46-2.35-2.71-2.35-2.71h0c-.47-2.89-2.04-7.55-7.17-11.06-8-5.48-18.79-.6-21.31,2.7l3.38,4.64s3.74-3.37,8.63-3.33c4.89.04,9.91,3.94,9.7,9.76h-33.37v-1.35h-.01c-.15-7.85-7.35-14.17-16.22-14.17-.95,0-1.87.09-2.78.23l.43,5.95c.75-.17,1.54-.27,2.35-.27,5.29,0,9.58,3.81,9.58,8.51,0,.34-.03.68-.07,1.01h-17.63v7h76.06c1.98,2.79,5.23,4.62,8.92,4.62h.97c3.69,0,6.94-1.83,8.92-4.62h11.37c3.73,0,9.21-2.98,9.21-7.57v-24.38h-6.75v21.86ZM176.51,404.58c0,2.49-2.02,4.5-4.5,4.5h-.1c-2.49,0-4.5-2.02-4.5-4.5v-1.96c0-2.49,2.02-4.5,4.5-4.5h.1c2.49,0,4.5,2.02,4.5,4.5v1.96ZM206.9,410.54h6.92v-31.66h-6.92v31.66ZM287.48,391.05l6.27-9.91-8.01-.03-9.64,15.48h13.07c4.94,0,8.98,4.73,8.87,9.27h-27.93c-4.06,0-4.65-1.33-4.88-1.9-.24-.57-1.7-7.53-10.23-7.76-2.53.01-3.36.33-3.36.33v5.64s3.27-.6,4.73,2.02c1.45,2.62-.19,10.2-9.75,10.17-9.68-.03-10.33-8.31-10.47-10.4-.14-2.09-.34-5.73-.34-5.73h-6.89c0,17.93,7.55,22.67,17.96,22.67,11.53,0,16-6.39,17.06-9.99,0,0,2.25,1.7,4.42,1.7h37.32v-4.69c0-3.41,1.13-16.87-18.19-16.87ZM350.87,392.77l.15-6.65s-18-1.31-17.56,16.55h12.39s.11,9.59-10.46,9.59-10.71-8.55-10.71-9.93v-6.26h-7v6.64c0,6.44,5.7,16.05,17.72,16.05s17.72-8.49,17.72-16.33v-5.81h-10.82s.07-3.85,8.59-3.85ZM405.61,428.94h6.57v-5.73h-6.57v5.73ZM415.12,428.94h6.57v-5.73h-6.57v5.73ZM468.81,373.19h-6.57v5.73h6.57v-5.73ZM478.32,373.19h-6.57v5.73h6.57v-5.73ZM569.73,378.93h-6.57v5.73h6.57v-5.73ZM572.68,384.67h6.57v-5.73h-6.57v5.73ZM574.11,370.81h-6.57v5.73h6.57v-5.73ZM428.78,392.77l.15-6.65s-18-1.31-17.56,16.55h12.39s.11,9.59-10.46,9.59-10.71-8.55-10.71-9.93v-6.26h-7v6.64c0,6.44,5.7,16.05,17.72,16.05s17.72-8.49,17.72-16.33v-5.81h-10.82s.07-3.85,8.59-3.85ZM367.43,388.32c-1.92,0-4.24.12-4.24.12l-.06,5.55s1.69-.1,2.02-.1c6.18-.08,10.59,5.11,10.3,9.97h-18.17v6.8h24.82c2.42-16.35-6.83-22.35-14.68-22.34ZM436.06,410.56h7.08v-31.68h-7.08v31.68ZM503.26,389.13l6.27-9.91-8.01-.03-9.64,15.48h13.07c4.94,0,8.98,4.73,8.87,9.27h-28.73c-2.52,0-4.57-2.05-4.57-4.57v-15.93h-11.71c-3.56,0-11.46,1.96-11.51,10.86-.05,9.01,4.24,13.29,9.54,13.21,2.91-.05,5.31-1.27,7.01-2.71,1.33,3.44,4.67,5.89,8.59,5.89h39.02v-4.69c0-3.41,1.13-16.87-18.19-16.87ZM473.22,397.7s-.02,0-.02,0c0,0-.89,4.14-5.24,4.14s-3.73-5.63-3.73-7.12.35-5.97,6.01-6.1c1.26-.03,2.22-.05,2.98-.07v9.16ZM439.78,371.85c.75-1.72,2.64,0,2.64,0l1.1-1.69s-1.85-1.69-3.48-1.68c-3.26.01-4.84,8.08-4.84,8.08h8.55v-2.76h-1.04c-2.34-.04-3.61-.43-2.95-1.94ZM582.11,388.56v11.47c0,1.96-1.59,3.55-3.55,3.55h-3.68v-15.02h-6.62v11.47c0,1.96-1.59,3.55-3.55,3.55h-4.03v-15.02h-6.62v11.47c0,1.96-1.59,3.55-3.55,3.55h-11v-15.02h-6.62v21.37c0,2.44-6.97,3.29-6.97,3.29v5.37s11.48.75,13.33-7.81h38.44c6.11,0,11.05-4.95,11.05-11.05v-11.16h-6.62Z"/>
</svg>